<?xml version="1.0" encoding="utf-8"?>
<!-- Generator: Adobe Illustrator 24.1.2, SVG Export Plug-In . SVG Version: 6.00 Build 0)  -->
<svg version="1.1" xmlns="http://www.w3.org/2000/svg" xmlns:xlink="http://www.w3.org/1999/xlink" x="0px" y="0px"
	 viewBox="0 0 180 96" style="enable-background:new 0 0 180 96;" xml:space="preserve">
<style type="text/css">
	.st0{display:none;}
	.st1{display:inline;}
	.st2{fill:#DBDBDB;}
	.st3{display:inline;fill:#515151;}
	.st4{display:inline;fill:#333333;}
	.st5{display:inline;fill:none;stroke:#333333;stroke-width:4;stroke-linecap:round;stroke-linejoin:round;stroke-miterlimit:10;}
	.st6{display:inline;fill:url(#SVGID_1_);}
	.st7{display:inline;fill:none;stroke:#E6E6E6;stroke-width:4;stroke-linecap:round;stroke-linejoin:round;stroke-miterlimit:10;}
	.st8{display:inline;fill:none;stroke:#000000;stroke-width:8;stroke-linecap:round;stroke-linejoin:round;stroke-miterlimit:10;}
	.st9{display:inline;fill:none;stroke:#000000;stroke-width:8;stroke-miterlimit:10;}
	.st10{fill:#E2BC44;}
	.st11{fill:none;stroke:#F4E1B5;stroke-width:6;stroke-linecap:round;stroke-linejoin:round;stroke-miterlimit:10;}
	.st12{fill:none;stroke:#2B2B2B;stroke-width:6;stroke-linecap:round;stroke-linejoin:round;stroke-miterlimit:10;}
	.st13{fill:#EFEFE8;}
	.st14{fill:#C1C1C1;}
	.st15{fill:#848484;}
	.st16{fill:#E8B015;}
	.st17{fill:none;stroke:#F8E6B4;stroke-width:6;stroke-linecap:round;stroke-linejoin:round;stroke-miterlimit:10;}
	.st18{fill:#F0F2EF;}
	.st19{fill:none;stroke:#313533;stroke-width:6;stroke-linecap:round;stroke-linejoin:round;stroke-miterlimit:10;}
	.st20{fill:#313533;}
	.st21{fill:#F4F4F4;}
	.st22{fill:#2B2B2B;}
	.st23{fill:#4C4C4C;}
	.st24{display:none;fill:#F4F4F4;}
	.st25{fill:none;stroke:#F8E6B4;stroke-width:1.2;stroke-linecap:round;stroke-linejoin:round;stroke-miterlimit:10;}
	.st26{fill:none;stroke:#2B2B2B;stroke-width:1.2;stroke-linecap:round;stroke-linejoin:round;stroke-miterlimit:10;}
	.st27{display:inline;fill:#2B2B2B;}
	.st28{display:none;fill:#4C4C4C;}
	.st29{clip-path:url(#SVGID_3_);fill:#E8B015;}
	.st30{fill:none;stroke:#313533;stroke-width:0.672;stroke-linecap:round;stroke-linejoin:round;stroke-miterlimit:10;}
</style>
<g id="Capa_1" class="st0">
</g>
<g id="Isotipo_original">
</g>
<g id="Isotipo">
</g>
<g id="Isotipo_fondo_claro">
</g>
<g id="Isotipo_fondo_oscuro">
</g>
<g id="Imagotipo_claro">
	<g>
		<g id="Sol_2_">
			<circle class="st16" cx="52.53" cy="36.96" r="7.25"/>
			<g>
				<line class="st25" x1="46.26" y1="33.32" x2="49.49" y2="33.32"/>
				<line class="st25" x1="46.91" y1="41.55" x2="50.99" y2="41.55"/>
				<line class="st25" x1="59.53" y1="35.09" x2="55.89" y2="35.09"/>
				<line class="st25" x1="45.33" y1="37.84" x2="47.89" y2="37.84"/>
				<line class="st25" x1="57.24" y1="31.46" x2="54.58" y2="31.46"/>
				<line class="st25" x1="59.53" y1="38.84" x2="57.71" y2="38.84"/>
			</g>
			<circle class="st26" cx="52.53" cy="36.96" r="7.25"/>
		</g>
		<g id="Nube_izq_7_">
			<g>
				<path class="st13" d="M39.4,61.28c0.23-0.71,0.36-1.46,0.36-2.25c0-4-3.24-7.25-7.25-7.25c-3.04,0-5.64,1.87-6.71,4.52l0,0
					c-0.18-0.02-0.35-0.03-0.53-0.03c-2.77,0-5.01,2.23-5.01,4.99c-2.77,0-5.01,2.24-5.01,5.01h19.51h10.02
					c0-2.77-2.24-5.01-5.01-5.01C39.64,61.27,39.52,61.27,39.4,61.28"/>
			</g>
			<g>
				<path class="st26" d="M39.4,61.28c0.23-0.71,0.36-1.46,0.36-2.25c0-4-3.24-7.25-7.25-7.25c-3.04,0-5.64,1.87-6.71,4.52l0,0
					c-0.18-0.02-0.35-0.03-0.53-0.03c-2.77,0-5.01,2.23-5.01,4.99c-2.77,0-5.01,2.24-5.01,5.01h19.51h10.02
					c0-2.77-2.24-5.01-5.01-5.01C39.64,61.27,39.52,61.27,39.4,61.28"/>
			</g>
		</g>
		<g id="Montaña_9_">
			<polygon class="st13" points="54.41,66.28 50.55,56.64 55.07,51.62 52.53,36.96 40.57,46.19 35.3,56.22 30.78,59.04 25.8,66.28 
							"/>
			<polygon class="st22" points="54.41,66.28 50.55,56.64 55.07,51.62 52.53,36.96 64.95,46.38 70.49,51.99 72.34,56.47 
				80.38,66.28 			"/>
			<path class="st26" d="M25.8,66.28h54.59l-8.05-9.81l-1.77-4.41l-5.62-5.68l-11.81-8.95c-0.36-0.27-0.86-0.27-1.21,0.01
				l-11.35,8.76L35.3,56.22l-4.52,2.81L25.8,66.28"/>
		</g>
		<g id="Nube_der_7_">
			<g>
				<path class="st13" d="M65.65,61.28c-0.23-0.71-0.36-1.46-0.36-2.25c0-4,3.24-7.25,7.25-7.25c3.04,0,5.64,1.87,6.71,4.52l0,0
					c0.18-0.02,0.35-0.03,0.53-0.03c2.77,0,5.01,2.23,5.01,4.99c2.77,0,5.01,2.24,5.01,5.01H70.31H60.28c0-2.77,2.24-5.01,5.01-5.01
					C65.41,61.27,65.53,61.27,65.65,61.28"/>
			</g>
			<g>
				<path class="st26" d="M65.65,61.28c-0.23-0.71-0.36-1.46-0.36-2.25c0-4,3.24-7.25,7.25-7.25c3.04,0,5.64,1.87,6.71,4.52l0,0
					c0.18-0.02,0.35-0.03,0.53-0.03c2.77,0,5.01,2.23,5.01,4.99c2.77,0,5.01,2.24,5.01,5.01H70.31H60.28c0-2.77,2.24-5.01,5.01-5.01
					C65.41,61.27,65.53,61.27,65.65,61.28"/>
			</g>
		</g>
		<g>
			<path class="st22" d="M101.13,60.04c-1.54,0-2.95-0.26-4.23-0.79c-1.28-0.53-2.38-1.28-3.31-2.26c-0.93-0.98-1.66-2.15-2.17-3.5
				c-0.52-1.35-0.78-2.82-0.78-4.42c0-1.54,0.27-2.97,0.82-4.29c0.55-1.32,1.31-2.47,2.28-3.47c0.97-0.99,2.11-1.76,3.4-2.31
				c1.3-0.55,2.71-0.82,4.23-0.82c1.03,0,2.04,0.15,3.01,0.46c0.97,0.3,1.86,0.72,2.68,1.26c0.58,0.39,1.1,0.82,1.55,1.3
				c0.29,0.31,0.3,0.78,0.01,1.09l-1.49,1.64c-0.29,0.32-0.8,0.35-1.12,0.06c-0.35-0.31-0.7-0.59-1.06-0.84
				c-0.56-0.37-1.14-0.66-1.73-0.85c-0.6-0.19-1.21-0.29-1.84-0.29c-0.93,0-1.81,0.17-2.63,0.52c-0.82,0.34-1.53,0.83-2.13,1.46
				c-0.6,0.63-1.07,1.37-1.41,2.23c-0.34,0.86-0.52,1.82-0.52,2.87c0,1.07,0.17,2.05,0.5,2.92c0.33,0.87,0.81,1.62,1.43,2.25
				c0.62,0.63,1.36,1.11,2.22,1.44c0.86,0.33,1.81,0.5,2.84,0.5c0.67,0,1.32-0.09,1.95-0.27c0.63-0.18,1.21-0.44,1.75-0.78
				c0.27-0.17,0.54-0.36,0.79-0.56c0.38-0.3,0.93-0.22,1.19,0.19l1.11,1.78c0.21,0.33,0.14,0.77-0.15,1.02
				c-0.41,0.36-0.89,0.7-1.46,1.01c-0.81,0.45-1.72,0.8-2.72,1.05C103.12,59.91,102.13,60.04,101.13,60.04z"/>
			<path class="st22" d="M114.48,40.31c-0.75,0-1.33-0.19-1.75-0.56c-0.42-0.37-0.62-0.91-0.62-1.6c0-0.65,0.21-1.18,0.64-1.58
				c0.43-0.41,1-0.61,1.73-0.61c0.77,0,1.36,0.19,1.78,0.56c0.42,0.38,0.62,0.92,0.62,1.63c0,0.63-0.21,1.15-0.64,1.55
				C115.82,40.11,115.23,40.31,114.48,40.31z M112.66,58.93V44.51c0-0.44,0.36-0.8,0.8-0.8h2.14c0.44,0,0.8,0.36,0.8,0.8v14.42
				c0,0.44-0.36,0.8-0.8,0.8h-2.14C113.01,59.73,112.66,59.38,112.66,58.93z"/>
			<path class="st22" d="M144.82,46.39c-0.41-0.99-1.01-1.73-1.82-2.22c-0.81-0.49-1.82-0.73-3.04-0.73c-0.55,0-1.1,0.08-1.66,0.24
				c-0.56,0.16-1.09,0.4-1.6,0.71c-0.51,0.31-0.96,0.67-1.37,1.06c-0.35,0.34-0.63,0.73-0.85,1.14c-0.2-0.56-0.46-1.05-0.78-1.46
				c-0.46-0.59-1.02-1.02-1.7-1.29c-0.68-0.27-1.45-0.41-2.33-0.41c-0.59,0-1.17,0.1-1.73,0.29c-0.57,0.19-1.1,0.46-1.61,0.79
				c-0.51,0.33-0.94,0.73-1.31,1.19c-0.08,0.1-0.16,0.21-0.23,0.31l-0.03-1.52c-0.01-0.44-0.36-0.78-0.8-0.78h-2.09
				c-0.44,0-0.8,0.36-0.8,0.8v14.42c0,0.44,0.36,0.8,0.8,0.8h2.17c0.44,0,0.8-0.36,0.8-0.8v-8.81c0-0.49,0.09-0.93,0.27-1.34
				c0.18-0.41,0.44-0.76,0.76-1.06c0.32-0.3,0.71-0.54,1.16-0.71c0.45-0.17,0.92-0.26,1.43-0.26c0.61,0,1.12,0.14,1.55,0.41
				c0.43,0.27,0.75,0.67,0.97,1.19c0.22,0.52,0.33,1.16,0.33,1.93v8.65c0,0.44,0.36,0.8,0.8,0.8h2.17c0.44,0,0.8-0.36,0.8-0.8v-8.78
				c0-0.49,0.09-0.93,0.27-1.34c0.18-0.41,0.44-0.76,0.76-1.08c0.32-0.31,0.71-0.56,1.17-0.73c0.46-0.17,0.94-0.26,1.44-0.26
				c0.65,0,1.19,0.13,1.63,0.38c0.44,0.25,0.76,0.64,0.97,1.17c0.21,0.53,0.32,1.2,0.32,2.01v8.62c0,0.44,0.36,0.8,0.8,0.8h2.17
				c0.44,0,0.8-0.36,0.8-0.8v-8.87C145.43,48.61,145.22,47.38,144.82,46.39z"/>
			<path class="st22" d="M160.99,44.51v1.46c-0.31-0.46-0.68-0.88-1.12-1.25c-0.51-0.43-1.09-0.75-1.76-0.99
				c-0.67-0.23-1.41-0.35-2.22-0.35c-1.4,0-2.66,0.35-3.77,1.06c-1.11,0.71-2,1.69-2.64,2.95c-0.65,1.26-0.97,2.69-0.97,4.29
				c0,1.6,0.32,3.03,0.97,4.29c0.65,1.26,1.51,2.25,2.58,2.98c1.07,0.73,2.27,1.09,3.59,1.09c0.77,0,1.49-0.12,2.17-0.36
				c0.68-0.24,1.3-0.56,1.85-0.96c0.51-0.36,0.94-0.77,1.29-1.23v1.45c0,0.44,0.36,0.8,0.8,0.8h2.2c0.44,0,0.8-0.36,0.8-0.8V44.51
				c0-0.44-0.36-0.8-0.8-0.8h-2.17C161.35,43.71,160.99,44.07,160.99,44.51z M158.98,56.09c-0.67,0.43-1.44,0.64-2.31,0.64
				c-0.87,0-1.64-0.21-2.3-0.64c-0.66-0.43-1.17-1.02-1.54-1.78c-0.36-0.76-0.55-1.64-0.55-2.63c0-0.97,0.18-1.83,0.55-2.58
				c0.36-0.75,0.88-1.34,1.54-1.76c0.66-0.43,1.42-0.64,2.3-0.64c0.87,0,1.64,0.21,2.31,0.64c0.67,0.43,1.19,1.01,1.57,1.76
				c0.37,0.75,0.56,1.61,0.56,2.58c0,0.99-0.19,1.87-0.56,2.63C160.17,55.07,159.65,55.66,158.98,56.09z"/>
		</g>
	</g>
</g>
<g id="Imagotipo_oscuro">
</g>
<g id="Icono_objetivo">
</g>
<g id="Icono_objetivo_conseguido">
</g>
<g id="Icon">
</g>
<g id="Letra" class="st0">
</g>
</svg>
