<?xml version="1.0" encoding="UTF-8"?>
<svg id="Logo_Proyectos" data-name="Logo Proyectos" xmlns="http://www.w3.org/2000/svg" viewBox="0 0 500 500">
  <defs>
    <style>
      .cls-1 {
        fill: #22181c;
      }

      .cls-1, .cls-2 {
        stroke-width: 0px;
      }

      .cls-2 {
        fill: #da2f43;
      }
    </style>
  </defs>
  <path class="cls-1" d="m363.1,500c-39.39,0-71.43-32.04-71.43-71.43v-225.53c-53.5,5.94-95.24,51.43-95.24,106.49v119.05c0,39.39-32.04,71.43-71.43,71.43s-71.43-32.04-71.43-71.43V130.95C53.57,58.74,112.32,0,184.52,0s130.95,58.74,130.95,130.95v47.62h47.62c6.57,0,11.9,5.33,11.9,11.9s-5.33,11.9-11.9,11.9h-47.62v226.19c0,26.26,21.36,47.62,47.62,47.62s47.62-21.36,47.62-47.62v-178.57c0-6.58,5.33-11.9,11.9-11.9s11.9,5.33,11.9,11.9v178.57c0,39.39-32.04,71.43-71.43,71.43ZM184.52,23.81c-59.08,0-107.14,48.06-107.14,107.14v297.62c0,26.26,21.36,47.62,47.62,47.62s47.62-21.36,47.62-47.62v-119.05c0-68.2,52.4-124.38,119.05-130.42v-48.16c0-59.08-48.06-107.14-107.14-107.14Z"/>
  <circle class="cls-2" cx="422.62" cy="190.48" r="23.81"/>
</svg>