<svg id="Logo_Claro" data-name="Logo Claro" xmlns="http://www.w3.org/2000/svg" viewBox="0 0 500 500"><defs><style>.cls-1{fill:#22181c;}.cls-2{fill:#1098f7;}</style></defs><path class="cls-1" d="M363.1,500a71.51,71.51,0,0,1-71.43-71.43V203a107.3,107.3,0,0,0-95.24,106.48V428.57a71.43,71.43,0,0,1-142.86,0V131C53.57,58.74,112.32,0,184.52,0s131,58.74,131,131v47.62H363.1a11.91,11.91,0,0,1,0,23.81H315.48V428.57a47.62,47.62,0,1,0,95.23,0V250a11.91,11.91,0,0,1,23.81,0V428.57A71.5,71.5,0,0,1,363.1,500ZM184.52,23.81A107.26,107.26,0,0,0,77.38,131V428.57a47.62,47.62,0,0,0,95.24,0v-119c0-68.19,52.39-124.38,119.05-130.41V131A107.27,107.27,0,0,0,184.52,23.81Z"/><circle class="cls-2" cx="422.62" cy="190.48" r="23.81"/></svg>