<svg xmlns="http://www.w3.org/2000/svg" xmlns:xlink="http://www.w3.org/1999/xlink" viewBox="0 0 125 125"><defs><style>.cls-1{opacity:0.5;}.cls-2{fill:none;}.cls-3{fill:url(#Degradado_sin_nombre_2);}.cls-4{fill:url(#Degradado_sin_nombre_4);}.cls-5{fill:url(#Degradado_sin_nombre_3);}.cls-6{fill:url(#Degradado_sin_nombre_2-4);}.cls-7{fill:url(#Degradado_sin_nombre_4-2);}.cls-8{fill:url(#Degradado_sin_nombre_3-2);}.cls-9{fill:url(#Degradado_sin_nombre_2-7);}.cls-10{fill:url(#Degradado_sin_nombre_4-3);}.cls-11{fill:url(#Degradado_sin_nombre_3-3);}.cls-12{fill:url(#Degradado_sin_nombre_2-10);}.cls-13{fill:url(#Degradado_sin_nombre_2-11);}.cls-14{fill:url(#Degradado_sin_nombre_4-4);}.cls-15{fill:url(#Degradado_sin_nombre_3-4);}.cls-16{fill:url(#Degradado_sin_nombre_2-13);}.cls-17{fill:url(#Degradado_sin_nombre_4-5);}.cls-18{fill:url(#Degradado_sin_nombre_3-5);}.cls-19{fill:url(#Degradado_sin_nombre_2-16);}.cls-20{fill:url(#Degradado_sin_nombre_4-6);}.cls-21{fill:url(#Degradado_sin_nombre_3-6);}.cls-22{fill:url(#Degradado_sin_nombre_2-19);}.cls-23{fill:url(#Degradado_sin_nombre_2-20);}.cls-24{fill:url(#Degradado_sin_nombre_4-7);}.cls-25{fill:url(#Degradado_sin_nombre_3-7);}.cls-26{fill:url(#Degradado_sin_nombre_2-22);}.cls-27{fill:url(#Degradado_sin_nombre_4-8);}.cls-28{fill:url(#Degradado_sin_nombre_3-8);}.cls-29{fill:url(#Degradado_sin_nombre_2-25);}.cls-30{fill:url(#Degradado_sin_nombre_2-26);}.cls-31{fill:url(#Degradado_sin_nombre_4-9);}.cls-32{fill:url(#Degradado_sin_nombre_3-9);}.cls-33{fill:url(#Degradado_sin_nombre_2-28);}.cls-34{fill:url(#Degradado_sin_nombre_2-29);}.cls-35{fill:url(#Degradado_sin_nombre_4-10);}.cls-36{fill:url(#Degradado_sin_nombre_3-10);}.cls-37{fill:url(#Degradado_sin_nombre_2-31);}.cls-38{fill:url(#Degradado_sin_nombre_4-11);}.cls-39{fill:url(#Degradado_sin_nombre_3-11);}.cls-40{fill:url(#Degradado_sin_nombre_2-34);}.cls-41{fill:url(#Degradado_sin_nombre_4-12);}.cls-42{fill:url(#Degradado_sin_nombre_3-12);}.cls-43{fill:url(#Degradado_sin_nombre_2-37);}.cls-44{fill:url(#Degradado_sin_nombre_4-13);}.cls-45{fill:url(#Degradado_sin_nombre_3-13);}.cls-46{fill:url(#Degradado_sin_nombre_2-40);}.cls-47{fill:url(#Degradado_sin_nombre_4-14);}.cls-48{fill:url(#Degradado_sin_nombre_3-14);}.cls-49{fill:url(#Degradado_sin_nombre_2-43);}.cls-50{fill:url(#Degradado_sin_nombre_4-15);}.cls-51{fill:url(#Degradado_sin_nombre_3-15);}.cls-52{fill:url(#Degradado_sin_nombre_2-46);}.cls-53{fill:url(#Degradado_sin_nombre_4-16);}.cls-54{fill:url(#Degradado_sin_nombre_3-16);}.cls-55{fill:url(#Degradado_sin_nombre_2-49);}.cls-56{fill:url(#Degradado_sin_nombre_4-17);}.cls-57{fill:url(#Degradado_sin_nombre_3-17);}.cls-58{fill:url(#Degradado_sin_nombre_2-52);}.cls-59{fill:url(#Degradado_sin_nombre_4-18);}.cls-60{fill:url(#Degradado_sin_nombre_3-18);}.cls-61{fill:url(#Degradado_sin_nombre_2-55);}.cls-62{fill:url(#Degradado_sin_nombre_4-19);}.cls-63{fill:url(#Degradado_sin_nombre_3-19);}.cls-64{fill:url(#Degradado_sin_nombre_2-58);}.cls-65{fill:url(#Degradado_sin_nombre_4-20);}.cls-66{fill:url(#Degradado_sin_nombre_3-20);}.cls-67{fill:url(#Degradado_sin_nombre_3-21);}.cls-68{fill:url(#Degradado_sin_nombre_2-62);}.cls-69{fill:url(#Degradado_sin_nombre_3-22);}.cls-70{fill:url(#Degradado_sin_nombre_2-65);}.cls-71{fill:url(#Degradado_sin_nombre_4-21);}.cls-72{fill:url(#Degradado_sin_nombre_3-23);}.cls-73{fill:url(#Degradado_sin_nombre_2-68);}.cls-74{fill:url(#Degradado_sin_nombre_3-24);}.cls-75{fill:url(#Degradado_sin_nombre_2-70);}.cls-76{fill:url(#Degradado_sin_nombre_3-25);}.cls-77{fill:url(#Degradado_sin_nombre_2-72);}.cls-78{fill:url(#Degradado_sin_nombre_4-22);}.cls-79{fill:url(#Degradado_sin_nombre_3-26);}.cls-80{fill:url(#Degradado_sin_nombre_2-75);}.cls-81{fill:url(#Degradado_sin_nombre_2-76);}.cls-82{fill:url(#Degradado_sin_nombre_4-23);}.cls-83{fill:url(#Degradado_sin_nombre_3-27);}.cls-84{fill:url(#Degradado_sin_nombre_2-78);}.cls-85{fill:url(#Degradado_sin_nombre_4-24);}.cls-86{fill:url(#Degradado_sin_nombre_2-80);}.cls-87{fill:url(#Degradado_sin_nombre_4-25);}.cls-88{fill:url(#Degradado_sin_nombre_3-28);}</style><radialGradient id="Degradado_sin_nombre_2" cx="5.03" cy="38.6" r="21.77" gradientUnits="userSpaceOnUse"><stop offset="0.7" stop-color="#f4f4f4" stop-opacity="0"/><stop offset="0.8" stop-color="#f3f3f3" stop-opacity="0.01"/><stop offset="0.86" stop-color="#efefef" stop-opacity="0.05"/><stop offset="0.9" stop-color="#e9e9e9" stop-opacity="0.12"/><stop offset="0.94" stop-color="#e0e0e0" stop-opacity="0.22"/><stop offset="0.97" stop-color="#d5d5d5" stop-opacity="0.34"/><stop offset="1" stop-color="#c7c7c7" stop-opacity="0.49"/><stop offset="1" stop-color="#c6c6c6" stop-opacity="0.5"/></radialGradient><linearGradient id="Degradado_sin_nombre_4" x1="10.31" y1="83.31" x2="10.31" y2="63.19" gradientTransform="translate(0 -12.29) scale(1 0.5)" gradientUnits="userSpaceOnUse"><stop offset="0.3" stop-color="#f4f4f4" stop-opacity="0"/><stop offset="0.42" stop-color="#f4f4f4" stop-opacity="0.02"/><stop offset="0.55" stop-color="#f4f4f4" stop-opacity="0.07"/><stop offset="0.68" stop-color="#f4f4f4" stop-opacity="0.15"/><stop offset="0.81" stop-color="#f4f4f4" stop-opacity="0.27"/><stop offset="0.94" stop-color="#f4f4f4" stop-opacity="0.42"/><stop offset="1" stop-color="#f4f4f4" stop-opacity="0.5"/></linearGradient><linearGradient id="Degradado_sin_nombre_3" x1="-1465.31" y1="248.15" x2="-1465.31" y2="228.03" gradientTransform="translate(-1455 172.17) rotate(180) scale(1 0.5)" gradientUnits="userSpaceOnUse"><stop offset="0.3" stop-color="#f4f4f4" stop-opacity="0"/><stop offset="0.44" stop-color="#f2f2f2" stop-opacity="0.02"/><stop offset="0.58" stop-color="#ececec" stop-opacity="0.08"/><stop offset="0.72" stop-color="#e3e3e3" stop-opacity="0.19"/><stop offset="0.87" stop-color="#d5d5d5" stop-opacity="0.33"/><stop offset="1" stop-color="#c6c6c6" stop-opacity="0.5"/></linearGradient><radialGradient id="Degradado_sin_nombre_2-4" cx="85.59" cy="31.82" r="15.58" xlink:href="#Degradado_sin_nombre_2"/><linearGradient id="Degradado_sin_nombre_4-2" x1="85.59" y1="75" x2="85.59" y2="60.6" xlink:href="#Degradado_sin_nombre_4"/><linearGradient id="Degradado_sin_nombre_3-2" x1="-1540.59" y1="267.1" x2="-1540.59" y2="252.7" xlink:href="#Degradado_sin_nombre_3"/><radialGradient id="Degradado_sin_nombre_2-7" cx="38.89" cy="48.08" r="7.76" xlink:href="#Degradado_sin_nombre_2"/><linearGradient id="Degradado_sin_nombre_4-3" x1="38.89" y1="114.17" x2="38.89" y2="107" xlink:href="#Degradado_sin_nombre_4"/><linearGradient id="Degradado_sin_nombre_3-3" x1="-1493.89" y1="241.4" x2="-1493.89" y2="234.23" xlink:href="#Degradado_sin_nombre_3"/><radialGradient id="Degradado_sin_nombre_2-10" cx="50.87" cy="23.24" r="10.7" xlink:href="#Degradado_sin_nombre_2"/><radialGradient id="Degradado_sin_nombre_2-11" cx="50.87" cy="23.24" r="10.7" xlink:href="#Degradado_sin_nombre_2"/><linearGradient id="Degradado_sin_nombre_4-4" x1="50.87" y1="61.98" x2="50.87" y2="52.09" xlink:href="#Degradado_sin_nombre_4"/><linearGradient id="Degradado_sin_nombre_3-4" x1="-1505.87" y1="288.52" x2="-1505.87" y2="278.63" xlink:href="#Degradado_sin_nombre_3"/><radialGradient id="Degradado_sin_nombre_2-13" cx="102.66" cy="85.88" r="8.59" xlink:href="#Degradado_sin_nombre_2"/><linearGradient id="Degradado_sin_nombre_4-5" x1="102.66" y1="189.05" x2="102.66" y2="181.11" xlink:href="#Degradado_sin_nombre_4"/><linearGradient id="Degradado_sin_nombre_3-5" x1="-1557.66" y1="165.09" x2="-1557.66" y2="157.16" xlink:href="#Degradado_sin_nombre_3"/><radialGradient id="Degradado_sin_nombre_2-16" cx="122.93" cy="70.42" r="5.36" xlink:href="#Degradado_sin_nombre_2"/><linearGradient id="Degradado_sin_nombre_4-6" x1="122.04" y1="160.88" x2="122.04" y2="155.92" xlink:href="#Degradado_sin_nombre_4"/><linearGradient id="Degradado_sin_nombre_3-6" x1="-1577.04" y1="198.81" x2="-1577.04" y2="193.86" xlink:href="#Degradado_sin_nombre_3"/><radialGradient id="Degradado_sin_nombre_2-19" cx="62.37" cy="46.7" r="4.64" xlink:href="#Degradado_sin_nombre_2"/><radialGradient id="Degradado_sin_nombre_2-20" cx="62.37" cy="46.7" r="4.64" xlink:href="#Degradado_sin_nombre_2"/><linearGradient id="Degradado_sin_nombre_4-7" x1="62.37" y1="114.03" x2="62.37" y2="109.74" xlink:href="#Degradado_sin_nombre_4"/><linearGradient id="Degradado_sin_nombre_3-7" x1="-1517.37" y1="246.89" x2="-1517.37" y2="242.6" xlink:href="#Degradado_sin_nombre_3"/><radialGradient id="Degradado_sin_nombre_2-22" cx="27.94" cy="5" r="8.14" xlink:href="#Degradado_sin_nombre_2"/><linearGradient id="Degradado_sin_nombre_4-8" x1="27.94" y1="27.68" x2="27.94" y2="20.16" xlink:href="#Degradado_sin_nombre_4"/><linearGradient id="Degradado_sin_nombre_3-8" x1="-1482.94" y1="327.23" x2="-1482.94" y2="319.71" xlink:href="#Degradado_sin_nombre_3"/><radialGradient id="Degradado_sin_nombre_2-25" cx="99.13" cy="60.69" r="4.6" xlink:href="#Degradado_sin_nombre_2"/><radialGradient id="Degradado_sin_nombre_2-26" cx="99.13" cy="60.69" r="4.6" xlink:href="#Degradado_sin_nombre_2"/><linearGradient id="Degradado_sin_nombre_4-9" x1="99.13" y1="142.07" x2="99.13" y2="137.82" xlink:href="#Degradado_sin_nombre_4"/><linearGradient id="Degradado_sin_nombre_3-9" x1="-1554.13" y1="218.93" x2="-1554.13" y2="214.69" xlink:href="#Degradado_sin_nombre_3"/><radialGradient id="Degradado_sin_nombre_2-28" cx="0" cy="87.15" r="4.6" xlink:href="#Degradado_sin_nombre_2"/><radialGradient id="Degradado_sin_nombre_2-29" cx="0" cy="87.15" r="4.6" xlink:href="#Degradado_sin_nombre_2"/><linearGradient id="Degradado_sin_nombre_4-10" x1="1.65" y1="194.98" x2="1.65" y2="190.73" xlink:href="#Degradado_sin_nombre_4"/><linearGradient id="Degradado_sin_nombre_3-10" x1="-1456.65" y1="166.02" x2="-1456.65" y2="161.78" xlink:href="#Degradado_sin_nombre_3"/><radialGradient id="Degradado_sin_nombre_2-31" cx="34.85" cy="110.24" r="8.67" xlink:href="#Degradado_sin_nombre_2"/><linearGradient id="Degradado_sin_nombre_4-11" x1="34.85" y1="237.7" x2="34.85" y2="229.69" xlink:href="#Degradado_sin_nombre_4"/><linearGradient id="Degradado_sin_nombre_3-11" x1="-1489.85" y1="116.3" x2="-1489.85" y2="108.29" xlink:href="#Degradado_sin_nombre_3"/><radialGradient id="Degradado_sin_nombre_2-34" cx="13.3" cy="91.25" r="2.46" xlink:href="#Degradado_sin_nombre_2"/><linearGradient id="Degradado_sin_nombre_4-12" x1="13.3" y1="204.99" x2="13.3" y2="202.72" xlink:href="#Degradado_sin_nombre_4"/><linearGradient id="Degradado_sin_nombre_3-12" x1="-1468.3" y1="159.7" x2="-1468.3" y2="157.43" xlink:href="#Degradado_sin_nombre_3"/><radialGradient id="Degradado_sin_nombre_2-37" cx="20.16" cy="103.93" r="3.48" xlink:href="#Degradado_sin_nombre_2"/><linearGradient id="Degradado_sin_nombre_4-13" x1="20.16" y1="229.48" x2="20.16" y2="226.27" xlink:href="#Degradado_sin_nombre_4"/><linearGradient id="Degradado_sin_nombre_3-13" x1="-1475.16" y1="133.45" x2="-1475.16" y2="130.24" xlink:href="#Degradado_sin_nombre_3"/><radialGradient id="Degradado_sin_nombre_2-40" cx="73.81" cy="68.04" r="13.04" xlink:href="#Degradado_sin_nombre_2"/><linearGradient id="Degradado_sin_nombre_4-14" x1="73.81" y1="149.59" x2="73.81" y2="137.55" xlink:href="#Degradado_sin_nombre_4"/><linearGradient id="Degradado_sin_nombre_3-14" x1="-1528.81" y1="196.89" x2="-1528.81" y2="184.85" xlink:href="#Degradado_sin_nombre_3"/><radialGradient id="Degradado_sin_nombre_2-43" cx="104.01" cy="15" r="5.71" xlink:href="#Degradado_sin_nombre_2"/><linearGradient id="Degradado_sin_nombre_4-15" x1="104.01" y1="49.74" x2="104.01" y2="44.47" xlink:href="#Degradado_sin_nombre_4"/><linearGradient id="Degradado_sin_nombre_3-15" x1="-1559.01" y1="309.36" x2="-1559.01" y2="304.09" xlink:href="#Degradado_sin_nombre_3"/><radialGradient id="Degradado_sin_nombre_2-46" cx="62.41" cy="86.58" r="3.19" xlink:href="#Degradado_sin_nombre_2"/><linearGradient id="Degradado_sin_nombre_4-16" x1="62.41" y1="195.05" x2="62.41" y2="192.1" xlink:href="#Degradado_sin_nombre_4"/><linearGradient id="Degradado_sin_nombre_3-16" x1="-1517.41" y1="168.39" x2="-1517.41" y2="165.44" xlink:href="#Degradado_sin_nombre_3"/><radialGradient id="Degradado_sin_nombre_2-49" cx="13.3" cy="66.66" r="3.19" xlink:href="#Degradado_sin_nombre_2"/><linearGradient id="Degradado_sin_nombre_4-17" x1="13.3" y1="155.19" x2="13.3" y2="152.25" xlink:href="#Degradado_sin_nombre_4"/><linearGradient id="Degradado_sin_nombre_3-17" x1="-1468.3" y1="208.24" x2="-1468.3" y2="205.29" xlink:href="#Degradado_sin_nombre_3"/><radialGradient id="Degradado_sin_nombre_2-52" cx="34.85" cy="80.57" r="17.99" xlink:href="#Degradado_sin_nombre_2"/><linearGradient id="Degradado_sin_nombre_4-18" x1="34.85" y1="170.44" x2="34.85" y2="153.83" xlink:href="#Degradado_sin_nombre_4"/><linearGradient id="Degradado_sin_nombre_3-18" x1="-1489.85" y1="167.52" x2="-1489.85" y2="150.9" xlink:href="#Degradado_sin_nombre_3"/><radialGradient id="Degradado_sin_nombre_2-55" cx="-3" cy="117.03" r="17.99" xlink:href="#Degradado_sin_nombre_2"/><linearGradient id="Degradado_sin_nombre_4-19" x1="4.94" y1="243.36" x2="4.94" y2="226.75" xlink:href="#Degradado_sin_nombre_4"/><linearGradient id="Degradado_sin_nombre_3-19" x1="-1459.94" y1="94.6" x2="-1459.94" y2="77.98" xlink:href="#Degradado_sin_nombre_3"/><radialGradient id="Degradado_sin_nombre_2-58" cx="72.02" cy="117.48" r="22.52" xlink:href="#Degradado_sin_nombre_2"/><linearGradient id="Degradado_sin_nombre_4-20" x1="72.02" y1="240.42" x2="72.02" y2="219.61" xlink:href="#Degradado_sin_nombre_4"/><linearGradient id="Degradado_sin_nombre_3-20" x1="-1540.28" y1="89.74" x2="-1540.28" y2="68.94" xlink:href="#Degradado_sin_nombre_3"/><linearGradient id="Degradado_sin_nombre_3-21" x1="-1513.77" y1="89.74" x2="-1513.77" y2="68.94" xlink:href="#Degradado_sin_nombre_3"/><radialGradient id="Degradado_sin_nombre_2-62" cx="72.02" cy="-7.52" r="22.52" xlink:href="#Degradado_sin_nombre_2"/><linearGradient id="Degradado_sin_nombre_3-22" x1="-1527.02" y1="339.74" x2="-1527.02" y2="318.94" xlink:href="#Degradado_sin_nombre_3"/><radialGradient id="Degradado_sin_nombre_2-65" cx="130.03" cy="38.6" r="21.77" xlink:href="#Degradado_sin_nombre_2"/><linearGradient id="Degradado_sin_nombre_4-21" x1="119.72" y1="83.31" x2="119.72" y2="63.19" xlink:href="#Degradado_sin_nombre_4"/><linearGradient id="Degradado_sin_nombre_3-23" x1="-1574.72" y1="248.15" x2="-1574.72" y2="228.03" xlink:href="#Degradado_sin_nombre_3"/><radialGradient id="Degradado_sin_nombre_2-68" cx="-3" cy="-7.97" r="17.99" xlink:href="#Degradado_sin_nombre_2"/><linearGradient id="Degradado_sin_nombre_3-24" x1="-1459.93" y1="344.6" x2="-1459.93" y2="327.98" xlink:href="#Degradado_sin_nombre_3"/><radialGradient id="Degradado_sin_nombre_2-70" cx="122" cy="-7.97" r="17.99" xlink:href="#Degradado_sin_nombre_2"/><linearGradient id="Degradado_sin_nombre_3-25" x1="-1572.06" y1="344.6" x2="-1572.06" y2="327.98" xlink:href="#Degradado_sin_nombre_3"/><radialGradient id="Degradado_sin_nombre_2-72" cx="122" cy="117.03" r="17.99" xlink:href="#Degradado_sin_nombre_2"/><linearGradient id="Degradado_sin_nombre_4-22" x1="117.06" y1="243.36" x2="117.06" y2="226.75" xlink:href="#Degradado_sin_nombre_4"/><linearGradient id="Degradado_sin_nombre_3-26" x1="-1572.06" y1="94.6" x2="-1572.06" y2="77.98" xlink:href="#Degradado_sin_nombre_3"/><radialGradient id="Degradado_sin_nombre_2-75" cx="125" cy="87.15" r="4.6" xlink:href="#Degradado_sin_nombre_2"/><radialGradient id="Degradado_sin_nombre_2-76" cx="125" cy="87.15" r="4.6" xlink:href="#Degradado_sin_nombre_2"/><linearGradient id="Degradado_sin_nombre_4-23" x1="123.35" y1="194.98" x2="123.35" y2="190.73" xlink:href="#Degradado_sin_nombre_4"/><linearGradient id="Degradado_sin_nombre_3-27" x1="-1578.35" y1="166.02" x2="-1578.35" y2="161.78" xlink:href="#Degradado_sin_nombre_3"/><radialGradient id="Degradado_sin_nombre_2-78" cx="27.94" cy="130" r="8.14" xlink:href="#Degradado_sin_nombre_2"/><linearGradient id="Degradado_sin_nombre_4-24" x1="27.94" y1="277.68" x2="27.94" y2="270.16" xlink:href="#Degradado_sin_nombre_4"/><radialGradient id="Degradado_sin_nombre_2-80" cx="-2.07" cy="70.42" r="5.36" xlink:href="#Degradado_sin_nombre_2"/><linearGradient id="Degradado_sin_nombre_4-25" x1="0.88" y1="160.88" x2="0.88" y2="155.92" xlink:href="#Degradado_sin_nombre_4"/><linearGradient id="Degradado_sin_nombre_3-28" x1="-1455.88" y1="198.81" x2="-1455.88" y2="193.86" xlink:href="#Degradado_sin_nombre_3"/></defs><g id="Capa_4" data-name="Capa 4"><g class="cls-1"><path class="cls-2" d="M104,117a18,18,0,0,1,18-18,18.59,18.59,0,0,1,3,.25V91.75a4.6,4.6,0,1,1,0-9.2V75.37a5.32,5.32,0,0,1-2.07.42,5.37,5.37,0,1,1,0-10.73,5.5,5.5,0,0,1,2.07.41V59.79a21.77,21.77,0,0,1,0-42.37V9.76a18.59,18.59,0,0,1-3,.25A18,18,0,0,1,105.87,0H93.25A22.52,22.52,0,0,1,72,15,22.52,22.52,0,0,1,50.79,0H34.36A8.14,8.14,0,1,1,21.52,0h-8.4A18,18,0,0,1,0,9.76v7.66a21.38,21.38,0,0,1,5-.59,21.77,21.77,0,1,1-5,43v5.68a5.38,5.38,0,0,1,3.29,5,5.37,5.37,0,0,1-3.29,5v7.18a4.6,4.6,0,0,1,4.6,4.6A4.6,4.6,0,0,1,0,91.75v7.54A18,18,0,0,1,15,117a17.9,17.9,0,0,1-1.86,8h8.4a8.13,8.13,0,0,1,12.84,0H50.79a22.29,22.29,0,0,1-1.29-7.52,22.52,22.52,0,1,1,45,0A22.29,22.29,0,0,1,93.25,125h12.62A17.9,17.9,0,0,1,104,117ZM104,9.29A5.71,5.71,0,1,1,98.3,15,5.71,5.71,0,0,1,104,9.29Zm-.28,51.4a4.6,4.6,0,1,1-4.6-4.59A4.6,4.6,0,0,1,103.73,60.69ZM38.89,40.33a7.76,7.76,0,1,1-7.75,7.75A7.75,7.75,0,0,1,38.89,40.33ZM13.3,93.7a2.46,2.46,0,1,1,2.46-2.45A2.46,2.46,0,0,1,13.3,93.7Zm0-23.85a3.19,3.19,0,1,1,3.19-3.19A3.19,3.19,0,0,1,13.3,69.85Zm6.86,37.55a3.48,3.48,0,1,1,3.48-3.47A3.47,3.47,0,0,1,20.16,107.4Zm14.69,11.51a8.67,8.67,0,1,1,8.67-8.67A8.67,8.67,0,0,1,34.85,118.91Zm0-20.36a18,18,0,1,1,18-18A18,18,0,0,1,34.85,98.55Zm16-64.61a10.7,10.7,0,1,1,10.7-10.7A10.7,10.7,0,0,1,50.87,33.94ZM57.72,46.7a4.65,4.65,0,1,1,4.65,4.64A4.65,4.65,0,0,1,57.72,46.7Zm4.69,43.07a3.19,3.19,0,1,1,3.19-3.19A3.19,3.19,0,0,1,62.41,89.77Zm11.4-8.69a13,13,0,1,1,13-13A13,13,0,0,1,73.81,81.08ZM85.59,47.41a15.59,15.59,0,1,1,15.59-15.59A15.58,15.58,0,0,1,85.59,47.41Zm8.49,38.47a8.59,8.59,0,1,1,8.58,8.59A8.58,8.58,0,0,1,94.08,85.88Z"/><path class="cls-3" d="M26.8,38.6A21.77,21.77,0,0,0,5,16.83a21.38,21.38,0,0,0-5,.59v1.7a21.53,21.53,0,0,1,5-.58c8.6,0,15.58,4.87,15.58,10.88s-7,0-15.58,0A23.25,23.25,0,0,0,0,30V47.43A23.25,23.25,0,0,0,5,48c8.6,0,15.58-6,15.58,0S13.63,58.92,5,58.92a22.08,22.08,0,0,1-5-.58v1.45A21.8,21.8,0,0,0,26.8,38.6Z"/><path class="cls-3" d="M20.61,29.42c0-6-7-10.88-15.58-10.88a21.53,21.53,0,0,0-5,.58V30a23.25,23.25,0,0,1,5-.6C13.63,29.42,20.61,35.43,20.61,29.42Z"/><path class="cls-4" d="M20.61,29.42c0-6-7-10.88-15.58-10.88a21.53,21.53,0,0,0-5,.58V30a23.25,23.25,0,0,1,5-.6C13.63,29.42,20.61,35.43,20.61,29.42Z"/><path class="cls-3" d="M20.61,48c0-6-7,0-15.58,0a23.25,23.25,0,0,1-5-.6V58.34a22.08,22.08,0,0,0,5,.58C13.63,58.92,20.61,54,20.61,48Z"/><path class="cls-5" d="M20.61,48c0-6-7,0-15.58,0a23.25,23.25,0,0,1-5-.6V58.34a22.08,22.08,0,0,0,5,.58C13.63,58.92,20.61,54,20.61,48Z"/><path class="cls-6" d="M101.18,31.82A15.59,15.59,0,1,0,85.59,47.41,15.59,15.59,0,0,0,101.18,31.82ZM85.59,17.46c6.16,0,11.16,3.49,11.16,7.79s-5,0-11.16,0-11.16,4.3-11.16,0S79.43,17.46,85.59,17.46Zm0,28.91c-6.16,0-11.16-3.49-11.16-7.8s5,0,11.16,0,11.16-4.3,11.16,0S91.75,46.37,85.59,46.37Z"/><path class="cls-6" d="M85.59,25.25c6.16,0,11.16,4.3,11.16,0s-5-7.79-11.16-7.79S74.43,21,74.43,25.25,79.43,25.25,85.59,25.25Z"/><path class="cls-7" d="M85.59,25.25c6.16,0,11.16,4.3,11.16,0s-5-7.79-11.16-7.79S74.43,21,74.43,25.25,79.43,25.25,85.59,25.25Z"/><path class="cls-6" d="M85.59,38.57c-6.16,0-11.16-4.3-11.16,0s5,7.8,11.16,7.8,11.16-3.49,11.16-7.8S91.75,38.57,85.59,38.57Z"/><path class="cls-8" d="M85.59,38.57c-6.16,0-11.16-4.3-11.16,0s5,7.8,11.16,7.8,11.16-3.49,11.16-7.8S91.75,38.57,85.59,38.57Z"/><path class="cls-9" d="M38.89,55.84a7.76,7.76,0,1,0-7.75-7.76A7.75,7.75,0,0,0,38.89,55.84Zm0-14.91c3.07,0,5.56,1.74,5.56,3.88s-2.49,0-5.56,0-5.55,2.15-5.55,0S35.83,40.93,38.89,40.93Zm0,10.51c3.07,0,5.56-2.14,5.56,0S42,55.32,38.89,55.32s-5.55-1.73-5.55-3.88S35.83,51.44,38.89,51.44Z"/><path class="cls-9" d="M38.89,44.81c3.07,0,5.56,2.15,5.56,0S42,40.93,38.89,40.93s-5.55,1.74-5.55,3.88S35.83,44.81,38.89,44.81Z"/><path class="cls-10" d="M38.89,44.81c3.07,0,5.56,2.15,5.56,0S42,40.93,38.89,40.93s-5.55,1.74-5.55,3.88S35.83,44.81,38.89,44.81Z"/><path class="cls-9" d="M38.89,55.32c3.07,0,5.56-1.73,5.56-3.88s-2.49,0-5.56,0-5.55-2.14-5.55,0S35.83,55.32,38.89,55.32Z"/><path class="cls-11" d="M38.89,55.32c3.07,0,5.56-1.73,5.56-3.88s-2.49,0-5.56,0-5.55-2.14-5.55,0S35.83,55.32,38.89,55.32Z"/><path class="cls-12" d="M61.57,23.24a10.71,10.71,0,1,0-10.7,10.7A10.7,10.7,0,0,0,61.57,23.24Zm-10.7-9.87c4.23,0,7.66,2.4,7.66,5.36s-3.43,0-7.66,0-7.67,2.95-7.67,0S46.63,13.37,50.87,13.37Zm0,19.86c-4.24,0-7.67-2.4-7.67-5.35s3.43,0,7.67,0,7.66-3,7.66,0S55.1,33.23,50.87,33.23Z"/><path class="cls-13" d="M50.87,18.73c4.23,0,7.66,2.95,7.66,0s-3.43-5.36-7.66-5.36-7.67,2.4-7.67,5.36S46.63,18.73,50.87,18.73Z"/><path class="cls-14" d="M50.87,18.73c4.23,0,7.66,2.95,7.66,0s-3.43-5.36-7.66-5.36-7.67,2.4-7.67,5.36S46.63,18.73,50.87,18.73Z"/><path class="cls-13" d="M50.87,27.88c-4.24,0-7.67-3-7.67,0s3.43,5.35,7.67,5.35,7.66-2.4,7.66-5.35S55.1,27.88,50.87,27.88Z"/><path class="cls-15" d="M50.87,27.88c-4.24,0-7.67-3-7.67,0s3.43,5.35,7.67,5.35,7.66-2.4,7.66-5.35S55.1,27.88,50.87,27.88Z"/><path class="cls-16" d="M111.25,85.88a8.59,8.59,0,1,0-8.59,8.59A8.58,8.58,0,0,0,111.25,85.88ZM102.66,78c3.4,0,6.15,1.92,6.15,4.3s-2.75,0-6.15,0-6.14,2.37-6.14,0S99.27,78,102.66,78Zm0,15.93c-3.39,0-6.14-1.92-6.14-4.29s2.75,0,6.14,0,6.15-2.37,6.15,0S106.06,93.89,102.66,93.89Z"/><path class="cls-16" d="M102.66,82.26c3.4,0,6.15,2.37,6.15,0s-2.75-4.3-6.15-4.3-6.14,1.92-6.14,4.3S99.27,82.26,102.66,82.26Z"/><path class="cls-17" d="M102.66,82.26c3.4,0,6.15,2.37,6.15,0s-2.75-4.3-6.15-4.3-6.14,1.92-6.14,4.3S99.27,82.26,102.66,82.26Z"/><path class="cls-16" d="M102.66,89.6c-3.39,0-6.14-2.37-6.14,0s2.75,4.29,6.14,4.29,6.15-1.92,6.15-4.29S106.06,89.6,102.66,89.6Z"/><path class="cls-18" d="M102.66,89.6c-3.39,0-6.14-2.37-6.14,0s2.75,4.29,6.14,4.29,6.15-1.92,6.15-4.29S106.06,89.6,102.66,89.6Z"/><path class="cls-19" d="M117.56,70.42a5.38,5.38,0,0,0,5.37,5.37,5.32,5.32,0,0,0,2.07-.42V75a5.07,5.07,0,0,1-2.07.43c-2.12,0-3.84-1.2-3.84-2.68s1.72,0,3.84,0a7.56,7.56,0,0,0,2.07-.37V68.53a7.2,7.2,0,0,0-2.07-.37c-2.12,0-3.84,1.48-3.84,0s1.72-2.68,3.84-2.68a5.24,5.24,0,0,1,2.07.42v-.43a5.5,5.5,0,0,0-2.07-.41A5.37,5.37,0,0,0,117.56,70.42Z"/><path class="cls-19" d="M119.09,68.16c0,1.48,1.72,0,3.84,0a7.2,7.2,0,0,1,2.07.37V65.9a5.24,5.24,0,0,0-2.07-.42C120.81,65.48,119.09,66.68,119.09,68.16Z"/><path class="cls-20" d="M119.09,68.16c0,1.48,1.72,0,3.84,0a7.2,7.2,0,0,1,2.07.37V65.9a5.24,5.24,0,0,0-2.07-.42C120.81,65.48,119.09,66.68,119.09,68.16Z"/><path class="cls-19" d="M119.09,72.75c0,1.48,1.72,2.68,3.84,2.68A5.07,5.07,0,0,0,125,75V72.38a7.56,7.56,0,0,1-2.07.37C120.81,72.75,119.09,71.26,119.09,72.75Z"/><path class="cls-21" d="M119.09,72.75c0,1.48,1.72,2.68,3.84,2.68A5.07,5.07,0,0,0,125,75V72.38a7.56,7.56,0,0,1-2.07.37C120.81,72.75,119.09,71.26,119.09,72.75Z"/><path class="cls-22" d="M67,46.7a4.65,4.65,0,1,0-4.64,4.64A4.65,4.65,0,0,0,67,46.7Zm-4.64-4.28c1.83,0,3.32,1,3.32,2.32s-1.49,0-3.32,0S59,46,59,44.74,60.53,42.42,62.37,42.42ZM59,48.71c0-1.29,1.49,0,3.33,0s3.32-1.29,3.32,0S64.2,51,62.37,51,59,50,59,48.71Z"/><path class="cls-23" d="M62.37,44.74c1.83,0,3.32,1.28,3.32,0s-1.49-2.32-3.32-2.32S59,43.46,59,44.74,60.53,44.74,62.37,44.74Z"/><path class="cls-24" d="M62.37,44.74c1.83,0,3.32,1.28,3.32,0s-1.49-2.32-3.32-2.32S59,43.46,59,44.74,60.53,44.74,62.37,44.74Z"/><path class="cls-23" d="M65.69,48.71c0-1.29-1.49,0-3.32,0S59,47.42,59,48.71,60.53,51,62.37,51,65.69,50,65.69,48.71Z"/><path class="cls-25" d="M65.69,48.71c0-1.29-1.49,0-3.32,0S59,47.42,59,48.71,60.53,51,62.37,51,65.69,50,65.69,48.71Z"/><path class="cls-26" d="M27.94,13.14A8.14,8.14,0,0,0,34.36,0h-1a3,3,0,0,1,.45,1.57c0,2.25-2.61,0-5.83,0s-5.82,2.25-5.82,0A3,3,0,0,1,22.57,0H21.52a8.14,8.14,0,0,0,6.42,13.14Zm0-4.61c3.22,0,5.83-2.25,5.83,0s-2.61,4.07-5.83,4.07-5.82-1.82-5.82-4.07S24.73,8.53,27.94,8.53Z"/><path class="cls-26" d="M27.94,1.57c3.22,0,5.83,2.25,5.83,0A3,3,0,0,0,33.32,0H22.57a3,3,0,0,0-.45,1.57C22.12,3.82,24.73,1.57,27.94,1.57Z"/><path class="cls-27" d="M27.94,1.57c3.22,0,5.83,2.25,5.83,0A3,3,0,0,0,33.32,0H22.57a3,3,0,0,0-.45,1.57C22.12,3.82,24.73,1.57,27.94,1.57Z"/><path class="cls-26" d="M27.94,12.6c3.22,0,5.83-1.82,5.83-4.07s-2.61,0-5.83,0-5.82-2.25-5.82,0S24.73,12.6,27.94,12.6Z"/><path class="cls-28" d="M27.94,12.6c3.22,0,5.83-1.82,5.83-4.07s-2.61,0-5.83,0-5.82-2.25-5.82,0S24.73,12.6,27.94,12.6Z"/><path class="cls-29" d="M94.53,60.69a4.6,4.6,0,1,0,4.6-4.59A4.6,4.6,0,0,0,94.53,60.69Zm4.6,4.3c-1.82,0-3.29-1-3.29-2.3s1.47,0,3.29,0,3.29-1.27,3.29,0S101,65,99.13,65Zm3.29-6.23c0,1.27-1.47,0-3.29,0s-3.29,1.27-3.29,0,1.47-2.3,3.29-2.3S102.42,57.49,102.42,58.76Z"/><path class="cls-30" d="M95.84,58.76c0,1.27,1.47,0,3.29,0s3.29,1.27,3.29,0-1.47-2.3-3.29-2.3S95.84,57.49,95.84,58.76Z"/><path class="cls-31" d="M95.84,58.76c0,1.27,1.47,0,3.29,0s3.29,1.27,3.29,0-1.47-2.3-3.29-2.3S95.84,57.49,95.84,58.76Z"/><path class="cls-30" d="M99.13,62.69c-1.82,0-3.29-1.27-3.29,0S97.31,65,99.13,65s3.29-1,3.29-2.3S101,62.69,99.13,62.69Z"/><path class="cls-32" d="M99.13,62.69c-1.82,0-3.29-1.27-3.29,0S97.31,65,99.13,65s3.29-1,3.29-2.3S101,62.69,99.13,62.69Z"/><path class="cls-33" d="M4.6,87.15A4.6,4.6,0,0,0,0,82.55v.36c1.82,0,3.29,1,3.29,2.3s-1.47,0-3.29,0v3.93c1.82,0,3.29-1.27,3.29,0S1.82,91.44,0,91.44v.31A4.6,4.6,0,0,0,4.6,87.15Z"/><path class="cls-34" d="M3.29,85.21c0-1.27-1.47-2.3-3.29-2.3v2.3C1.82,85.21,3.29,86.48,3.29,85.21Z"/><path class="cls-35" d="M3.29,85.21c0-1.27-1.47-2.3-3.29-2.3v2.3C1.82,85.21,3.29,86.48,3.29,85.21Z"/><path class="cls-34" d="M3.29,89.14c0-1.27-1.47,0-3.29,0v2.3C1.82,91.44,3.29,90.41,3.29,89.14Z"/><path class="cls-36" d="M3.29,89.14c0-1.27-1.47,0-3.29,0v2.3C1.82,91.44,3.29,90.41,3.29,89.14Z"/><path class="cls-37" d="M34.85,101.57a8.67,8.67,0,1,0,8.67,8.67A8.67,8.67,0,0,0,34.85,101.57Zm0,16.76c-3.43,0-6.21-1.94-6.21-4.34s2.78,0,6.21,0,6.21-2.39,6.21,0S38.28,118.33,34.85,118.33Zm0-11.75c-3.43,0-6.21,2.4-6.21,0s2.78-4.33,6.21-4.33,6.21,1.94,6.21,4.33S38.28,106.58,34.85,106.58Z"/><path class="cls-37" d="M34.85,102.25c-3.43,0-6.21,1.94-6.21,4.33s2.78,0,6.21,0,6.21,2.4,6.21,0S38.28,102.25,34.85,102.25Z"/><path class="cls-38" d="M34.85,102.25c-3.43,0-6.21,1.94-6.21,4.33s2.78,0,6.21,0,6.21,2.4,6.21,0S38.28,102.25,34.85,102.25Z"/><path class="cls-37" d="M34.85,114c-3.43,0-6.21-2.39-6.21,0s2.78,4.34,6.21,4.34,6.21-1.94,6.21-4.34S38.28,114,34.85,114Z"/><path class="cls-39" d="M34.85,114c-3.43,0-6.21-2.39-6.21,0s2.78,4.34,6.21,4.34,6.21-1.94,6.21-4.34S38.28,114,34.85,114Z"/><path class="cls-40" d="M13.3,88.79a2.46,2.46,0,1,0,2.46,2.46A2.46,2.46,0,0,0,13.3,88.79Zm0,4.75c-1,0-1.76-.55-1.76-1.23s.79,0,1.76,0,1.76-.68,1.76,0S14.27,93.54,13.3,93.54Zm0-3.33c-1,0-1.76.68-1.76,0S12.33,89,13.3,89s1.76.55,1.76,1.23S14.27,90.21,13.3,90.21Z"/><path class="cls-40" d="M13.3,89c-1,0-1.76.55-1.76,1.23s.79,0,1.76,0,1.76.68,1.76,0S14.27,89,13.3,89Z"/><path class="cls-41" d="M13.3,89c-1,0-1.76.55-1.76,1.23s.79,0,1.76,0,1.76.68,1.76,0S14.27,89,13.3,89Z"/><path class="cls-40" d="M13.3,92.31c-1,0-1.76-.68-1.76,0s.79,1.23,1.76,1.23,1.76-.55,1.76-1.23S14.27,92.31,13.3,92.31Z"/><path class="cls-42" d="M13.3,92.31c-1,0-1.76-.68-1.76,0s.79,1.23,1.76,1.23,1.76-.55,1.76-1.23S14.27,92.31,13.3,92.31Z"/><path class="cls-43" d="M20.16,100.45a3.48,3.48,0,1,0,3.48,3.48A3.47,3.47,0,0,0,20.16,100.45Zm0,6.72c-1.37,0-2.49-.78-2.49-1.74s1.12,0,2.49,0,2.5-1,2.5,0S21.54,107.17,20.16,107.17Zm0-4.71c-1.37,0-2.49,1-2.49,0s1.12-1.74,2.49-1.74,2.5.78,2.5,1.74S21.54,102.46,20.16,102.46Z"/><path class="cls-43" d="M20.16,100.72c-1.37,0-2.49.78-2.49,1.74s1.12,0,2.49,0,2.5,1,2.5,0S21.54,100.72,20.16,100.72Z"/><path class="cls-44" d="M20.16,100.72c-1.37,0-2.49.78-2.49,1.74s1.12,0,2.49,0,2.5,1,2.5,0S21.54,100.72,20.16,100.72Z"/><path class="cls-43" d="M20.16,105.43c-1.37,0-2.49-1-2.49,0s1.12,1.74,2.49,1.74,2.5-.78,2.5-1.74S21.54,105.43,20.16,105.43Z"/><path class="cls-45" d="M20.16,105.43c-1.37,0-2.49-1-2.49,0s1.12,1.74,2.49,1.74,2.5-.78,2.5-1.74S21.54,105.43,20.16,105.43Z"/><path class="cls-46" d="M73.81,55a13,13,0,1,0,13,13A13,13,0,0,0,73.81,55Zm0,25.2c-5.15,0-9.33-2.92-9.33-6.52s4.18,0,9.33,0,9.33-3.6,9.33,0S79,80.2,73.81,80.2Zm0-17.66c-5.15,0-9.33,3.6-9.33,0S68.66,56,73.81,56s9.33,2.92,9.33,6.52S79,62.54,73.81,62.54Z"/><path class="cls-46" d="M73.81,56c-5.15,0-9.33,2.92-9.33,6.52s4.18,0,9.33,0,9.33,3.6,9.33,0S79,56,73.81,56Z"/><path class="cls-47" d="M73.81,56c-5.15,0-9.33,2.92-9.33,6.52s4.18,0,9.33,0,9.33,3.6,9.33,0S79,56,73.81,56Z"/><path class="cls-46" d="M73.81,73.68c-5.15,0-9.33-3.6-9.33,0s4.18,6.52,9.33,6.52,9.33-2.92,9.33-6.52S79,73.68,73.81,73.68Z"/><path class="cls-48" d="M73.81,73.68c-5.15,0-9.33-3.6-9.33,0s4.18,6.52,9.33,6.52,9.33-2.92,9.33-6.52S79,73.68,73.81,73.68Z"/><path class="cls-49" d="M104,20.71A5.71,5.71,0,1,0,98.3,15,5.71,5.71,0,0,0,104,20.71Zm0-11c2.26,0,4.08,1.28,4.08,2.85s-1.82,0-4.08,0-4.09,1.58-4.09,0S101.75,9.74,104,9.74Zm0,7.73c2.26,0,4.08-1.57,4.08,0s-1.82,2.85-4.08,2.85-4.09-1.27-4.09-2.85S101.75,17.47,104,17.47Z"/><path class="cls-49" d="M104,12.59c2.26,0,4.08,1.58,4.08,0S106.27,9.74,104,9.74,99.92,11,99.92,12.59,101.75,12.59,104,12.59Z"/><path class="cls-50" d="M104,12.59c2.26,0,4.08,1.58,4.08,0S106.27,9.74,104,9.74,99.92,11,99.92,12.59,101.75,12.59,104,12.59Z"/><path class="cls-49" d="M104,20.32c2.26,0,4.08-1.27,4.08-2.85s-1.82,0-4.08,0-4.09-1.57-4.09,0S101.75,20.32,104,20.32Z"/><path class="cls-51" d="M104,20.32c2.26,0,4.08-1.27,4.08-2.85s-1.82,0-4.08,0-4.09-1.57-4.09,0S101.75,20.32,104,20.32Z"/><path class="cls-52" d="M62.41,83.4a3.19,3.19,0,1,0,3.19,3.18A3.18,3.18,0,0,0,62.41,83.4Zm0,6.16c-1.26,0-2.28-.72-2.28-1.6s1,0,2.28,0,2.28-.88,2.28,0S63.67,89.56,62.41,89.56Zm0-4.32c-1.26,0-2.28.88-2.28,0s1-1.59,2.28-1.59,2.28.71,2.28,1.59S63.67,85.24,62.41,85.24Z"/><path class="cls-52" d="M62.41,83.65c-1.26,0-2.28.71-2.28,1.59s1,0,2.28,0,2.28.88,2.28,0S63.67,83.65,62.41,83.65Z"/><path class="cls-53" d="M62.41,83.65c-1.26,0-2.28.71-2.28,1.59s1,0,2.28,0,2.28.88,2.28,0S63.67,83.65,62.41,83.65Z"/><path class="cls-52" d="M62.41,88c-1.26,0-2.28-.88-2.28,0s1,1.6,2.28,1.6,2.28-.72,2.28-1.6S63.67,88,62.41,88Z"/><path class="cls-54" d="M62.41,88c-1.26,0-2.28-.88-2.28,0s1,1.6,2.28,1.6,2.28-.72,2.28-1.6S63.67,88,62.41,88Z"/><path class="cls-55" d="M13.3,63.47a3.19,3.19,0,1,0,3.19,3.19A3.19,3.19,0,0,0,13.3,63.47Zm0,6.16C12,69.63,11,68.92,11,68s1,0,2.28,0,2.28-.88,2.28,0S14.56,69.63,13.3,69.63Zm0-4.32c-1.26,0-2.28.88-2.28,0s1-1.59,2.28-1.59,2.28.71,2.28,1.59S14.56,65.31,13.3,65.31Z"/><path class="cls-55" d="M13.3,63.72c-1.26,0-2.28.71-2.28,1.59s1,0,2.28,0,2.28.88,2.28,0S14.56,63.72,13.3,63.72Z"/><path class="cls-56" d="M13.3,63.72c-1.26,0-2.28.71-2.28,1.59s1,0,2.28,0,2.28.88,2.28,0S14.56,63.72,13.3,63.72Z"/><path class="cls-55" d="M13.3,68C12,68,11,67.16,11,68s1,1.59,2.28,1.59,2.28-.71,2.28-1.59S14.56,68,13.3,68Z"/><path class="cls-57" d="M13.3,68C12,68,11,67.16,11,68s1,1.59,2.28,1.59,2.28-.71,2.28-1.59S14.56,68,13.3,68Z"/><path class="cls-58" d="M34.85,62.58a18,18,0,1,0,18,18A18,18,0,0,0,34.85,62.58Zm0,34.77c-7.11,0-12.88-4-12.88-9s5.77,0,12.88,0,12.88-5,12.88,0S42,97.35,34.85,97.35Zm0-24.37C27.74,73,22,78,22,73s5.77-9,12.88-9,12.88,4,12.88,9S42,73,34.85,73Z"/><path class="cls-58" d="M34.85,64C27.74,64,22,68,22,73s5.77,0,12.88,0,12.88,5,12.88,0S42,64,34.85,64Z"/><path class="cls-59" d="M34.85,64C27.74,64,22,68,22,73s5.77,0,12.88,0,12.88,5,12.88,0S42,64,34.85,64Z"/><path class="cls-58" d="M34.85,88.36c-7.11,0-12.88-5-12.88,0s5.77,9,12.88,9,12.88-4,12.88-9S42,88.36,34.85,88.36Z"/><path class="cls-60" d="M34.85,88.36c-7.11,0-12.88-5-12.88,0s5.77,9,12.88,9,12.88-4,12.88-9S42,88.36,34.85,88.36Z"/><path class="cls-61" d="M0,99.29v1.41c5.66.94,9.87,4.5,9.87,8.74s-4.21,1.24-9.87.27v14.84c5.66-1,9.87-4,9.87.27V125h3.25A17.9,17.9,0,0,0,15,117,18,18,0,0,0,0,99.29Z"/><path class="cls-61" d="M9.87,109.44c0-4.24-4.21-7.8-9.87-8.74v9C5.66,110.68,9.87,113.68,9.87,109.44Z"/><path class="cls-62" d="M9.87,109.44c0-4.24-4.21-7.8-9.87-8.74v9C5.66,110.68,9.87,113.68,9.87,109.44Z"/><path class="cls-61" d="M0,124.55V125H9.87v-.18C9.87,120.57,5.66,123.58,0,124.55Z"/><path class="cls-63" d="M0,124.55V125H9.87v-.18C9.87,120.57,5.66,123.58,0,124.55Z"/><path class="cls-64" d="M72,95A22.53,22.53,0,0,0,49.5,117.48,22.29,22.29,0,0,0,50.79,125h5.75c.82-.83,2.38-.58,4.45,0H83.05c2.07-.58,3.63-.83,4.45,0h5.75a22.29,22.29,0,0,0,1.29-7.52A22.53,22.53,0,0,0,72,95Zm0,13c-8.9,0-16.12,6.22-16.12,0S63.12,96.72,72,96.72s16.12,5,16.12,11.26S80.92,108,72,108Z"/><path class="cls-64" d="M72,96.72c-8.9,0-16.12,5-16.12,11.26s7.22,0,16.12,0,16.12,6.22,16.12,0S80.92,96.72,72,96.72Z"/><path class="cls-65" d="M72,96.72c-8.9,0-16.12,5-16.12,11.26s7.22,0,16.12,0,16.12,6.22,16.12,0S80.92,96.72,72,96.72Z"/><path class="cls-64" d="M83.05,125H87.5C86.68,124.17,85.12,124.42,83.05,125Z"/><path class="cls-66" d="M83.05,125H87.5C86.68,124.17,85.12,124.42,83.05,125Z"/><path class="cls-64" d="M56.54,125H61C58.92,124.42,57.36,124.17,56.54,125Z"/><path class="cls-67" d="M56.54,125H61C58.92,124.42,57.36,124.17,56.54,125Z"/><path class="cls-68" d="M83.05,0H61c2.88.8,6.76,2.23,11,2.23S80.17.8,83.05,0Z"/><path class="cls-68" d="M72,15A22.52,22.52,0,0,0,93.25,0H87.5a3.08,3.08,0,0,1,.64,2.23c0,6.22-7.22,11.26-16.12,11.26S55.9,8.45,55.9,2.23A3.08,3.08,0,0,1,56.54,0H50.79A22.52,22.52,0,0,0,72,15Z"/><path class="cls-68" d="M55.9,2.23c0,6.22,7.22,11.26,16.12,11.26s16.12-5,16.12-11.26A3.08,3.08,0,0,0,87.5,0H83.05c-2.88.8-6.76,2.23-11,2.23S63.87.8,61,0H56.54A3.08,3.08,0,0,0,55.9,2.23Z"/><path class="cls-69" d="M55.9,2.23c0,6.22,7.22,11.26,16.12,11.26s16.12-5,16.12-11.26A3.08,3.08,0,0,0,87.5,0H83.05c-2.88.8-6.76,2.23-11,2.23S63.87.8,61,0H56.54A3.08,3.08,0,0,0,55.9,2.23Z"/><path class="cls-70" d="M108.25,38.6A21.78,21.78,0,0,0,125,59.79V58.34c-6.14-1.47-10.56-5.52-10.56-10.31s4.42-2,10.56-.6V30c-6.14,1.36-10.56,4.19-10.56-.6s4.42-8.84,10.56-10.3v-1.7A21.78,21.78,0,0,0,108.25,38.6Z"/><path class="cls-70" d="M114.44,29.42c0,4.79,4.42,2,10.56.6V19.12C118.86,20.58,114.44,24.64,114.44,29.42Z"/><path class="cls-71" d="M114.44,29.42c0,4.79,4.42,2,10.56.6V19.12C118.86,20.58,114.44,24.64,114.44,29.42Z"/><path class="cls-70" d="M114.44,48c0,4.79,4.42,8.84,10.56,10.31V47.43C118.86,46.08,114.44,43.25,114.44,48Z"/><path class="cls-72" d="M114.44,48c0,4.79,4.42,8.84,10.56,10.31V47.43C118.86,46.08,114.44,43.25,114.44,48Z"/><path class="cls-73" d="M13.12,0H9.87C9.75,4.16,5.58,7.63,0,8.56v1.2A18,18,0,0,0,13.12,0Z"/><path class="cls-73" d="M9.87,0H0V8.56C5.58,7.63,9.75,4.16,9.87,0Z"/><path class="cls-74" d="M9.87,0H0V8.56C5.58,7.63,9.75,4.16,9.87,0Z"/><path class="cls-75" d="M122,10a18.59,18.59,0,0,0,3-.25V8.56a18.31,18.31,0,0,1-3,.25c-7,0-12.73-3.93-12.87-8.81h-3.26A18,18,0,0,0,122,10Z"/><path class="cls-75" d="M122,8.81a18.31,18.31,0,0,0,3-.25V0H109.13C109.27,4.88,115,8.81,122,8.81Z"/><path class="cls-76" d="M122,8.81a18.31,18.31,0,0,0,3-.25V0H109.13C109.27,4.88,115,8.81,122,8.81Z"/><path class="cls-77" d="M104,117a17.9,17.9,0,0,0,1.86,8h3.26c0-.06,0-.12,0-.18,0-5,5.77,0,12.88,0a18.29,18.29,0,0,0,3-.27V109.71a18.29,18.29,0,0,0-3-.27c-7.11,0-12.88,5-12.88,0s5.77-9,12.88-9a17.27,17.27,0,0,1,3,.25V99.29a18.59,18.59,0,0,0-3-.25A18,18,0,0,0,104,117Z"/><path class="cls-77" d="M109.12,109.44c0,5,5.77,0,12.88,0a18.29,18.29,0,0,1,3,.27v-9a17.27,17.27,0,0,0-3-.25C114.89,100.45,109.12,104.47,109.12,109.44Z"/><path class="cls-78" d="M109.12,109.44c0,5,5.77,0,12.88,0a18.29,18.29,0,0,1,3,.27v-9a17.27,17.27,0,0,0-3-.25C114.89,100.45,109.12,104.47,109.12,109.44Z"/><path class="cls-77" d="M109.12,124.82c0,.06,0,.12,0,.18H125v-.45a18.29,18.29,0,0,1-3,.27C114.89,124.82,109.12,119.85,109.12,124.82Z"/><path class="cls-79" d="M109.12,124.82c0,.06,0,.12,0,.18H125v-.45a18.29,18.29,0,0,1-3,.27C114.89,124.82,109.12,119.85,109.12,124.82Z"/><path class="cls-80" d="M120.4,87.15a4.6,4.6,0,0,0,4.6,4.6v-.31c-1.82,0-3.29-1-3.29-2.3s1.47,0,3.29,0V85.21c-1.82,0-3.29,1.27-3.29,0s1.47-2.3,3.29-2.3v-.36A4.6,4.6,0,0,0,120.4,87.15Z"/><path class="cls-81" d="M121.71,85.21c0,1.27,1.47,0,3.29,0v-2.3C123.18,82.91,121.71,83.94,121.71,85.21Z"/><path class="cls-82" d="M121.71,85.21c0,1.27,1.47,0,3.29,0v-2.3C123.18,82.91,121.71,83.94,121.71,85.21Z"/><path class="cls-81" d="M121.71,89.14c0,1.27,1.47,2.3,3.29,2.3v-2.3C123.18,89.14,121.71,87.87,121.71,89.14Z"/><path class="cls-83" d="M121.71,89.14c0,1.27,1.47,2.3,3.29,2.3v-2.3C123.18,89.14,121.71,87.87,121.71,89.14Z"/><path class="cls-84" d="M27.94,121.86A8.12,8.12,0,0,0,21.52,125h1.05a6.22,6.22,0,0,1,5.37-2.5,6.23,6.23,0,0,1,5.38,2.5h1A8.12,8.12,0,0,0,27.94,121.86Z"/><path class="cls-84" d="M27.94,122.5a6.22,6.22,0,0,0-5.37,2.5H33.32A6.23,6.23,0,0,0,27.94,122.5Z"/><path class="cls-85" d="M27.94,122.5a6.22,6.22,0,0,0-5.37,2.5H33.32A6.23,6.23,0,0,0,27.94,122.5Z"/><path class="cls-86" d="M3.29,70.42a5.38,5.38,0,0,0-3.29-5v.44a2.62,2.62,0,0,1,1.77,2.25c0,1-.71.68-1.77.37v3.85c1.06-.32,1.77-.58,1.77.37A2.64,2.64,0,0,1,0,75v.37A5.37,5.37,0,0,0,3.29,70.42Z"/><path class="cls-86" d="M1.77,68.16A2.62,2.62,0,0,0,0,65.91v2.62C1.06,68.84,1.77,69.11,1.77,68.16Z"/><path class="cls-87" d="M1.77,68.16A2.62,2.62,0,0,0,0,65.91v2.62C1.06,68.84,1.77,69.11,1.77,68.16Z"/><path class="cls-86" d="M1.77,72.75c0-1-.71-.69-1.77-.37V75A2.64,2.64,0,0,0,1.77,72.75Z"/><path class="cls-88" d="M1.77,72.75c0-1-.71-.69-1.77-.37V75A2.64,2.64,0,0,0,1.77,72.75Z"/></g></g></svg>