<?xml version="1.0" encoding="UTF-8"?>
<svg id="Capa_1" data-name="Capa 1" xmlns="http://www.w3.org/2000/svg" xmlns:xlink="http://www.w3.org/1999/xlink" viewBox="0 0 500 1000">
  <defs>
    <style>
      .cls-1 {
        fill: url(#Degradado_sin_nombre_5);
        stroke-width: 0px;
      }
    </style>
    <linearGradient id="Degradado_sin_nombre_5" data-name="Degradado sin nombre 5" x1="250" y1="1000" x2="250" y2="500" gradientUnits="userSpaceOnUse">
      <stop offset="0" stop-color="#da2f43"/>
      <stop offset="1" stop-color="#f4f4f4" stop-opacity="0"/>
    </linearGradient>
  </defs>
  <path class="cls-1" d="m.28,975.49c0-4.34,3.74-7.87,8.34-7.87,3.34,0,6.21,1.85,7.54,4.52,1.33-2.67,4.21-4.52,7.54-4.52s6.21,1.85,7.54,4.52c1.33-2.67,4.21-4.52,7.54-4.52s6.21,1.85,7.54,4.52c1.33-2.67,4.21-4.52,7.54-4.52s6.21,1.85,7.54,4.52c1.33-2.67,4.21-4.52,7.54-4.52s6.21,1.85,7.54,4.52c1.33-2.67,4.21-4.52,7.54-4.52s6.21,1.85,7.54,4.52c1.33-2.67,4.21-4.52,7.54-4.52s6.21,1.85,7.54,4.52c1.33-2.67,4.21-4.52,7.54-4.52s6.21,1.85,7.54,4.52c1.33-2.67,4.21-4.52,7.54-4.52s6.21,1.85,7.54,4.52c1.33-2.67,4.21-4.52,7.54-4.52s6.21,1.85,7.54,4.52c1.33-2.67,4.21-4.52,7.54-4.52s6.21,1.85,7.54,4.52c1.33-2.67,4.21-4.52,7.54-4.52s6.21,1.85,7.54,4.52c1.33-2.67,4.21-4.52,7.54-4.52s6.21,1.85,7.54,4.52c1.33-2.67,4.21-4.52,7.54-4.52s6.21,1.85,7.54,4.52c1.33-2.67,4.21-4.52,7.54-4.52s6.21,1.85,7.54,4.52c1.33-2.67,4.21-4.52,7.54-4.52s6.21,1.85,7.54,4.52c1.33-2.67,4.21-4.52,7.54-4.52s6.21,1.85,7.54,4.52c1.33-2.67,4.21-4.52,7.54-4.52s6.21,1.85,7.54,4.52c1.33-2.67,4.21-4.52,7.54-4.52s6.21,1.85,7.54,4.52c1.33-2.67,4.21-4.52,7.54-4.52s6.21,1.85,7.54,4.52c1.33-2.67,4.21-4.52,7.54-4.52s6.21,1.85,7.54,4.52c1.33-2.67,4.21-4.52,7.54-4.52s6.21,1.85,7.54,4.52c1.33-2.67,4.21-4.52,7.54-4.52s6.21,1.85,7.54,4.52c1.33-2.67,4.21-4.52,7.54-4.52s6.21,1.85,7.54,4.52c1.33-2.67,4.21-4.52,7.54-4.52s6.21,1.85,7.54,4.52c1.33-2.67,4.21-4.52,7.54-4.52s6.21,1.85,7.54,4.52c1.33-2.67,4.21-4.52,7.54-4.52s6.21,1.85,7.54,4.52c1.33-2.67,4.21-4.52,7.54-4.52s6.21,1.85,7.54,4.52c1.33-2.67,4.21-4.52,7.54-4.52s6.21,1.85,7.54,4.52c1.33-2.67,4.21-4.52,7.54-4.52s6.21,1.85,7.54,4.52c1.33-2.67,4.21-4.52,7.54-4.52s6.21,1.85,7.54,4.52c1.33-2.67,4.21-4.52,7.54-4.52s6.21,1.85,7.54,4.52c1.33-2.67,4.21-4.52,7.54-4.52,4.61,0,8.34,3.52,8.34,7.87s-3.74,7.87-8.34,7.87c-3.34,0-6.21-1.85-7.54-4.52-1.33,2.67-4.21,4.52-7.54,4.52s-6.21-1.85-7.54-4.52c-1.33,2.67-4.21,4.52-7.54,4.52s-6.21-1.85-7.54-4.52c-1.33,2.67-4.21,4.52-7.54,4.52s-6.21-1.85-7.54-4.52c-1.33,2.67-4.21,4.52-7.54,4.52s-6.21-1.85-7.54-4.52c-1.33,2.67-4.21,4.52-7.54,4.52s-6.21-1.85-7.54-4.52c-1.33,2.67-4.21,4.52-7.54,4.52s-6.21-1.85-7.54-4.52c-1.33,2.67-4.21,4.52-7.54,4.52s-6.21-1.85-7.54-4.52c-1.33,2.67-4.21,4.52-7.54,4.52s-6.21-1.85-7.54-4.52c-1.33,2.67-4.21,4.52-7.54,4.52s-6.21-1.85-7.54-4.52c-1.33,2.67-4.21,4.52-7.54,4.52s-6.21-1.85-7.54-4.52c-1.33,2.67-4.21,4.52-7.54,4.52s-6.21-1.85-7.54-4.52c-1.33,2.67-4.21,4.52-7.54,4.52s-6.21-1.85-7.54-4.52c-1.33,2.67-4.21,4.52-7.54,4.52s-6.21-1.85-7.54-4.52c-1.33,2.67-4.21,4.52-7.54,4.52s-6.21-1.85-7.54-4.52c-1.33,2.67-4.21,4.52-7.54,4.52s-6.21-1.85-7.54-4.52c-1.33,2.67-4.21,4.52-7.54,4.52s-6.21-1.85-7.54-4.52c-1.33,2.67-4.21,4.52-7.54,4.52s-6.21-1.85-7.54-4.52c-1.33,2.67-4.21,4.52-7.54,4.52s-6.21-1.85-7.54-4.52c-1.33,2.67-4.21,4.52-7.54,4.52s-6.21-1.85-7.54-4.52c-1.33,2.67-4.21,4.52-7.54,4.52s-6.21-1.85-7.54-4.52c-1.33,2.67-4.21,4.52-7.54,4.52s-6.21-1.85-7.54-4.52c-1.33,2.67-4.21,4.52-7.54,4.52s-6.21-1.85-7.54-4.52c-1.33,2.67-4.21,4.52-7.54,4.52s-6.21-1.85-7.54-4.52c-1.33,2.67-4.21,4.52-7.54,4.52s-6.21-1.85-7.54-4.52c-1.33,2.67-4.21,4.52-7.54,4.52s-6.21-1.85-7.54-4.52c-1.33,2.67-4.21,4.52-7.54,4.52s-6.21-1.85-7.54-4.52c-1.33,2.67-4.21,4.52-7.54,4.52s-6.21-1.85-7.54-4.52c-1.33,2.67-4.21,4.52-7.54,4.52s-6.21-1.85-7.54-4.52c-1.33,2.67-4.21,4.52-7.54,4.52s-6.21-1.85-7.54-4.52c-1.33,2.67-4.21,4.52-7.54,4.52s-6.21-1.85-7.54-4.52c-1.33,2.67-4.21,4.52-7.54,4.52s-6.21-1.85-7.54-4.52c-1.33,2.67-4.21,4.52-7.54,4.52-4.61,0-8.34-3.52-8.34-7.87Zm8.34-8.78c3.46,0,6.4-2.05,7.54-4.93,1.15,2.88,4.09,4.93,7.54,4.93s6.4-2.05,7.54-4.93c1.15,2.88,4.09,4.93,7.54,4.93s6.4-2.05,7.54-4.93c1.15,2.88,4.09,4.93,7.54,4.93s6.4-2.05,7.54-4.93c1.15,2.88,4.09,4.93,7.54,4.93s6.4-2.05,7.54-4.93c1.15,2.88,4.09,4.93,7.54,4.93s6.4-2.05,7.54-4.93c1.15,2.88,4.09,4.93,7.54,4.93s6.4-2.05,7.54-4.93c1.15,2.88,4.09,4.93,7.54,4.93s6.4-2.05,7.54-4.93c1.15,2.88,4.09,4.93,7.54,4.93s6.4-2.05,7.54-4.93c1.15,2.88,4.09,4.93,7.54,4.93s6.4-2.05,7.54-4.93c1.15,2.88,4.09,4.93,7.54,4.93s6.4-2.05,7.54-4.93c1.15,2.88,4.09,4.93,7.54,4.93s6.4-2.05,7.54-4.93c1.15,2.88,4.09,4.93,7.54,4.93s6.4-2.05,7.54-4.93c1.15,2.88,4.09,4.93,7.54,4.93s6.4-2.05,7.54-4.93c1.15,2.88,4.09,4.93,7.54,4.93s6.4-2.05,7.54-4.93c1.15,2.88,4.09,4.93,7.54,4.93s6.4-2.05,7.54-4.93c1.15,2.88,4.09,4.93,7.54,4.93s6.4-2.05,7.54-4.93c1.15,2.88,4.09,4.93,7.54,4.93s6.4-2.05,7.54-4.93c1.15,2.88,4.09,4.93,7.54,4.93s6.4-2.05,7.54-4.93c1.15,2.88,4.09,4.93,7.54,4.93s6.4-2.05,7.54-4.93c1.15,2.88,4.09,4.93,7.54,4.93s6.4-2.05,7.54-4.93c1.15,2.88,4.09,4.93,7.54,4.93s6.4-2.05,7.54-4.93c1.15,2.88,4.09,4.93,7.54,4.93s6.4-2.05,7.54-4.93c1.15,2.88,4.09,4.93,7.54,4.93s6.4-2.05,7.54-4.93c1.15,2.88,4.09,4.93,7.54,4.93s6.4-2.05,7.54-4.93c1.15,2.88,4.09,4.93,7.54,4.93s6.4-2.05,7.54-4.93c1.15,2.88,4.09,4.93,7.54,4.93s6.4-2.05,7.54-4.93c1.15,2.88,4.09,4.93,7.54,4.93s6.4-2.05,7.54-4.93c1.15,2.88,4.09,4.93,7.54,4.93s6.4-2.05,7.54-4.93c1.15,2.88,4.09,4.93,7.54,4.93s6.4-2.05,7.54-4.93c1.15,2.88,4.09,4.93,7.54,4.93s6.4-2.05,7.54-4.93c1.15,2.88,4.09,4.93,7.54,4.93s6.4-2.05,7.54-4.93c1.15,2.88,4.09,4.93,7.54,4.93,4.45,0,8.06-3.4,8.06-7.6s-3.61-7.6-8.06-7.6c-3.46,0-6.4,2.05-7.54,4.93-1.15-2.88-4.09-4.93-7.54-4.93s-6.4,2.05-7.54,4.93c-1.15-2.88-4.09-4.93-7.54-4.93s-6.4,2.05-7.54,4.93c-1.15-2.88-4.09-4.93-7.54-4.93s-6.4,2.05-7.54,4.93c-1.15-2.88-4.09-4.93-7.54-4.93s-6.4,2.05-7.54,4.93c-1.15-2.88-4.09-4.93-7.54-4.93s-6.4,2.05-7.54,4.93c-1.15-2.88-4.09-4.93-7.54-4.93s-6.4,2.05-7.54,4.93c-1.15-2.88-4.09-4.93-7.54-4.93s-6.4,2.05-7.54,4.93c-1.15-2.88-4.09-4.93-7.54-4.93s-6.4,2.05-7.54,4.93c-1.15-2.88-4.09-4.93-7.54-4.93s-6.4,2.05-7.54,4.93c-1.15-2.88-4.09-4.93-7.54-4.93s-6.4,2.05-7.54,4.93c-1.15-2.88-4.09-4.93-7.54-4.93s-6.4,2.05-7.54,4.93c-1.15-2.88-4.09-4.93-7.54-4.93s-6.4,2.05-7.54,4.93c-1.15-2.88-4.09-4.93-7.54-4.93s-6.4,2.05-7.54,4.93c-1.15-2.88-4.09-4.93-7.54-4.93s-6.4,2.05-7.54,4.93c-1.15-2.88-4.09-4.93-7.54-4.93s-6.4,2.05-7.54,4.93c-1.15-2.88-4.09-4.93-7.54-4.93s-6.4,2.05-7.54,4.93c-1.15-2.88-4.09-4.93-7.54-4.93s-6.4,2.05-7.54,4.93c-1.15-2.88-4.09-4.93-7.54-4.93s-6.4,2.05-7.54,4.93c-1.15-2.88-4.09-4.93-7.54-4.93s-6.4,2.05-7.54,4.93c-1.15-2.88-4.09-4.93-7.54-4.93s-6.4,2.05-7.54,4.93c-1.15-2.88-4.09-4.93-7.54-4.93s-6.4,2.05-7.54,4.93c-1.15-2.88-4.09-4.93-7.54-4.93s-6.4,2.05-7.54,4.93c-1.15-2.88-4.09-4.93-7.54-4.93s-6.4,2.05-7.54,4.93c-1.15-2.88-4.09-4.93-7.54-4.93s-6.4,2.05-7.54,4.93c-1.15-2.88-4.09-4.93-7.54-4.93s-6.4,2.05-7.54,4.93c-1.15-2.88-4.09-4.93-7.54-4.93s-6.4,2.05-7.54,4.93c-1.15-2.88-4.09-4.93-7.54-4.93s-6.4,2.05-7.54,4.93c-1.15-2.88-4.09-4.93-7.54-4.93s-6.4,2.05-7.54,4.93c-1.15-2.88-4.09-4.93-7.54-4.93s-6.4,2.05-7.54,4.93c-1.15-2.88-4.09-4.93-7.54-4.93s-6.4,2.05-7.54,4.93c-1.15-2.88-4.09-4.93-7.54-4.93s-6.4,2.05-7.54,4.93c-1.15-2.88-4.09-4.93-7.54-4.93-4.45,0-8.06,3.4-8.06,7.6s3.61,7.6,8.06,7.6Zm0-16.65c3.64,0,6.69-2.36,7.54-5.55.85,3.19,3.9,5.55,7.54,5.55s6.69-2.36,7.54-5.55c.85,3.19,3.9,5.55,7.54,5.55s6.69-2.36,7.54-5.55c.85,3.19,3.9,5.55,7.54,5.55s6.69-2.36,7.54-5.55c.85,3.19,3.9,5.55,7.54,5.55s6.69-2.36,7.54-5.55c.85,3.19,3.9,5.55,7.54,5.55s6.69-2.36,7.54-5.55c.85,3.19,3.9,5.55,7.54,5.55s6.69-2.36,7.54-5.55c.85,3.19,3.9,5.55,7.54,5.55s6.69-2.36,7.54-5.55c.85,3.19,3.9,5.55,7.54,5.55s6.69-2.36,7.54-5.55c.85,3.19,3.9,5.55,7.54,5.55s6.69-2.36,7.54-5.55c.85,3.19,3.9,5.55,7.54,5.55s6.69-2.36,7.54-5.55c.85,3.19,3.9,5.55,7.54,5.55s6.69-2.36,7.54-5.55c.85,3.19,3.9,5.55,7.54,5.55s6.69-2.36,7.54-5.55c.85,3.19,3.9,5.55,7.54,5.55s6.69-2.36,7.54-5.55c.85,3.19,3.9,5.55,7.54,5.55s6.69-2.36,7.54-5.55c.85,3.19,3.9,5.55,7.54,5.55s6.69-2.36,7.54-5.55c.85,3.19,3.9,5.55,7.54,5.55s6.69-2.36,7.54-5.55c.85,3.19,3.9,5.55,7.54,5.55s6.69-2.36,7.54-5.55c.85,3.19,3.9,5.55,7.54,5.55s6.69-2.36,7.54-5.55c.85,3.19,3.9,5.55,7.54,5.55s6.69-2.36,7.54-5.55c.85,3.19,3.9,5.55,7.54,5.55s6.69-2.36,7.54-5.55c.85,3.19,3.9,5.55,7.54,5.55s6.69-2.36,7.54-5.55c.85,3.19,3.9,5.55,7.54,5.55s6.69-2.36,7.54-5.55c.85,3.19,3.9,5.55,7.54,5.55s6.69-2.36,7.54-5.55c.85,3.19,3.9,5.55,7.54,5.55s6.69-2.36,7.54-5.55c.85,3.19,3.9,5.55,7.54,5.55s6.69-2.36,7.54-5.55c.85,3.19,3.9,5.55,7.54,5.55s6.69-2.36,7.54-5.55c.85,3.19,3.9,5.55,7.54,5.55s6.69-2.36,7.54-5.55c.85,3.19,3.9,5.55,7.54,5.55s6.69-2.36,7.54-5.55c.85,3.19,3.9,5.55,7.54,5.55s6.69-2.36,7.54-5.55c.85,3.19,3.9,5.55,7.54,5.55s6.69-2.36,7.54-5.55c.85,3.19,3.9,5.55,7.54,5.55s6.69-2.36,7.54-5.55c.85,3.19,3.9,5.55,7.54,5.55,4.3,0,7.79-3.29,7.79-7.34s-3.49-7.34-7.79-7.34c-3.64,0-6.69,2.36-7.54,5.55-.85-3.19-3.9-5.55-7.54-5.55s-6.69,2.36-7.54,5.55c-.85-3.19-3.9-5.55-7.54-5.55s-6.69,2.36-7.54,5.55c-.85-3.19-3.9-5.55-7.54-5.55s-6.69,2.36-7.54,5.55c-.85-3.19-3.9-5.55-7.54-5.55s-6.69,2.36-7.54,5.55c-.85-3.19-3.9-5.55-7.54-5.55s-6.69,2.36-7.54,5.55c-.85-3.19-3.9-5.55-7.54-5.55s-6.69,2.36-7.54,5.55c-.85-3.19-3.9-5.55-7.54-5.55s-6.69,2.36-7.54,5.55c-.85-3.19-3.9-5.55-7.54-5.55s-6.69,2.36-7.54,5.55c-.85-3.19-3.9-5.55-7.54-5.55s-6.69,2.36-7.54,5.55c-.85-3.19-3.9-5.55-7.54-5.55s-6.69,2.36-7.54,5.55c-.85-3.19-3.9-5.55-7.54-5.55s-6.69,2.36-7.54,5.55c-.85-3.19-3.9-5.55-7.54-5.55s-6.69,2.36-7.54,5.55c-.85-3.19-3.9-5.55-7.54-5.55s-6.69,2.36-7.54,5.55c-.85-3.19-3.9-5.55-7.54-5.55s-6.69,2.36-7.54,5.55c-.85-3.19-3.9-5.55-7.54-5.55s-6.69,2.36-7.54,5.55c-.85-3.19-3.9-5.55-7.54-5.55s-6.69,2.36-7.54,5.55c-.85-3.19-3.9-5.55-7.54-5.55s-6.69,2.36-7.54,5.55c-.85-3.19-3.9-5.55-7.54-5.55s-6.69,2.36-7.54,5.55c-.85-3.19-3.9-5.55-7.54-5.55s-6.69,2.36-7.54,5.55c-.85-3.19-3.9-5.55-7.54-5.55s-6.69,2.36-7.54,5.55c-.85-3.19-3.9-5.55-7.54-5.55s-6.69,2.36-7.54,5.55c-.85-3.19-3.9-5.55-7.54-5.55s-6.69,2.36-7.54,5.55c-.85-3.19-3.9-5.55-7.54-5.55s-6.69,2.36-7.54,5.55c-.85-3.19-3.9-5.55-7.54-5.55s-6.69,2.36-7.54,5.55c-.85-3.19-3.9-5.55-7.54-5.55s-6.69,2.36-7.54,5.55c-.85-3.19-3.9-5.55-7.54-5.55s-6.69,2.36-7.54,5.55c-.85-3.19-3.9-5.55-7.54-5.55s-6.69,2.36-7.54,5.55c-.85-3.19-3.9-5.55-7.54-5.55s-6.69,2.36-7.54,5.55c-.85-3.19-3.9-5.55-7.54-5.55s-6.69,2.36-7.54,5.55c-.85-3.19-3.9-5.55-7.54-5.55s-6.69,2.36-7.54,5.55c-.85-3.19-3.9-5.55-7.54-5.55s-6.69,2.36-7.54,5.55c-.85-3.19-3.9-5.55-7.54-5.55-4.3,0-7.79,3.29-7.79,7.34s3.49,7.34,7.79,7.34Zm0-16.65c4.15,0,7.51-3.17,7.51-7.08s-3.36-7.08-7.51-7.08-7.51,3.17-7.51,7.08,3.36,7.08,7.51,7.08Zm0-16.65c3.99,0,7.23-3.05,7.23-6.82s-3.24-6.82-7.23-6.82-7.23,3.05-7.23,6.82,3.24,6.82,7.23,6.82Zm0-16.65c3.84,0,6.95-2.93,6.95-6.55s-3.11-6.55-6.95-6.55-6.95,2.93-6.95,6.55,3.11,6.55,6.95,6.55Zm0-16.65c3.69,0,6.67-2.82,6.67-6.29s-2.99-6.29-6.67-6.29-6.67,2.82-6.67,6.29,2.99,6.29,6.67,6.29Zm0-16.65c3.53,0,6.4-2.7,6.4-6.03s-2.86-6.03-6.4-6.03-6.4,2.7-6.4,6.03,2.86,6.03,6.4,6.03Zm0-16.65c3.38,0,6.12-2.58,6.12-5.77s-2.74-5.77-6.12-5.77-6.12,2.58-6.12,5.77,2.74,5.77,6.12,5.77Zm0-16.65c3.23,0,5.84-2.47,5.84-5.51s-2.61-5.51-5.84-5.51-5.84,2.47-5.84,5.51,2.61,5.51,5.84,5.51Zm0-16.65c3.07,0,5.56-2.35,5.56-5.24s-2.49-5.24-5.56-5.24-5.56,2.35-5.56,5.24,2.49,5.24,5.56,5.24Zm0-16.65c2.92,0,5.28-2.23,5.28-4.98s-2.37-4.98-5.28-4.98-5.28,2.23-5.28,4.98,2.37,4.98,5.28,4.98Zm0-16.65c2.76,0,5.01-2.11,5.01-4.72s-2.24-4.72-5.01-4.72-5.01,2.11-5.01,4.72,2.24,4.72,5.01,4.72Zm0-16.65c2.61,0,4.73-2,4.73-4.46s-2.12-4.46-4.73-4.46-4.73,2-4.73,4.46,2.12,4.46,4.73,4.46Zm0-16.65c2.46,0,4.45-1.88,4.45-4.2s-1.99-4.2-4.45-4.2-4.45,1.88-4.45,4.2,1.99,4.2,4.45,4.2Zm0-16.65c2.3,0,4.17-1.76,4.17-3.93s-1.87-3.93-4.17-3.93-4.17,1.76-4.17,3.93,1.87,3.93,4.17,3.93Zm0-16.65c2.15,0,3.89-1.64,3.89-3.67s-1.74-3.67-3.89-3.67-3.89,1.64-3.89,3.67,1.74,3.67,3.89,3.67Zm0-16.65c2,0,3.62-1.53,3.62-3.41s-1.62-3.41-3.62-3.41-3.62,1.53-3.62,3.41,1.62,3.41,3.62,3.41Zm0-16.65c1.84,0,3.34-1.41,3.34-3.15s-1.49-3.15-3.34-3.15-3.34,1.41-3.34,3.15,1.49,3.15,3.34,3.15Zm0-16.65c1.69,0,3.06-1.29,3.06-2.88s-1.37-2.88-3.06-2.88-3.06,1.29-3.06,2.88,1.37,2.88,3.06,2.88Zm0-16.65c1.54,0,2.78-1.17,2.78-2.62s-1.25-2.62-2.78-2.62-2.78,1.17-2.78,2.62,1.25,2.62,2.78,2.62Zm0-16.65c1.38,0,2.5-1.06,2.5-2.36s-1.12-2.36-2.5-2.36-2.5,1.06-2.5,2.36,1.12,2.36,2.5,2.36Zm0-16.65c1.23,0,2.22-.94,2.22-2.1s-1-2.1-2.22-2.1-2.22.94-2.22,2.1,1,2.1,2.22,2.1Zm0-16.65c1.08,0,1.95-.82,1.95-1.84s-.87-1.84-1.95-1.84-1.95.82-1.95,1.84.87,1.84,1.95,1.84Zm0-16.65c.92,0,1.67-.7,1.67-1.57s-.75-1.57-1.67-1.57-1.67.7-1.67,1.57.75,1.57,1.67,1.57Zm0-16.65c.77,0,1.39-.59,1.39-1.31s-.62-1.31-1.39-1.31-1.39.59-1.39,1.31.62,1.31,1.39,1.31Zm0-16.65c.61,0,1.11-.47,1.11-1.05s-.5-1.05-1.11-1.05-1.11.47-1.11,1.05.5,1.05,1.11,1.05Zm0-16.65c.46,0,.83-.35.83-.79s-.37-.79-.83-.79-.83.35-.83.79.37.79.83.79Zm0-16.65c.31,0,.56-.23.56-.52s-.25-.52-.56-.52-.56.23-.56.52.25.52.56.52Zm0-16.65c.15,0,.28-.12.28-.26s-.12-.26-.28-.26-.28.12-.28.26.12.26.28.26Zm15.09,432.88c4.15,0,7.51-3.17,7.51-7.08s-3.36-7.08-7.51-7.08-7.51,3.17-7.51,7.08,3.36,7.08,7.51,7.08Zm0-16.65c3.99,0,7.23-3.05,7.23-6.82s-3.24-6.82-7.23-6.82-7.23,3.05-7.23,6.82,3.24,6.82,7.23,6.82Zm0-16.65c3.84,0,6.95-2.93,6.95-6.55s-3.11-6.55-6.95-6.55-6.95,2.93-6.95,6.55,3.11,6.55,6.95,6.55Zm0-16.65c3.69,0,6.67-2.82,6.67-6.29s-2.99-6.29-6.67-6.29-6.67,2.82-6.67,6.29,2.99,6.29,6.67,6.29Zm0-16.65c3.53,0,6.4-2.7,6.4-6.03s-2.86-6.03-6.4-6.03-6.4,2.7-6.4,6.03,2.86,6.03,6.4,6.03Zm0-16.65c3.38,0,6.12-2.58,6.12-5.77s-2.74-5.77-6.12-5.77-6.12,2.58-6.12,5.77,2.74,5.77,6.12,5.77Zm0-16.65c3.23,0,5.84-2.47,5.84-5.51s-2.61-5.51-5.84-5.51-5.84,2.47-5.84,5.51,2.61,5.51,5.84,5.51Zm0-16.65c3.07,0,5.56-2.35,5.56-5.24s-2.49-5.24-5.56-5.24-5.56,2.35-5.56,5.24,2.49,5.24,5.56,5.24Zm0-16.65c2.92,0,5.28-2.23,5.28-4.98s-2.37-4.98-5.28-4.98-5.28,2.23-5.28,4.98,2.37,4.98,5.28,4.98Zm0-16.65c2.76,0,5.01-2.11,5.01-4.72s-2.24-4.72-5.01-4.72-5.01,2.11-5.01,4.72,2.24,4.72,5.01,4.72Zm0-16.65c2.61,0,4.73-2,4.73-4.46s-2.12-4.46-4.73-4.46-4.73,2-4.73,4.46,2.12,4.46,4.73,4.46Zm0-16.65c2.46,0,4.45-1.88,4.45-4.2s-1.99-4.2-4.45-4.2-4.45,1.88-4.45,4.2,1.99,4.2,4.45,4.2Zm0-16.65c2.3,0,4.17-1.76,4.17-3.93s-1.87-3.93-4.17-3.93-4.17,1.76-4.17,3.93,1.87,3.93,4.17,3.93Zm0-16.65c2.15,0,3.89-1.64,3.89-3.67s-1.74-3.67-3.89-3.67-3.89,1.64-3.89,3.67,1.74,3.67,3.89,3.67Zm0-16.65c2,0,3.62-1.53,3.62-3.41s-1.62-3.41-3.62-3.41-3.62,1.53-3.62,3.41,1.62,3.41,3.62,3.41Zm0-16.65c1.84,0,3.34-1.41,3.34-3.15s-1.49-3.15-3.34-3.15-3.34,1.41-3.34,3.15,1.49,3.15,3.34,3.15Zm0-16.65c1.69,0,3.06-1.29,3.06-2.88s-1.37-2.88-3.06-2.88-3.06,1.29-3.06,2.88,1.37,2.88,3.06,2.88Zm0-16.65c1.54,0,2.78-1.17,2.78-2.62s-1.24-2.62-2.78-2.62-2.78,1.17-2.78,2.62,1.25,2.62,2.78,2.62Zm0-16.65c1.38,0,2.5-1.06,2.5-2.36s-1.12-2.36-2.5-2.36-2.5,1.06-2.5,2.36,1.12,2.36,2.5,2.36Zm0-16.65c1.23,0,2.22-.94,2.22-2.1s-1-2.1-2.22-2.1-2.22.94-2.22,2.1,1,2.1,2.22,2.1Zm0-16.65c1.08,0,1.95-.82,1.95-1.84s-.87-1.84-1.95-1.84-1.95.82-1.95,1.84.87,1.84,1.95,1.84Zm0-16.65c.92,0,1.67-.7,1.67-1.57s-.75-1.57-1.67-1.57-1.67.7-1.67,1.57.75,1.57,1.67,1.57Zm0-16.65c.77,0,1.39-.59,1.39-1.31s-.62-1.31-1.39-1.31-1.39.59-1.39,1.31.62,1.31,1.39,1.31Zm0-16.65c.61,0,1.11-.47,1.11-1.05s-.5-1.05-1.11-1.05-1.11.47-1.11,1.05.5,1.05,1.11,1.05Zm0-16.65c.46,0,.83-.35.83-.79s-.37-.79-.83-.79-.83.35-.83.79.37.79.83.79Zm0-16.65c.31,0,.56-.23.56-.52s-.25-.52-.56-.52-.56.23-.56.52.25.52.56.52Zm0-16.65c.15,0,.28-.12.28-.26s-.12-.26-.28-.26-.28.12-.28.26.12.26.28.26Zm15.09,432.88c4.15,0,7.51-3.17,7.51-7.08s-3.36-7.08-7.51-7.08-7.51,3.17-7.51,7.08,3.36,7.08,7.51,7.08Zm0-16.65c3.99,0,7.23-3.05,7.23-6.82s-3.24-6.82-7.23-6.82-7.23,3.05-7.23,6.82,3.24,6.82,7.23,6.82Zm0-16.65c3.84,0,6.95-2.93,6.95-6.55s-3.11-6.55-6.95-6.55-6.95,2.93-6.95,6.55,3.11,6.55,6.95,6.55Zm0-16.65c3.69,0,6.67-2.82,6.67-6.29s-2.99-6.29-6.67-6.29-6.67,2.82-6.67,6.29,2.99,6.29,6.67,6.29Zm0-16.65c3.53,0,6.4-2.7,6.4-6.03s-2.86-6.03-6.4-6.03-6.4,2.7-6.4,6.03,2.86,6.03,6.4,6.03Zm0-16.65c3.38,0,6.12-2.58,6.12-5.77s-2.74-5.77-6.12-5.77-6.12,2.58-6.12,5.77,2.74,5.77,6.12,5.77Zm0-16.65c3.23,0,5.84-2.47,5.84-5.51s-2.61-5.51-5.84-5.51-5.84,2.47-5.84,5.51,2.61,5.51,5.84,5.51Zm0-16.65c3.07,0,5.56-2.35,5.56-5.24s-2.49-5.24-5.56-5.24-5.56,2.35-5.56,5.24,2.49,5.24,5.56,5.24Zm0-16.65c2.92,0,5.28-2.23,5.28-4.98s-2.37-4.98-5.28-4.98-5.28,2.23-5.28,4.98,2.37,4.98,5.28,4.98Zm0-16.65c2.76,0,5.01-2.11,5.01-4.72s-2.24-4.72-5.01-4.72-5.01,2.11-5.01,4.72,2.24,4.72,5.01,4.72Zm0-16.65c2.61,0,4.73-2,4.73-4.46s-2.12-4.46-4.73-4.46-4.73,2-4.73,4.46,2.12,4.46,4.73,4.46Zm0-16.65c2.46,0,4.45-1.88,4.45-4.2s-1.99-4.2-4.45-4.2-4.45,1.88-4.45,4.2,1.99,4.2,4.45,4.2Zm0-16.65c2.3,0,4.17-1.76,4.17-3.93s-1.87-3.93-4.17-3.93-4.17,1.76-4.17,3.93,1.87,3.93,4.17,3.93Zm0-16.65c2.15,0,3.89-1.64,3.89-3.67s-1.74-3.67-3.89-3.67-3.89,1.64-3.89,3.67,1.74,3.67,3.89,3.67Zm0-16.65c2,0,3.62-1.53,3.62-3.41s-1.62-3.41-3.62-3.41-3.62,1.53-3.62,3.41,1.62,3.41,3.62,3.41Zm0-16.65c1.84,0,3.34-1.41,3.34-3.15s-1.49-3.15-3.34-3.15-3.34,1.41-3.34,3.15,1.49,3.15,3.34,3.15Zm0-16.65c1.69,0,3.06-1.29,3.06-2.88s-1.37-2.88-3.06-2.88-3.06,1.29-3.06,2.88,1.37,2.88,3.06,2.88Zm0-16.65c1.54,0,2.78-1.17,2.78-2.62s-1.25-2.62-2.78-2.62-2.78,1.17-2.78,2.62,1.24,2.62,2.78,2.62Zm0-16.65c1.38,0,2.5-1.06,2.5-2.36s-1.12-2.36-2.5-2.36-2.5,1.06-2.5,2.36,1.12,2.36,2.5,2.36Zm0-16.65c1.23,0,2.22-.94,2.22-2.1s-1-2.1-2.22-2.1-2.22.94-2.22,2.1,1,2.1,2.22,2.1Zm0-16.65c1.08,0,1.95-.82,1.95-1.84s-.87-1.84-1.95-1.84-1.95.82-1.95,1.84.87,1.84,1.95,1.84Zm0-16.65c.92,0,1.67-.7,1.67-1.57s-.75-1.57-1.67-1.57-1.67.7-1.67,1.57.75,1.57,1.67,1.57Zm0-16.65c.77,0,1.39-.59,1.39-1.31s-.62-1.31-1.39-1.31-1.39.59-1.39,1.31.62,1.31,1.39,1.31Zm0-16.65c.61,0,1.11-.47,1.11-1.05s-.5-1.05-1.11-1.05-1.11.47-1.11,1.05.5,1.05,1.11,1.05Zm0-16.65c.46,0,.83-.35.83-.79s-.37-.79-.83-.79-.83.35-.83.79.37.79.83.79Zm0-16.65c.31,0,.56-.23.56-.52s-.25-.52-.56-.52-.56.23-.56.52.25.52.56.52Zm0-16.65c.15,0,.28-.12.28-.26s-.12-.26-.28-.26-.28.12-.28.26.12.26.28.26Zm15.09,432.88c4.15,0,7.51-3.17,7.51-7.08s-3.36-7.08-7.51-7.08-7.51,3.17-7.51,7.08,3.36,7.08,7.51,7.08Zm0-16.65c3.99,0,7.23-3.05,7.23-6.82s-3.24-6.82-7.23-6.82-7.23,3.05-7.23,6.82,3.24,6.82,7.23,6.82Zm0-16.65c3.84,0,6.95-2.93,6.95-6.55s-3.11-6.55-6.95-6.55-6.95,2.93-6.95,6.55,3.11,6.55,6.95,6.55Zm0-16.65c3.69,0,6.67-2.82,6.67-6.29s-2.99-6.29-6.67-6.29-6.67,2.82-6.67,6.29,2.99,6.29,6.67,6.29Zm0-16.65c3.53,0,6.4-2.7,6.4-6.03s-2.86-6.03-6.4-6.03-6.4,2.7-6.4,6.03,2.86,6.03,6.4,6.03Zm0-16.65c3.38,0,6.12-2.58,6.12-5.77s-2.74-5.77-6.12-5.77-6.12,2.58-6.12,5.77,2.74,5.77,6.12,5.77Zm0-16.65c3.23,0,5.84-2.47,5.84-5.51s-2.61-5.51-5.84-5.51-5.84,2.47-5.84,5.51,2.61,5.51,5.84,5.51Zm0-16.65c3.07,0,5.56-2.35,5.56-5.24s-2.49-5.24-5.56-5.24-5.56,2.35-5.56,5.24,2.49,5.24,5.56,5.24Zm0-16.65c2.92,0,5.28-2.23,5.28-4.98s-2.37-4.98-5.28-4.98-5.28,2.23-5.28,4.98,2.37,4.98,5.28,4.98Zm0-16.65c2.76,0,5.01-2.11,5.01-4.72s-2.24-4.72-5.01-4.72-5.01,2.11-5.01,4.72,2.24,4.72,5.01,4.72Zm0-16.65c2.61,0,4.73-2,4.73-4.46s-2.12-4.46-4.73-4.46-4.73,2-4.73,4.46,2.12,4.46,4.73,4.46Zm0-16.65c2.46,0,4.45-1.88,4.45-4.2s-1.99-4.2-4.45-4.2-4.45,1.88-4.45,4.2,1.99,4.2,4.45,4.2Zm0-16.65c2.3,0,4.17-1.76,4.17-3.93s-1.87-3.93-4.17-3.93-4.17,1.76-4.17,3.93,1.87,3.93,4.17,3.93Zm0-16.65c2.15,0,3.89-1.64,3.89-3.67s-1.74-3.67-3.89-3.67-3.89,1.64-3.89,3.67,1.74,3.67,3.89,3.67Zm0-16.65c2,0,3.62-1.53,3.62-3.41s-1.62-3.41-3.62-3.41-3.62,1.53-3.62,3.41,1.62,3.41,3.62,3.41Zm0-16.65c1.84,0,3.34-1.41,3.34-3.15s-1.49-3.15-3.34-3.15-3.34,1.41-3.34,3.15,1.49,3.15,3.34,3.15Zm0-16.65c1.69,0,3.06-1.29,3.06-2.88s-1.37-2.88-3.06-2.88-3.06,1.29-3.06,2.88,1.37,2.88,3.06,2.88Zm0-16.65c1.54,0,2.78-1.17,2.78-2.62s-1.25-2.62-2.78-2.62-2.78,1.17-2.78,2.62,1.25,2.62,2.78,2.62Zm0-16.65c1.38,0,2.5-1.06,2.5-2.36s-1.12-2.36-2.5-2.36-2.5,1.06-2.5,2.36,1.12,2.36,2.5,2.36Zm0-16.65c1.23,0,2.22-.94,2.22-2.1s-1-2.1-2.22-2.1-2.22.94-2.22,2.1,1,2.1,2.22,2.1Zm0-16.65c1.08,0,1.95-.82,1.95-1.84s-.87-1.84-1.95-1.84-1.95.82-1.95,1.84.87,1.84,1.95,1.84Zm0-16.65c.92,0,1.67-.7,1.67-1.57s-.75-1.57-1.67-1.57-1.67.7-1.67,1.57.75,1.57,1.67,1.57Zm0-16.65c.77,0,1.39-.59,1.39-1.31s-.62-1.31-1.39-1.31-1.39.59-1.39,1.31.62,1.31,1.39,1.31Zm0-16.65c.61,0,1.11-.47,1.11-1.05s-.5-1.05-1.11-1.05-1.11.47-1.11,1.05.5,1.05,1.11,1.05Zm0-16.65c.46,0,.83-.35.83-.79s-.37-.79-.83-.79-.83.35-.83.79.37.79.83.79Zm0-16.65c.31,0,.56-.23.56-.52s-.25-.52-.56-.52-.56.23-.56.52.25.52.56.52Zm0-16.65c.15,0,.28-.12.28-.26s-.12-.26-.28-.26-.28.12-.28.26.12.26.28.26Zm15.09,432.88c4.15,0,7.51-3.17,7.51-7.08s-3.36-7.08-7.51-7.08-7.51,3.17-7.51,7.08,3.36,7.08,7.51,7.08Zm0-16.65c3.99,0,7.23-3.05,7.23-6.82s-3.24-6.82-7.23-6.82-7.23,3.05-7.23,6.82,3.24,6.82,7.23,6.82Zm0-16.65c3.84,0,6.95-2.93,6.95-6.55s-3.11-6.55-6.95-6.55-6.95,2.93-6.95,6.55,3.11,6.55,6.95,6.55Zm0-16.65c3.69,0,6.67-2.82,6.67-6.29s-2.99-6.29-6.67-6.29-6.67,2.82-6.67,6.29,2.99,6.29,6.67,6.29Zm0-16.65c3.53,0,6.4-2.7,6.4-6.03s-2.86-6.03-6.4-6.03-6.4,2.7-6.4,6.03,2.86,6.03,6.4,6.03Zm0-16.65c3.38,0,6.12-2.58,6.12-5.77s-2.74-5.77-6.12-5.77-6.12,2.58-6.12,5.77,2.74,5.77,6.12,5.77Zm0-16.65c3.23,0,5.84-2.47,5.84-5.51s-2.61-5.51-5.84-5.51-5.84,2.47-5.84,5.51,2.61,5.51,5.84,5.51Zm0-16.65c3.07,0,5.56-2.35,5.56-5.24s-2.49-5.24-5.56-5.24-5.56,2.35-5.56,5.24,2.49,5.24,5.56,5.24Zm0-16.65c2.92,0,5.28-2.23,5.28-4.98s-2.37-4.98-5.28-4.98-5.28,2.23-5.28,4.98,2.37,4.98,5.28,4.98Zm0-16.65c2.76,0,5.01-2.11,5.01-4.72s-2.24-4.72-5.01-4.72-5.01,2.11-5.01,4.72,2.24,4.72,5.01,4.72Zm0-16.65c2.61,0,4.73-2,4.73-4.46s-2.12-4.46-4.73-4.46-4.73,2-4.73,4.46,2.12,4.46,4.73,4.46Zm0-16.65c2.46,0,4.45-1.88,4.45-4.2s-1.99-4.2-4.45-4.2-4.45,1.88-4.45,4.2,1.99,4.2,4.45,4.2Zm0-16.65c2.3,0,4.17-1.76,4.17-3.93s-1.87-3.93-4.17-3.93-4.17,1.76-4.17,3.93,1.87,3.93,4.17,3.93Zm0-16.65c2.15,0,3.89-1.64,3.89-3.67s-1.74-3.67-3.89-3.67-3.89,1.64-3.89,3.67,1.74,3.67,3.89,3.67Zm0-16.65c2,0,3.62-1.53,3.62-3.41s-1.62-3.41-3.62-3.41-3.62,1.53-3.62,3.41,1.62,3.41,3.62,3.41Zm0-16.65c1.84,0,3.34-1.41,3.34-3.15s-1.49-3.15-3.34-3.15-3.34,1.41-3.34,3.15,1.49,3.15,3.34,3.15Zm0-16.65c1.69,0,3.06-1.29,3.06-2.88s-1.37-2.88-3.06-2.88-3.06,1.29-3.06,2.88,1.37,2.88,3.06,2.88Zm0-16.65c1.54,0,2.78-1.17,2.78-2.62s-1.25-2.62-2.78-2.62-2.78,1.17-2.78,2.62,1.24,2.62,2.78,2.62Zm0-16.65c1.38,0,2.5-1.06,2.5-2.36s-1.12-2.36-2.5-2.36-2.5,1.06-2.5,2.36,1.12,2.36,2.5,2.36Zm0-16.65c1.23,0,2.22-.94,2.22-2.1s-1-2.1-2.22-2.1-2.22.94-2.22,2.1,1,2.1,2.22,2.1Zm0-16.65c1.08,0,1.95-.82,1.95-1.84s-.87-1.84-1.95-1.84-1.95.82-1.95,1.84.87,1.84,1.95,1.84Zm0-16.65c.92,0,1.67-.7,1.67-1.57s-.75-1.57-1.67-1.57-1.67.7-1.67,1.57.75,1.57,1.67,1.57Zm0-16.65c.77,0,1.39-.59,1.39-1.31s-.62-1.31-1.39-1.31-1.39.59-1.39,1.31.62,1.31,1.39,1.31Zm0-16.65c.61,0,1.11-.47,1.11-1.05s-.5-1.05-1.11-1.05-1.11.47-1.11,1.05.5,1.05,1.11,1.05Zm0-16.65c.46,0,.83-.35.83-.79s-.37-.79-.83-.79-.83.35-.83.79.37.79.83.79Zm0-16.65c.31,0,.56-.23.56-.52s-.25-.52-.56-.52-.56.23-.56.52.25.52.56.52Zm0-16.65c.15,0,.28-.12.28-.26s-.12-.26-.28-.26-.28.12-.28.26.12.26.28.26Zm15.09,432.88c4.15,0,7.51-3.17,7.51-7.08s-3.36-7.08-7.51-7.08-7.51,3.17-7.51,7.08,3.36,7.08,7.51,7.08Zm0-16.65c3.99,0,7.23-3.05,7.23-6.82s-3.24-6.82-7.23-6.82-7.23,3.05-7.23,6.82,3.24,6.82,7.23,6.82Zm0-16.65c3.84,0,6.95-2.93,6.95-6.55s-3.11-6.55-6.95-6.55-6.95,2.93-6.95,6.55,3.11,6.55,6.95,6.55Zm0-16.65c3.69,0,6.67-2.82,6.67-6.29s-2.99-6.29-6.67-6.29-6.67,2.82-6.67,6.29,2.99,6.29,6.67,6.29Zm0-16.65c3.53,0,6.4-2.7,6.4-6.03s-2.86-6.03-6.4-6.03-6.4,2.7-6.4,6.03,2.86,6.03,6.4,6.03Zm0-16.65c3.38,0,6.12-2.58,6.12-5.77s-2.74-5.77-6.12-5.77-6.12,2.58-6.12,5.77,2.74,5.77,6.12,5.77Zm0-16.65c3.23,0,5.84-2.47,5.84-5.51s-2.61-5.51-5.84-5.51-5.84,2.47-5.84,5.51,2.61,5.51,5.84,5.51Zm0-16.65c3.07,0,5.56-2.35,5.56-5.24s-2.49-5.24-5.56-5.24-5.56,2.35-5.56,5.24,2.49,5.24,5.56,5.24Zm0-16.65c2.92,0,5.28-2.23,5.28-4.98s-2.37-4.98-5.28-4.98-5.28,2.23-5.28,4.98,2.37,4.98,5.28,4.98Zm0-16.65c2.76,0,5.01-2.11,5.01-4.72s-2.24-4.72-5.01-4.72-5.01,2.11-5.01,4.72,2.24,4.72,5.01,4.72Zm0-16.65c2.61,0,4.73-2,4.73-4.46s-2.12-4.46-4.73-4.46-4.73,2-4.73,4.46,2.12,4.46,4.73,4.46Zm0-16.65c2.46,0,4.45-1.88,4.45-4.2s-1.99-4.2-4.45-4.2-4.45,1.88-4.45,4.2,1.99,4.2,4.45,4.2Zm0-16.65c2.3,0,4.17-1.76,4.17-3.93s-1.87-3.93-4.17-3.93-4.17,1.76-4.17,3.93,1.87,3.93,4.17,3.93Zm0-16.65c2.15,0,3.89-1.64,3.89-3.67s-1.74-3.67-3.89-3.67-3.89,1.64-3.89,3.67,1.74,3.67,3.89,3.67Zm0-16.65c2,0,3.62-1.53,3.62-3.41s-1.62-3.41-3.62-3.41-3.62,1.53-3.62,3.41,1.62,3.41,3.62,3.41Zm0-16.65c1.84,0,3.34-1.41,3.34-3.15s-1.49-3.15-3.34-3.15-3.34,1.41-3.34,3.15,1.49,3.15,3.34,3.15Zm0-16.65c1.69,0,3.06-1.29,3.06-2.88s-1.37-2.88-3.06-2.88-3.06,1.29-3.06,2.88,1.37,2.88,3.06,2.88Zm0-16.65c1.54,0,2.78-1.17,2.78-2.62s-1.25-2.62-2.78-2.62-2.78,1.17-2.78,2.62,1.25,2.62,2.78,2.62Zm0-16.65c1.38,0,2.5-1.06,2.5-2.36s-1.12-2.36-2.5-2.36-2.5,1.06-2.5,2.36,1.12,2.36,2.5,2.36Zm0-16.65c1.23,0,2.22-.94,2.22-2.1s-1-2.1-2.22-2.1-2.22.94-2.22,2.1,1,2.1,2.22,2.1Zm0-16.65c1.08,0,1.95-.82,1.95-1.84s-.87-1.84-1.95-1.84-1.95.82-1.95,1.84.87,1.84,1.95,1.84Zm0-16.65c.92,0,1.67-.7,1.67-1.57s-.75-1.57-1.67-1.57-1.67.7-1.67,1.57.75,1.57,1.67,1.57Zm0-16.65c.77,0,1.39-.59,1.39-1.31s-.62-1.31-1.39-1.31-1.39.59-1.39,1.31.62,1.31,1.39,1.31Zm0-16.65c.61,0,1.11-.47,1.11-1.05s-.5-1.05-1.11-1.05-1.11.47-1.11,1.05.5,1.05,1.11,1.05Zm0-16.65c.46,0,.83-.35.83-.79s-.37-.79-.83-.79-.83.35-.83.79.37.79.83.79Zm0-16.65c.31,0,.56-.23.56-.52s-.25-.52-.56-.52-.56.23-.56.52.25.52.56.52Zm0-16.65c.15,0,.28-.12.28-.26s-.12-.26-.28-.26-.28.12-.28.26.12.26.28.26Zm15.09,432.88c4.15,0,7.51-3.17,7.51-7.08s-3.36-7.08-7.51-7.08-7.51,3.17-7.51,7.08,3.36,7.08,7.51,7.08Zm0-16.65c3.99,0,7.23-3.05,7.23-6.82s-3.24-6.82-7.23-6.82-7.23,3.05-7.23,6.82,3.24,6.82,7.23,6.82Zm0-16.65c3.84,0,6.95-2.93,6.95-6.55s-3.11-6.55-6.95-6.55-6.95,2.93-6.95,6.55,3.11,6.55,6.95,6.55Zm0-16.65c3.69,0,6.67-2.82,6.67-6.29s-2.99-6.29-6.67-6.29-6.67,2.82-6.67,6.29,2.99,6.29,6.67,6.29Zm0-16.65c3.53,0,6.4-2.7,6.4-6.03s-2.86-6.03-6.4-6.03-6.4,2.7-6.4,6.03,2.86,6.03,6.4,6.03Zm0-16.65c3.38,0,6.12-2.58,6.12-5.77s-2.74-5.77-6.12-5.77-6.12,2.58-6.12,5.77,2.74,5.77,6.12,5.77Zm0-16.65c3.23,0,5.84-2.47,5.84-5.51s-2.61-5.51-5.84-5.51-5.84,2.47-5.84,5.51,2.61,5.51,5.84,5.51Zm0-16.65c3.07,0,5.56-2.35,5.56-5.24s-2.49-5.24-5.56-5.24-5.56,2.35-5.56,5.24,2.49,5.24,5.56,5.24Zm0-16.65c2.92,0,5.28-2.23,5.28-4.98s-2.37-4.98-5.28-4.98-5.28,2.23-5.28,4.98,2.37,4.98,5.28,4.98Zm0-16.65c2.76,0,5.01-2.11,5.01-4.72s-2.24-4.72-5.01-4.72-5.01,2.11-5.01,4.72,2.24,4.72,5.01,4.72Zm0-16.65c2.61,0,4.73-2,4.73-4.46s-2.12-4.46-4.73-4.46-4.73,2-4.73,4.46,2.12,4.46,4.73,4.46Zm0-16.65c2.46,0,4.45-1.88,4.45-4.2s-1.99-4.2-4.45-4.2-4.45,1.88-4.45,4.2,1.99,4.2,4.45,4.2Zm0-16.65c2.3,0,4.17-1.76,4.17-3.93s-1.87-3.93-4.17-3.93-4.17,1.76-4.17,3.93,1.87,3.93,4.17,3.93Zm0-16.65c2.15,0,3.89-1.64,3.89-3.67s-1.74-3.67-3.89-3.67-3.89,1.64-3.89,3.67,1.74,3.67,3.89,3.67Zm0-16.65c2,0,3.62-1.53,3.62-3.41s-1.62-3.41-3.62-3.41-3.62,1.53-3.62,3.41,1.62,3.41,3.62,3.41Zm0-16.65c1.84,0,3.34-1.41,3.34-3.15s-1.49-3.15-3.34-3.15-3.34,1.41-3.34,3.15,1.49,3.15,3.34,3.15Zm0-16.65c1.69,0,3.06-1.29,3.06-2.88s-1.37-2.88-3.06-2.88-3.06,1.29-3.06,2.88,1.37,2.88,3.06,2.88Zm0-16.65c1.54,0,2.78-1.17,2.78-2.62s-1.24-2.62-2.78-2.62-2.78,1.17-2.78,2.62,1.25,2.62,2.78,2.62Zm0-16.65c1.38,0,2.5-1.06,2.5-2.36s-1.12-2.36-2.5-2.36-2.5,1.06-2.5,2.36,1.12,2.36,2.5,2.36Zm0-16.65c1.23,0,2.22-.94,2.22-2.1s-1-2.1-2.22-2.1-2.22.94-2.22,2.1,1,2.1,2.22,2.1Zm0-16.65c1.08,0,1.95-.82,1.95-1.84s-.87-1.84-1.95-1.84-1.95.82-1.95,1.84.87,1.84,1.95,1.84Zm0-16.65c.92,0,1.67-.7,1.67-1.57s-.75-1.57-1.67-1.57-1.67.7-1.67,1.57.75,1.57,1.67,1.57Zm0-16.65c.77,0,1.39-.59,1.39-1.31s-.62-1.31-1.39-1.31-1.39.59-1.39,1.31.62,1.31,1.39,1.31Zm0-16.65c.61,0,1.11-.47,1.11-1.05s-.5-1.05-1.11-1.05-1.11.47-1.11,1.05.5,1.05,1.11,1.05Zm0-16.65c.46,0,.83-.35.83-.79s-.37-.79-.83-.79-.83.35-.83.79.37.79.83.79Zm0-16.65c.31,0,.56-.23.56-.52s-.25-.52-.56-.52-.56.23-.56.52.25.52.56.52Zm0-16.65c.15,0,.28-.12.28-.26s-.12-.26-.28-.26-.28.12-.28.26.12.26.28.26Zm15.09,432.88c4.15,0,7.51-3.17,7.51-7.08s-3.36-7.08-7.51-7.08-7.51,3.17-7.51,7.08,3.36,7.08,7.51,7.08Zm0-16.65c3.99,0,7.23-3.05,7.23-6.82s-3.24-6.82-7.23-6.82-7.23,3.05-7.23,6.82,3.24,6.82,7.23,6.82Zm0-16.65c3.84,0,6.95-2.93,6.95-6.55s-3.11-6.55-6.95-6.55-6.95,2.93-6.95,6.55,3.11,6.55,6.95,6.55Zm0-16.65c3.69,0,6.67-2.82,6.67-6.29s-2.99-6.29-6.67-6.29-6.67,2.82-6.67,6.29,2.99,6.29,6.67,6.29Zm0-16.65c3.53,0,6.4-2.7,6.4-6.03s-2.86-6.03-6.4-6.03-6.4,2.7-6.4,6.03,2.86,6.03,6.4,6.03Zm0-16.65c3.38,0,6.12-2.58,6.12-5.77s-2.74-5.77-6.12-5.77-6.12,2.58-6.12,5.77,2.74,5.77,6.12,5.77Zm0-16.65c3.23,0,5.84-2.47,5.84-5.51s-2.61-5.51-5.84-5.51-5.84,2.47-5.84,5.51,2.61,5.51,5.84,5.51Zm0-16.65c3.07,0,5.56-2.35,5.56-5.24s-2.49-5.24-5.56-5.24-5.56,2.35-5.56,5.24,2.49,5.24,5.56,5.24Zm0-16.65c2.92,0,5.28-2.23,5.28-4.98s-2.37-4.98-5.28-4.98-5.28,2.23-5.28,4.98,2.37,4.98,5.28,4.98Zm0-16.65c2.76,0,5.01-2.11,5.01-4.72s-2.24-4.72-5.01-4.72-5.01,2.11-5.01,4.72,2.24,4.72,5.01,4.72Zm0-16.65c2.61,0,4.73-2,4.73-4.46s-2.12-4.46-4.73-4.46-4.73,2-4.73,4.46,2.12,4.46,4.73,4.46Zm0-16.65c2.46,0,4.45-1.88,4.45-4.2s-1.99-4.2-4.45-4.2-4.45,1.88-4.45,4.2,1.99,4.2,4.45,4.2Zm0-16.65c2.3,0,4.17-1.76,4.17-3.93s-1.87-3.93-4.17-3.93-4.17,1.76-4.17,3.93,1.87,3.93,4.17,3.93Zm0-16.65c2.15,0,3.89-1.64,3.89-3.67s-1.74-3.67-3.89-3.67-3.89,1.64-3.89,3.67,1.74,3.67,3.89,3.67Zm0-16.65c2,0,3.62-1.53,3.62-3.41s-1.62-3.41-3.62-3.41-3.62,1.53-3.62,3.41,1.62,3.41,3.62,3.41Zm0-16.65c1.84,0,3.34-1.41,3.34-3.15s-1.49-3.15-3.34-3.15-3.34,1.41-3.34,3.15,1.49,3.15,3.34,3.15Zm0-16.65c1.69,0,3.06-1.29,3.06-2.88s-1.37-2.88-3.06-2.88-3.06,1.29-3.06,2.88,1.37,2.88,3.06,2.88Zm0-16.65c1.54,0,2.78-1.17,2.78-2.62s-1.25-2.62-2.78-2.62-2.78,1.17-2.78,2.62,1.25,2.62,2.78,2.62Zm0-16.65c1.38,0,2.5-1.06,2.5-2.36s-1.12-2.36-2.5-2.36-2.5,1.06-2.5,2.36,1.12,2.36,2.5,2.36Zm0-16.65c1.23,0,2.22-.94,2.22-2.1s-1-2.1-2.22-2.1-2.22.94-2.22,2.1,1,2.1,2.22,2.1Zm0-16.65c1.08,0,1.95-.82,1.95-1.84s-.87-1.84-1.95-1.84-1.95.82-1.95,1.84.87,1.84,1.95,1.84Zm0-16.65c.92,0,1.67-.7,1.67-1.57s-.75-1.57-1.67-1.57-1.67.7-1.67,1.57.75,1.57,1.67,1.57Zm0-16.65c.77,0,1.39-.59,1.39-1.31s-.62-1.31-1.39-1.31-1.39.59-1.39,1.31.62,1.31,1.39,1.31Zm0-16.65c.61,0,1.11-.47,1.11-1.05s-.5-1.05-1.11-1.05-1.11.47-1.11,1.05.5,1.05,1.11,1.05Zm0-16.65c.46,0,.83-.35.83-.79s-.37-.79-.83-.79-.83.35-.83.79.37.79.83.79Zm0-16.65c.31,0,.56-.23.56-.52s-.25-.52-.56-.52-.56.23-.56.52.25.52.56.52Zm0-16.65c.15,0,.28-.12.28-.26s-.12-.26-.28-.26-.28.12-.28.26.12.26.28.26Zm15.09,432.88c4.15,0,7.51-3.17,7.51-7.08s-3.36-7.08-7.51-7.08-7.51,3.17-7.51,7.08,3.36,7.08,7.51,7.08Zm0-16.65c3.99,0,7.23-3.05,7.23-6.82s-3.24-6.82-7.23-6.82-7.23,3.05-7.23,6.82,3.24,6.82,7.23,6.82Zm0-16.65c3.84,0,6.95-2.93,6.95-6.55s-3.11-6.55-6.95-6.55-6.95,2.93-6.95,6.55,3.11,6.55,6.95,6.55Zm0-16.65c3.69,0,6.67-2.82,6.67-6.29s-2.99-6.29-6.67-6.29-6.67,2.82-6.67,6.29,2.99,6.29,6.67,6.29Zm0-16.65c3.53,0,6.4-2.7,6.4-6.03s-2.86-6.03-6.4-6.03-6.4,2.7-6.4,6.03,2.86,6.03,6.4,6.03Zm0-16.65c3.38,0,6.12-2.58,6.12-5.77s-2.74-5.77-6.12-5.77-6.12,2.58-6.12,5.77,2.74,5.77,6.12,5.77Zm0-16.65c3.23,0,5.84-2.47,5.84-5.51s-2.61-5.51-5.84-5.51-5.84,2.47-5.84,5.51,2.61,5.51,5.84,5.51Zm0-16.65c3.07,0,5.56-2.35,5.56-5.24s-2.49-5.24-5.56-5.24-5.56,2.35-5.56,5.24,2.49,5.24,5.56,5.24Zm0-16.65c2.92,0,5.28-2.23,5.28-4.98s-2.37-4.98-5.28-4.98-5.28,2.23-5.28,4.98,2.37,4.98,5.28,4.98Zm0-16.65c2.76,0,5.01-2.11,5.01-4.72s-2.24-4.72-5.01-4.72-5.01,2.11-5.01,4.72,2.24,4.72,5.01,4.72Zm0-16.65c2.61,0,4.73-2,4.73-4.46s-2.12-4.46-4.73-4.46-4.73,2-4.73,4.46,2.12,4.46,4.73,4.46Zm0-16.65c2.46,0,4.45-1.88,4.45-4.2s-1.99-4.2-4.45-4.2-4.45,1.88-4.45,4.2,1.99,4.2,4.45,4.2Zm0-16.65c2.3,0,4.17-1.76,4.17-3.93s-1.87-3.93-4.17-3.93-4.17,1.76-4.17,3.93,1.87,3.93,4.17,3.93Zm0-16.65c2.15,0,3.89-1.64,3.89-3.67s-1.74-3.67-3.89-3.67-3.89,1.64-3.89,3.67,1.74,3.67,3.89,3.67Zm0-16.65c2,0,3.62-1.53,3.62-3.41s-1.62-3.41-3.62-3.41-3.62,1.53-3.62,3.41,1.62,3.41,3.62,3.41Zm0-16.65c1.84,0,3.34-1.41,3.34-3.15s-1.49-3.15-3.34-3.15-3.34,1.41-3.34,3.15,1.49,3.15,3.34,3.15Zm0-16.65c1.69,0,3.06-1.29,3.06-2.88s-1.37-2.88-3.06-2.88-3.06,1.29-3.06,2.88,1.37,2.88,3.06,2.88Zm0-16.65c1.54,0,2.78-1.17,2.78-2.62s-1.25-2.62-2.78-2.62-2.78,1.17-2.78,2.62,1.25,2.62,2.78,2.62Zm0-16.65c1.38,0,2.5-1.06,2.5-2.36s-1.12-2.36-2.5-2.36-2.5,1.06-2.5,2.36,1.12,2.36,2.5,2.36Zm0-16.65c1.23,0,2.22-.94,2.22-2.1s-1-2.1-2.22-2.1-2.22.94-2.22,2.1,1,2.1,2.22,2.1Zm0-16.65c1.08,0,1.95-.82,1.95-1.84s-.87-1.84-1.95-1.84-1.95.82-1.95,1.84.87,1.84,1.95,1.84Zm0-16.65c.92,0,1.67-.7,1.67-1.57s-.75-1.57-1.67-1.57-1.67.7-1.67,1.57.75,1.57,1.67,1.57Zm0-16.65c.77,0,1.39-.59,1.39-1.31s-.62-1.31-1.39-1.31-1.39.59-1.39,1.31.62,1.31,1.39,1.31Zm0-16.65c.61,0,1.11-.47,1.11-1.05s-.5-1.05-1.11-1.05-1.11.47-1.11,1.05.5,1.05,1.11,1.05Zm0-16.65c.46,0,.83-.35.83-.79s-.37-.79-.83-.79-.83.35-.83.79.37.79.83.79Zm0-16.65c.31,0,.56-.23.56-.52s-.25-.52-.56-.52-.56.23-.56.52.25.52.56.52Zm0-16.65c.15,0,.28-.12.28-.26s-.12-.26-.28-.26-.28.12-.28.26.12.26.28.26Zm15.09,432.88c4.15,0,7.51-3.17,7.51-7.08s-3.36-7.08-7.51-7.08-7.51,3.17-7.51,7.08,3.36,7.08,7.51,7.08Zm0-16.65c3.99,0,7.23-3.05,7.23-6.82s-3.24-6.82-7.23-6.82-7.23,3.05-7.23,6.82,3.24,6.82,7.23,6.82Zm0-16.65c3.84,0,6.95-2.93,6.95-6.55s-3.11-6.55-6.95-6.55-6.95,2.93-6.95,6.55,3.11,6.55,6.95,6.55Zm0-16.65c3.69,0,6.67-2.82,6.67-6.29s-2.99-6.29-6.67-6.29-6.67,2.82-6.67,6.29,2.99,6.29,6.67,6.29Zm0-16.65c3.53,0,6.4-2.7,6.4-6.03s-2.86-6.03-6.4-6.03-6.4,2.7-6.4,6.03,2.86,6.03,6.4,6.03Zm0-16.65c3.38,0,6.12-2.58,6.12-5.77s-2.74-5.77-6.12-5.77-6.12,2.58-6.12,5.77,2.74,5.77,6.12,5.77Zm0-16.65c3.23,0,5.84-2.47,5.84-5.51s-2.61-5.51-5.84-5.51-5.84,2.47-5.84,5.51,2.61,5.51,5.84,5.51Zm0-16.65c3.07,0,5.56-2.35,5.56-5.24s-2.49-5.24-5.56-5.24-5.56,2.35-5.56,5.24,2.49,5.24,5.56,5.24Zm0-16.65c2.92,0,5.28-2.23,5.28-4.98s-2.37-4.98-5.28-4.98-5.28,2.23-5.28,4.98,2.37,4.98,5.28,4.98Zm0-16.65c2.76,0,5.01-2.11,5.01-4.72s-2.24-4.72-5.01-4.72-5.01,2.11-5.01,4.72,2.24,4.72,5.01,4.72Zm0-16.65c2.61,0,4.73-2,4.73-4.46s-2.12-4.46-4.73-4.46-4.73,2-4.73,4.46,2.12,4.46,4.73,4.46Zm0-16.65c2.46,0,4.45-1.88,4.45-4.2s-1.99-4.2-4.45-4.2-4.45,1.88-4.45,4.2,1.99,4.2,4.45,4.2Zm0-16.65c2.3,0,4.17-1.76,4.17-3.93s-1.87-3.93-4.17-3.93-4.17,1.76-4.17,3.93,1.87,3.93,4.17,3.93Zm0-16.65c2.15,0,3.89-1.64,3.89-3.67s-1.74-3.67-3.89-3.67-3.89,1.64-3.89,3.67,1.74,3.67,3.89,3.67Zm0-16.65c2,0,3.62-1.53,3.62-3.41s-1.62-3.41-3.62-3.41-3.62,1.53-3.62,3.41,1.62,3.41,3.62,3.41Zm0-16.65c1.84,0,3.34-1.41,3.34-3.15s-1.49-3.15-3.34-3.15-3.34,1.41-3.34,3.15,1.49,3.15,3.34,3.15Zm0-16.65c1.69,0,3.06-1.29,3.06-2.88s-1.37-2.88-3.06-2.88-3.06,1.29-3.06,2.88,1.37,2.88,3.06,2.88Zm0-16.65c1.54,0,2.78-1.17,2.78-2.62s-1.25-2.62-2.78-2.62-2.78,1.17-2.78,2.62,1.24,2.62,2.78,2.62Zm0-16.65c1.38,0,2.5-1.06,2.5-2.36s-1.12-2.36-2.5-2.36-2.5,1.06-2.5,2.36,1.12,2.36,2.5,2.36Zm0-16.65c1.23,0,2.22-.94,2.22-2.1s-1-2.1-2.22-2.1-2.22.94-2.22,2.1,1,2.1,2.22,2.1Zm0-16.65c1.08,0,1.95-.82,1.95-1.84s-.87-1.84-1.95-1.84-1.95.82-1.95,1.84.87,1.84,1.95,1.84Zm0-16.65c.92,0,1.67-.7,1.67-1.57s-.75-1.57-1.67-1.57-1.67.7-1.67,1.57.75,1.57,1.67,1.57Zm0-16.65c.77,0,1.39-.59,1.39-1.31s-.62-1.31-1.39-1.31-1.39.59-1.39,1.31.62,1.31,1.39,1.31Zm0-16.65c.61,0,1.11-.47,1.11-1.05s-.5-1.05-1.11-1.05-1.11.47-1.11,1.05.5,1.05,1.11,1.05Zm0-16.65c.46,0,.83-.35.83-.79s-.37-.79-.83-.79-.83.35-.83.79.37.79.83.79Zm0-16.65c.31,0,.56-.23.56-.52s-.25-.52-.56-.52-.56.23-.56.52.25.52.56.52Zm0-16.65c.15,0,.28-.12.28-.26s-.12-.26-.28-.26-.28.12-.28.26.12.26.28.26Zm15.09,432.88c4.15,0,7.51-3.17,7.51-7.08s-3.36-7.08-7.51-7.08-7.51,3.17-7.51,7.08,3.36,7.08,7.51,7.08Zm0-16.65c3.99,0,7.23-3.05,7.23-6.82s-3.24-6.82-7.23-6.82-7.23,3.05-7.23,6.82,3.24,6.82,7.23,6.82Zm0-16.65c3.84,0,6.95-2.93,6.95-6.55s-3.11-6.55-6.95-6.55-6.95,2.93-6.95,6.55,3.11,6.55,6.95,6.55Zm0-16.65c3.69,0,6.67-2.82,6.67-6.29s-2.99-6.29-6.67-6.29-6.67,2.82-6.67,6.29,2.99,6.29,6.67,6.29Zm0-16.65c3.53,0,6.4-2.7,6.4-6.03s-2.86-6.03-6.4-6.03-6.4,2.7-6.4,6.03,2.86,6.03,6.4,6.03Zm0-16.65c3.38,0,6.12-2.58,6.12-5.77s-2.74-5.77-6.12-5.77-6.12,2.58-6.12,5.77,2.74,5.77,6.12,5.77Zm0-16.65c3.23,0,5.84-2.47,5.84-5.51s-2.61-5.51-5.84-5.51-5.84,2.47-5.84,5.51,2.61,5.51,5.84,5.51Zm0-16.65c3.07,0,5.56-2.35,5.56-5.24s-2.49-5.24-5.56-5.24-5.56,2.35-5.56,5.24,2.49,5.24,5.56,5.24Zm0-16.65c2.92,0,5.28-2.23,5.28-4.98s-2.37-4.98-5.28-4.98-5.28,2.23-5.28,4.98,2.37,4.98,5.28,4.98Zm0-16.65c2.76,0,5.01-2.11,5.01-4.72s-2.24-4.72-5.01-4.72-5.01,2.11-5.01,4.72,2.24,4.72,5.01,4.72Zm0-16.65c2.61,0,4.73-2,4.73-4.46s-2.12-4.46-4.73-4.46-4.73,2-4.73,4.46,2.12,4.46,4.73,4.46Zm0-16.65c2.46,0,4.45-1.88,4.45-4.2s-1.99-4.2-4.45-4.2-4.45,1.88-4.45,4.2,1.99,4.2,4.45,4.2Zm0-16.65c2.3,0,4.17-1.76,4.17-3.93s-1.87-3.93-4.17-3.93-4.17,1.76-4.17,3.93,1.87,3.93,4.17,3.93Zm0-16.65c2.15,0,3.89-1.64,3.89-3.67s-1.74-3.67-3.89-3.67-3.89,1.64-3.89,3.67,1.74,3.67,3.89,3.67Zm0-16.65c2,0,3.62-1.53,3.62-3.41s-1.62-3.41-3.62-3.41-3.62,1.53-3.62,3.41,1.62,3.41,3.62,3.41Zm0-16.65c1.84,0,3.34-1.41,3.34-3.15s-1.49-3.15-3.34-3.15-3.34,1.41-3.34,3.15,1.49,3.15,3.34,3.15Zm0-16.65c1.69,0,3.06-1.29,3.06-2.88s-1.37-2.88-3.06-2.88-3.06,1.29-3.06,2.88,1.37,2.88,3.06,2.88Zm0-16.65c1.54,0,2.78-1.17,2.78-2.62s-1.25-2.62-2.78-2.62-2.78,1.17-2.78,2.62,1.25,2.62,2.78,2.62Zm0-16.65c1.38,0,2.5-1.06,2.5-2.36s-1.12-2.36-2.5-2.36-2.5,1.06-2.5,2.36,1.12,2.36,2.5,2.36Zm0-16.65c1.23,0,2.22-.94,2.22-2.1s-1-2.1-2.22-2.1-2.22.94-2.22,2.1,1,2.1,2.22,2.1Zm0-16.65c1.08,0,1.95-.82,1.95-1.84s-.87-1.84-1.95-1.84-1.95.82-1.95,1.84.87,1.84,1.95,1.84Zm0-16.65c.92,0,1.67-.7,1.67-1.57s-.75-1.57-1.67-1.57-1.67.7-1.67,1.57.75,1.57,1.67,1.57Zm0-16.65c.77,0,1.39-.59,1.39-1.31s-.62-1.31-1.39-1.31-1.39.59-1.39,1.31.62,1.31,1.39,1.31Zm0-16.65c.61,0,1.11-.47,1.11-1.05s-.5-1.05-1.11-1.05-1.11.47-1.11,1.05.5,1.05,1.11,1.05Zm0-16.65c.46,0,.83-.35.83-.79s-.37-.79-.83-.79-.83.35-.83.79.37.79.83.79Zm0-16.65c.31,0,.56-.23.56-.52s-.25-.52-.56-.52-.56.23-.56.52.25.52.56.52Zm0-16.65c.15,0,.28-.12.28-.26s-.12-.26-.28-.26-.28.12-.28.26.12.26.28.26Zm15.09,432.88c4.15,0,7.51-3.17,7.51-7.08s-3.36-7.08-7.51-7.08-7.51,3.17-7.51,7.08,3.36,7.08,7.51,7.08Zm0-16.65c3.99,0,7.23-3.05,7.23-6.82s-3.24-6.82-7.23-6.82-7.23,3.05-7.23,6.82,3.24,6.82,7.23,6.82Zm0-16.65c3.84,0,6.95-2.93,6.95-6.55s-3.11-6.55-6.95-6.55-6.95,2.93-6.95,6.55,3.11,6.55,6.95,6.55Zm0-16.65c3.69,0,6.67-2.82,6.67-6.29s-2.99-6.29-6.67-6.29-6.67,2.82-6.67,6.29,2.99,6.29,6.67,6.29Zm0-16.65c3.53,0,6.4-2.7,6.4-6.03s-2.86-6.03-6.4-6.03-6.4,2.7-6.4,6.03,2.86,6.03,6.4,6.03Zm0-16.65c3.38,0,6.12-2.58,6.12-5.77s-2.74-5.77-6.12-5.77-6.12,2.58-6.12,5.77,2.74,5.77,6.12,5.77Zm0-16.65c3.23,0,5.84-2.47,5.84-5.51s-2.61-5.51-5.84-5.51-5.84,2.47-5.84,5.51,2.61,5.51,5.84,5.51Zm0-16.65c3.07,0,5.56-2.35,5.56-5.24s-2.49-5.24-5.56-5.24-5.56,2.35-5.56,5.24,2.49,5.24,5.56,5.24Zm0-16.65c2.92,0,5.28-2.23,5.28-4.98s-2.37-4.98-5.28-4.98-5.28,2.23-5.28,4.98,2.37,4.98,5.28,4.98Zm0-16.65c2.76,0,5.01-2.11,5.01-4.72s-2.24-4.72-5.01-4.72-5.01,2.11-5.01,4.72,2.24,4.72,5.01,4.72Zm0-16.65c2.61,0,4.73-2,4.73-4.46s-2.12-4.46-4.73-4.46-4.73,2-4.73,4.46,2.12,4.46,4.73,4.46Zm0-16.65c2.46,0,4.45-1.88,4.45-4.2s-1.99-4.2-4.45-4.2-4.45,1.88-4.45,4.2,1.99,4.2,4.45,4.2Zm0-16.65c2.3,0,4.17-1.76,4.17-3.93s-1.87-3.93-4.17-3.93-4.17,1.76-4.17,3.93,1.87,3.93,4.17,3.93Zm0-16.65c2.15,0,3.89-1.64,3.89-3.67s-1.74-3.67-3.89-3.67-3.89,1.64-3.89,3.67,1.74,3.67,3.89,3.67Zm0-16.65c2,0,3.62-1.53,3.62-3.41s-1.62-3.41-3.62-3.41-3.62,1.53-3.62,3.41,1.62,3.41,3.62,3.41Zm0-16.65c1.84,0,3.34-1.41,3.34-3.15s-1.49-3.15-3.34-3.15-3.34,1.41-3.34,3.15,1.49,3.15,3.34,3.15Zm0-16.65c1.69,0,3.06-1.29,3.06-2.88s-1.37-2.88-3.06-2.88-3.06,1.29-3.06,2.88,1.37,2.88,3.06,2.88Zm0-16.65c1.54,0,2.78-1.17,2.78-2.62s-1.24-2.62-2.78-2.62-2.78,1.17-2.78,2.62,1.24,2.62,2.78,2.62Zm0-16.65c1.38,0,2.5-1.06,2.5-2.36s-1.12-2.36-2.5-2.36-2.5,1.06-2.5,2.36,1.12,2.36,2.5,2.36Zm0-16.65c1.23,0,2.22-.94,2.22-2.1s-1-2.1-2.22-2.1-2.22.94-2.22,2.1,1,2.1,2.22,2.1Zm0-16.65c1.08,0,1.95-.82,1.95-1.84s-.87-1.84-1.95-1.84-1.95.82-1.95,1.84.87,1.84,1.95,1.84Zm0-16.65c.92,0,1.67-.7,1.67-1.57s-.75-1.57-1.67-1.57-1.67.7-1.67,1.57.75,1.57,1.67,1.57Zm0-16.65c.77,0,1.39-.59,1.39-1.31s-.62-1.31-1.39-1.31-1.39.59-1.39,1.31.62,1.31,1.39,1.31Zm0-16.65c.61,0,1.11-.47,1.11-1.05s-.5-1.05-1.11-1.05-1.11.47-1.11,1.05.5,1.05,1.11,1.05Zm0-16.65c.46,0,.83-.35.83-.79s-.37-.79-.83-.79-.83.35-.83.79.37.79.83.79Zm0-16.65c.31,0,.56-.23.56-.52s-.25-.52-.56-.52-.56.23-.56.52.25.52.56.52Zm0-16.65c.15,0,.28-.12.28-.26s-.12-.26-.28-.26-.28.12-.28.26.12.26.28.26Zm15.09,432.88c4.15,0,7.51-3.17,7.51-7.08s-3.36-7.08-7.51-7.08-7.51,3.17-7.51,7.08,3.36,7.08,7.51,7.08Zm0-16.65c3.99,0,7.23-3.05,7.23-6.82s-3.24-6.82-7.23-6.82-7.23,3.05-7.23,6.82,3.24,6.82,7.23,6.82Zm0-16.65c3.84,0,6.95-2.93,6.95-6.55s-3.11-6.55-6.95-6.55-6.95,2.93-6.95,6.55,3.11,6.55,6.95,6.55Zm0-16.65c3.69,0,6.67-2.82,6.67-6.29s-2.99-6.29-6.67-6.29-6.67,2.82-6.67,6.29,2.99,6.29,6.67,6.29Zm0-16.65c3.53,0,6.4-2.7,6.4-6.03s-2.86-6.03-6.4-6.03-6.4,2.7-6.4,6.03,2.86,6.03,6.4,6.03Zm0-16.65c3.38,0,6.12-2.58,6.12-5.77s-2.74-5.77-6.12-5.77-6.12,2.58-6.12,5.77,2.74,5.77,6.12,5.77Zm0-16.65c3.23,0,5.84-2.47,5.84-5.51s-2.61-5.51-5.84-5.51-5.84,2.47-5.84,5.51,2.61,5.51,5.84,5.51Zm0-16.65c3.07,0,5.56-2.35,5.56-5.24s-2.49-5.24-5.56-5.24-5.56,2.35-5.56,5.24,2.49,5.24,5.56,5.24Zm0-16.65c2.92,0,5.28-2.23,5.28-4.98s-2.37-4.98-5.28-4.98-5.28,2.23-5.28,4.98,2.37,4.98,5.28,4.98Zm0-16.65c2.76,0,5.01-2.11,5.01-4.72s-2.24-4.72-5.01-4.72-5.01,2.11-5.01,4.72,2.24,4.72,5.01,4.72Zm0-16.65c2.61,0,4.73-2,4.73-4.46s-2.12-4.46-4.73-4.46-4.73,2-4.73,4.46,2.12,4.46,4.73,4.46Zm0-16.65c2.46,0,4.45-1.88,4.45-4.2s-1.99-4.2-4.45-4.2-4.45,1.88-4.45,4.2,1.99,4.2,4.45,4.2Zm0-16.65c2.3,0,4.17-1.76,4.17-3.93s-1.87-3.93-4.17-3.93-4.17,1.76-4.17,3.93,1.87,3.93,4.17,3.93Zm0-16.65c2.15,0,3.89-1.64,3.89-3.67s-1.74-3.67-3.89-3.67-3.89,1.64-3.89,3.67,1.74,3.67,3.89,3.67Zm0-16.65c2,0,3.62-1.53,3.62-3.41s-1.62-3.41-3.62-3.41-3.62,1.53-3.62,3.41,1.62,3.41,3.62,3.41Zm0-16.65c1.84,0,3.34-1.41,3.34-3.15s-1.49-3.15-3.34-3.15-3.34,1.41-3.34,3.15,1.49,3.15,3.34,3.15Zm0-16.65c1.69,0,3.06-1.29,3.06-2.88s-1.37-2.88-3.06-2.88-3.06,1.29-3.06,2.88,1.37,2.88,3.06,2.88Zm0-16.65c1.54,0,2.78-1.17,2.78-2.62s-1.25-2.62-2.78-2.62-2.78,1.17-2.78,2.62,1.25,2.62,2.78,2.62Zm0-16.65c1.38,0,2.5-1.06,2.5-2.36s-1.12-2.36-2.5-2.36-2.5,1.06-2.5,2.36,1.12,2.36,2.5,2.36Zm0-16.65c1.23,0,2.22-.94,2.22-2.1s-1-2.1-2.22-2.1-2.22.94-2.22,2.1,1,2.1,2.22,2.1Zm0-16.65c1.08,0,1.95-.82,1.95-1.84s-.87-1.84-1.95-1.84-1.95.82-1.95,1.84.87,1.84,1.95,1.84Zm0-16.65c.92,0,1.67-.7,1.67-1.57s-.75-1.57-1.67-1.57-1.67.7-1.67,1.57.75,1.57,1.67,1.57Zm0-16.65c.77,0,1.39-.59,1.39-1.31s-.62-1.31-1.39-1.31-1.39.59-1.39,1.31.62,1.31,1.39,1.31Zm0-16.65c.61,0,1.11-.47,1.11-1.05s-.5-1.05-1.11-1.05-1.11.47-1.11,1.05.5,1.05,1.11,1.05Zm0-16.65c.46,0,.83-.35.83-.79s-.37-.79-.83-.79-.83.35-.83.79.37.79.83.79Zm0-16.65c.31,0,.56-.23.56-.52s-.25-.52-.56-.52-.56.23-.56.52.25.52.56.52Zm0-16.65c.15,0,.28-.12.28-.26s-.12-.26-.28-.26-.28.12-.28.26.12.26.28.26Zm15.09,432.88c4.15,0,7.51-3.17,7.51-7.08s-3.36-7.08-7.51-7.08-7.51,3.17-7.51,7.08,3.36,7.08,7.51,7.08Zm0-16.65c3.99,0,7.23-3.05,7.23-6.82s-3.24-6.82-7.23-6.82-7.23,3.05-7.23,6.82,3.24,6.82,7.23,6.82Zm0-16.65c3.84,0,6.95-2.93,6.95-6.55s-3.11-6.55-6.95-6.55-6.95,2.93-6.95,6.55,3.11,6.55,6.95,6.55Zm0-16.65c3.69,0,6.67-2.82,6.67-6.29s-2.99-6.29-6.67-6.29-6.67,2.82-6.67,6.29,2.99,6.29,6.67,6.29Zm0-16.65c3.53,0,6.4-2.7,6.4-6.03s-2.86-6.03-6.4-6.03-6.4,2.7-6.4,6.03,2.86,6.03,6.4,6.03Zm0-16.65c3.38,0,6.12-2.58,6.12-5.77s-2.74-5.77-6.12-5.77-6.12,2.58-6.12,5.77,2.74,5.77,6.12,5.77Zm0-16.65c3.23,0,5.84-2.47,5.84-5.51s-2.61-5.51-5.84-5.51-5.84,2.47-5.84,5.51,2.61,5.51,5.84,5.51Zm0-16.65c3.07,0,5.56-2.35,5.56-5.24s-2.49-5.24-5.56-5.24-5.56,2.35-5.56,5.24,2.49,5.24,5.56,5.24Zm0-16.65c2.92,0,5.28-2.23,5.28-4.98s-2.37-4.98-5.28-4.98-5.28,2.23-5.28,4.98,2.37,4.98,5.28,4.98Zm0-16.65c2.76,0,5.01-2.11,5.01-4.72s-2.24-4.72-5.01-4.72-5.01,2.11-5.01,4.72,2.24,4.72,5.01,4.72Zm0-16.65c2.61,0,4.73-2,4.73-4.46s-2.12-4.46-4.73-4.46-4.73,2-4.73,4.46,2.12,4.46,4.73,4.46Zm0-16.65c2.46,0,4.45-1.88,4.45-4.2s-1.99-4.2-4.45-4.2-4.45,1.88-4.45,4.2,1.99,4.2,4.45,4.2Zm0-16.65c2.3,0,4.17-1.76,4.17-3.93s-1.87-3.93-4.17-3.93-4.17,1.76-4.17,3.93,1.87,3.93,4.17,3.93Zm0-16.65c2.15,0,3.89-1.64,3.89-3.67s-1.74-3.67-3.89-3.67-3.89,1.64-3.89,3.67,1.74,3.67,3.89,3.67Zm0-16.65c2,0,3.62-1.53,3.62-3.41s-1.62-3.41-3.62-3.41-3.62,1.53-3.62,3.41,1.62,3.41,3.62,3.41Zm0-16.65c1.84,0,3.34-1.41,3.34-3.15s-1.49-3.15-3.34-3.15-3.34,1.41-3.34,3.15,1.49,3.15,3.34,3.15Zm0-16.65c1.69,0,3.06-1.29,3.06-2.88s-1.37-2.88-3.06-2.88-3.06,1.29-3.06,2.88,1.37,2.88,3.06,2.88Zm0-16.65c1.54,0,2.78-1.17,2.78-2.62s-1.24-2.62-2.78-2.62-2.78,1.17-2.78,2.62,1.25,2.62,2.78,2.62Zm0-16.65c1.38,0,2.5-1.06,2.5-2.36s-1.12-2.36-2.5-2.36-2.5,1.06-2.5,2.36,1.12,2.36,2.5,2.36Zm0-16.65c1.23,0,2.22-.94,2.22-2.1s-1-2.1-2.22-2.1-2.22.94-2.22,2.1,1,2.1,2.22,2.1Zm0-16.65c1.08,0,1.95-.82,1.95-1.84s-.87-1.84-1.95-1.84-1.95.82-1.95,1.84.87,1.84,1.95,1.84Zm0-16.65c.92,0,1.67-.7,1.67-1.57s-.75-1.57-1.67-1.57-1.67.7-1.67,1.57.75,1.57,1.67,1.57Zm0-16.65c.77,0,1.39-.59,1.39-1.31s-.62-1.31-1.39-1.31-1.39.59-1.39,1.31.62,1.31,1.39,1.31Zm0-16.65c.61,0,1.11-.47,1.11-1.05s-.5-1.05-1.11-1.05-1.11.47-1.11,1.05.5,1.05,1.11,1.05Zm0-16.65c.46,0,.83-.35.83-.79s-.37-.79-.83-.79-.83.35-.83.79.37.79.83.79Zm0-16.65c.31,0,.56-.23.56-.52s-.25-.52-.56-.52-.56.23-.56.52.25.52.56.52Zm0-16.65c.15,0,.28-.12.28-.26s-.12-.26-.28-.26-.28.12-.28.26.12.26.28.26Zm15.09,432.88c4.15,0,7.51-3.17,7.51-7.08s-3.36-7.08-7.51-7.08-7.51,3.17-7.51,7.08,3.36,7.08,7.51,7.08Zm0-16.65c3.99,0,7.23-3.05,7.23-6.82s-3.24-6.82-7.23-6.82-7.23,3.05-7.23,6.82,3.24,6.82,7.23,6.82Zm0-16.65c3.84,0,6.95-2.93,6.95-6.55s-3.11-6.55-6.95-6.55-6.95,2.93-6.95,6.55,3.11,6.55,6.95,6.55Zm0-16.65c3.69,0,6.67-2.82,6.67-6.29s-2.99-6.29-6.67-6.29-6.67,2.82-6.67,6.29,2.99,6.29,6.67,6.29Zm0-16.65c3.53,0,6.4-2.7,6.4-6.03s-2.86-6.03-6.4-6.03-6.4,2.7-6.4,6.03,2.86,6.03,6.4,6.03Zm0-16.65c3.38,0,6.12-2.58,6.12-5.77s-2.74-5.77-6.12-5.77-6.12,2.58-6.12,5.77,2.74,5.77,6.12,5.77Zm0-16.65c3.23,0,5.84-2.47,5.84-5.51s-2.61-5.51-5.84-5.51-5.84,2.47-5.84,5.51,2.61,5.51,5.84,5.51Zm0-16.65c3.07,0,5.56-2.35,5.56-5.24s-2.49-5.24-5.56-5.24-5.56,2.35-5.56,5.24,2.49,5.24,5.56,5.24Zm0-16.65c2.92,0,5.28-2.23,5.28-4.98s-2.37-4.98-5.28-4.98-5.28,2.23-5.28,4.98,2.37,4.98,5.28,4.98Zm0-16.65c2.76,0,5.01-2.11,5.01-4.72s-2.24-4.72-5.01-4.72-5.01,2.11-5.01,4.72,2.24,4.72,5.01,4.72Zm0-16.65c2.61,0,4.73-2,4.73-4.46s-2.12-4.46-4.73-4.46-4.73,2-4.73,4.46,2.12,4.46,4.73,4.46Zm0-16.65c2.46,0,4.45-1.88,4.45-4.2s-1.99-4.2-4.45-4.2-4.45,1.88-4.45,4.2,1.99,4.2,4.45,4.2Zm0-16.65c2.3,0,4.17-1.76,4.17-3.93s-1.87-3.93-4.17-3.93-4.17,1.76-4.17,3.93,1.87,3.93,4.17,3.93Zm0-16.65c2.15,0,3.89-1.64,3.89-3.67s-1.74-3.67-3.89-3.67-3.89,1.64-3.89,3.67,1.74,3.67,3.89,3.67Zm0-16.65c2,0,3.62-1.53,3.62-3.41s-1.62-3.41-3.62-3.41-3.62,1.53-3.62,3.41,1.62,3.41,3.62,3.41Zm0-16.65c1.84,0,3.34-1.41,3.34-3.15s-1.49-3.15-3.34-3.15-3.34,1.41-3.34,3.15,1.49,3.15,3.34,3.15Zm0-16.65c1.69,0,3.06-1.29,3.06-2.88s-1.37-2.88-3.06-2.88-3.06,1.29-3.06,2.88,1.37,2.88,3.06,2.88Zm0-16.65c1.54,0,2.78-1.17,2.78-2.62s-1.25-2.62-2.78-2.62-2.78,1.17-2.78,2.62,1.24,2.62,2.78,2.62Zm0-16.65c1.38,0,2.5-1.06,2.5-2.36s-1.12-2.36-2.5-2.36-2.5,1.06-2.5,2.36,1.12,2.36,2.5,2.36Zm0-16.65c1.23,0,2.22-.94,2.22-2.1s-1-2.1-2.22-2.1-2.22.94-2.22,2.1,1,2.1,2.22,2.1Zm0-16.65c1.08,0,1.95-.82,1.95-1.84s-.87-1.84-1.95-1.84-1.95.82-1.95,1.84.87,1.84,1.95,1.84Zm0-16.65c.92,0,1.67-.7,1.67-1.57s-.75-1.57-1.67-1.57-1.67.7-1.67,1.57.75,1.57,1.67,1.57Zm0-16.65c.77,0,1.39-.59,1.39-1.31s-.62-1.31-1.39-1.31-1.39.59-1.39,1.31.62,1.31,1.39,1.31Zm0-16.65c.61,0,1.11-.47,1.11-1.05s-.5-1.05-1.11-1.05-1.11.47-1.11,1.05.5,1.05,1.11,1.05Zm0-16.65c.46,0,.83-.35.83-.79s-.37-.79-.83-.79-.83.35-.83.79.37.79.83.79Zm0-16.65c.31,0,.56-.23.56-.52s-.25-.52-.56-.52-.56.23-.56.52.25.52.56.52Zm0-16.65c.15,0,.28-.12.28-.26s-.12-.26-.28-.26-.28.12-.28.26.12.26.28.26Zm15.09,432.88c4.15,0,7.51-3.17,7.51-7.08s-3.36-7.08-7.51-7.08-7.51,3.17-7.51,7.08,3.36,7.08,7.51,7.08Zm0-16.65c3.99,0,7.23-3.05,7.23-6.82s-3.24-6.82-7.23-6.82-7.23,3.05-7.23,6.82,3.24,6.82,7.23,6.82Zm0-16.65c3.84,0,6.95-2.93,6.95-6.55s-3.11-6.55-6.95-6.55-6.95,2.93-6.95,6.55,3.11,6.55,6.95,6.55Zm0-16.65c3.69,0,6.67-2.82,6.67-6.29s-2.99-6.29-6.67-6.29-6.67,2.82-6.67,6.29,2.99,6.29,6.67,6.29Zm0-16.65c3.53,0,6.4-2.7,6.4-6.03s-2.86-6.03-6.4-6.03-6.4,2.7-6.4,6.03,2.86,6.03,6.4,6.03Zm0-16.65c3.38,0,6.12-2.58,6.12-5.77s-2.74-5.77-6.12-5.77-6.12,2.58-6.12,5.77,2.74,5.77,6.12,5.77Zm0-16.65c3.23,0,5.84-2.47,5.84-5.51s-2.61-5.51-5.84-5.51-5.84,2.47-5.84,5.51,2.61,5.51,5.84,5.51Zm0-16.65c3.07,0,5.56-2.35,5.56-5.24s-2.49-5.24-5.56-5.24-5.56,2.35-5.56,5.24,2.49,5.24,5.56,5.24Zm0-16.65c2.92,0,5.28-2.23,5.28-4.98s-2.37-4.98-5.28-4.98-5.28,2.23-5.28,4.98,2.37,4.98,5.28,4.98Zm0-16.65c2.76,0,5.01-2.11,5.01-4.72s-2.24-4.72-5.01-4.72-5.01,2.11-5.01,4.72,2.24,4.72,5.01,4.72Zm0-16.65c2.61,0,4.73-2,4.73-4.46s-2.12-4.46-4.73-4.46-4.73,2-4.73,4.46,2.12,4.46,4.73,4.46Zm0-16.65c2.46,0,4.45-1.88,4.45-4.2s-1.99-4.2-4.45-4.2-4.45,1.88-4.45,4.2,1.99,4.2,4.45,4.2Zm0-16.65c2.3,0,4.17-1.76,4.17-3.93s-1.87-3.93-4.17-3.93-4.17,1.76-4.17,3.93,1.87,3.93,4.17,3.93Zm0-16.65c2.15,0,3.89-1.64,3.89-3.67s-1.74-3.67-3.89-3.67-3.89,1.64-3.89,3.67,1.74,3.67,3.89,3.67Zm0-16.65c2,0,3.62-1.53,3.62-3.41s-1.62-3.41-3.62-3.41-3.62,1.53-3.62,3.41,1.62,3.41,3.62,3.41Zm0-16.65c1.84,0,3.34-1.41,3.34-3.15s-1.49-3.15-3.34-3.15-3.34,1.41-3.34,3.15,1.49,3.15,3.34,3.15Zm0-16.65c1.69,0,3.06-1.29,3.06-2.88s-1.37-2.88-3.06-2.88-3.06,1.29-3.06,2.88,1.37,2.88,3.06,2.88Zm0-16.65c1.54,0,2.78-1.17,2.78-2.62s-1.25-2.62-2.78-2.62-2.78,1.17-2.78,2.62,1.25,2.62,2.78,2.62Zm0-16.65c1.38,0,2.5-1.06,2.5-2.36s-1.12-2.36-2.5-2.36-2.5,1.06-2.5,2.36,1.12,2.36,2.5,2.36Zm0-16.65c1.23,0,2.22-.94,2.22-2.1s-1-2.1-2.22-2.1-2.22.94-2.22,2.1,1,2.1,2.22,2.1Zm0-16.65c1.08,0,1.95-.82,1.95-1.84s-.87-1.84-1.95-1.84-1.95.82-1.95,1.84.87,1.84,1.95,1.84Zm0-16.65c.92,0,1.67-.7,1.67-1.57s-.75-1.57-1.67-1.57-1.67.7-1.67,1.57.75,1.57,1.67,1.57Zm0-16.65c.77,0,1.39-.59,1.39-1.31s-.62-1.31-1.39-1.31-1.39.59-1.39,1.31.62,1.31,1.39,1.31Zm0-16.65c.61,0,1.11-.47,1.11-1.05s-.5-1.05-1.11-1.05-1.11.47-1.11,1.05.5,1.05,1.11,1.05Zm0-16.65c.46,0,.83-.35.83-.79s-.37-.79-.83-.79-.83.35-.83.79.37.79.83.79Zm0-16.65c.31,0,.56-.23.56-.52s-.25-.52-.56-.52-.56.23-.56.52.25.52.56.52Zm0-16.65c.15,0,.28-.12.28-.26s-.12-.26-.28-.26-.28.12-.28.26.12.26.28.26Zm15.09,432.88c4.15,0,7.51-3.17,7.51-7.08s-3.36-7.08-7.51-7.08-7.51,3.17-7.51,7.08,3.36,7.08,7.51,7.08Zm0-16.65c3.99,0,7.23-3.05,7.23-6.82s-3.24-6.82-7.23-6.82-7.23,3.05-7.23,6.82,3.24,6.82,7.23,6.82Zm0-16.65c3.84,0,6.95-2.93,6.95-6.55s-3.11-6.55-6.95-6.55-6.95,2.93-6.95,6.55,3.11,6.55,6.95,6.55Zm0-16.65c3.69,0,6.67-2.82,6.67-6.29s-2.99-6.29-6.67-6.29-6.67,2.82-6.67,6.29,2.99,6.29,6.67,6.29Zm0-16.65c3.53,0,6.4-2.7,6.4-6.03s-2.86-6.03-6.4-6.03-6.4,2.7-6.4,6.03,2.86,6.03,6.4,6.03Zm0-16.65c3.38,0,6.12-2.58,6.12-5.77s-2.74-5.77-6.12-5.77-6.12,2.58-6.12,5.77,2.74,5.77,6.12,5.77Zm0-16.65c3.23,0,5.84-2.47,5.84-5.51s-2.61-5.51-5.84-5.51-5.84,2.47-5.84,5.51,2.61,5.51,5.84,5.51Zm0-16.65c3.07,0,5.56-2.35,5.56-5.24s-2.49-5.24-5.56-5.24-5.56,2.35-5.56,5.24,2.49,5.24,5.56,5.24Zm0-16.65c2.92,0,5.28-2.23,5.28-4.98s-2.37-4.98-5.28-4.98-5.28,2.23-5.28,4.98,2.37,4.98,5.28,4.98Zm0-16.65c2.76,0,5.01-2.11,5.01-4.72s-2.24-4.72-5.01-4.72-5.01,2.11-5.01,4.72,2.24,4.72,5.01,4.72Zm0-16.65c2.61,0,4.73-2,4.73-4.46s-2.12-4.46-4.73-4.46-4.73,2-4.73,4.46,2.12,4.46,4.73,4.46Zm0-16.65c2.46,0,4.45-1.88,4.45-4.2s-1.99-4.2-4.45-4.2-4.45,1.88-4.45,4.2,1.99,4.2,4.45,4.2Zm0-16.65c2.3,0,4.17-1.76,4.17-3.93s-1.87-3.93-4.17-3.93-4.17,1.76-4.17,3.93,1.87,3.93,4.17,3.93Zm0-16.65c2.15,0,3.89-1.64,3.89-3.67s-1.74-3.67-3.89-3.67-3.89,1.64-3.89,3.67,1.74,3.67,3.89,3.67Zm0-16.65c2,0,3.62-1.53,3.62-3.41s-1.62-3.41-3.62-3.41-3.62,1.53-3.62,3.41,1.62,3.41,3.62,3.41Zm0-16.65c1.84,0,3.34-1.41,3.34-3.15s-1.49-3.15-3.34-3.15-3.34,1.41-3.34,3.15,1.49,3.15,3.34,3.15Zm0-16.65c1.69,0,3.06-1.29,3.06-2.88s-1.37-2.88-3.06-2.88-3.06,1.29-3.06,2.88,1.37,2.88,3.06,2.88Zm0-16.65c1.54,0,2.78-1.17,2.78-2.62s-1.25-2.62-2.78-2.62-2.78,1.17-2.78,2.62,1.24,2.62,2.78,2.62Zm0-16.65c1.38,0,2.5-1.06,2.5-2.36s-1.12-2.36-2.5-2.36-2.5,1.06-2.5,2.36,1.12,2.36,2.5,2.36Zm0-16.65c1.23,0,2.22-.94,2.22-2.1s-1-2.1-2.22-2.1-2.22.94-2.22,2.1,1,2.1,2.22,2.1Zm0-16.65c1.08,0,1.95-.82,1.95-1.84s-.87-1.84-1.95-1.84-1.95.82-1.95,1.84.87,1.84,1.95,1.84Zm0-16.65c.92,0,1.67-.7,1.67-1.57s-.75-1.57-1.67-1.57-1.67.7-1.67,1.57.75,1.57,1.67,1.57Zm0-16.65c.77,0,1.39-.59,1.39-1.31s-.62-1.31-1.39-1.31-1.39.59-1.39,1.31.62,1.31,1.39,1.31Zm0-16.65c.61,0,1.11-.47,1.11-1.05s-.5-1.05-1.11-1.05-1.11.47-1.11,1.05.5,1.05,1.11,1.05Zm0-16.65c.46,0,.83-.35.83-.79s-.37-.79-.83-.79-.83.35-.83.79.37.79.83.79Zm0-16.65c.31,0,.56-.23.56-.52s-.25-.52-.56-.52-.56.23-.56.52.25.52.56.52Zm0-16.65c.15,0,.28-.12.28-.26s-.12-.26-.28-.26-.28.12-.28.26.12.26.28.26Zm15.09,432.88c4.15,0,7.51-3.17,7.51-7.08s-3.36-7.08-7.51-7.08-7.51,3.17-7.51,7.08,3.36,7.08,7.51,7.08Zm0-16.65c3.99,0,7.23-3.05,7.23-6.82s-3.24-6.82-7.23-6.82-7.23,3.05-7.23,6.82,3.24,6.82,7.23,6.82Zm0-16.65c3.84,0,6.95-2.93,6.95-6.55s-3.11-6.55-6.95-6.55-6.95,2.93-6.95,6.55,3.11,6.55,6.95,6.55Zm0-16.65c3.69,0,6.67-2.82,6.67-6.29s-2.99-6.29-6.67-6.29-6.67,2.82-6.67,6.29,2.99,6.29,6.67,6.29Zm0-16.65c3.53,0,6.4-2.7,6.4-6.03s-2.86-6.03-6.4-6.03-6.4,2.7-6.4,6.03,2.86,6.03,6.4,6.03Zm0-16.65c3.38,0,6.12-2.58,6.12-5.77s-2.74-5.77-6.12-5.77-6.12,2.58-6.12,5.77,2.74,5.77,6.12,5.77Zm0-16.65c3.23,0,5.84-2.47,5.84-5.51s-2.61-5.51-5.84-5.51-5.84,2.47-5.84,5.51,2.61,5.51,5.84,5.51Zm0-16.65c3.07,0,5.56-2.35,5.56-5.24s-2.49-5.24-5.56-5.24-5.56,2.35-5.56,5.24,2.49,5.24,5.56,5.24Zm0-16.65c2.92,0,5.28-2.23,5.28-4.98s-2.37-4.98-5.28-4.98-5.28,2.23-5.28,4.98,2.37,4.98,5.28,4.98Zm0-16.65c2.76,0,5.01-2.11,5.01-4.72s-2.24-4.72-5.01-4.72-5.01,2.11-5.01,4.72,2.24,4.72,5.01,4.72Zm0-16.65c2.61,0,4.73-2,4.73-4.46s-2.12-4.46-4.73-4.46-4.73,2-4.73,4.46,2.12,4.46,4.73,4.46Zm0-16.65c2.46,0,4.45-1.88,4.45-4.2s-1.99-4.2-4.45-4.2-4.45,1.88-4.45,4.2,1.99,4.2,4.45,4.2Zm0-16.65c2.3,0,4.17-1.76,4.17-3.93s-1.87-3.93-4.17-3.93-4.17,1.76-4.17,3.93,1.87,3.93,4.17,3.93Zm0-16.65c2.15,0,3.89-1.64,3.89-3.67s-1.74-3.67-3.89-3.67-3.89,1.64-3.89,3.67,1.74,3.67,3.89,3.67Zm0-16.65c2,0,3.62-1.53,3.62-3.41s-1.62-3.41-3.62-3.41-3.62,1.53-3.62,3.41,1.62,3.41,3.62,3.41Zm0-16.65c1.84,0,3.34-1.41,3.34-3.15s-1.49-3.15-3.34-3.15-3.34,1.41-3.34,3.15,1.49,3.15,3.34,3.15Zm0-16.65c1.69,0,3.06-1.29,3.06-2.88s-1.37-2.88-3.06-2.88-3.06,1.29-3.06,2.88,1.37,2.88,3.06,2.88Zm0-16.65c1.54,0,2.78-1.17,2.78-2.62s-1.25-2.62-2.78-2.62-2.78,1.17-2.78,2.62,1.25,2.62,2.78,2.62Zm0-16.65c1.38,0,2.5-1.06,2.5-2.36s-1.12-2.36-2.5-2.36-2.5,1.06-2.5,2.36,1.12,2.36,2.5,2.36Zm0-16.65c1.23,0,2.22-.94,2.22-2.1s-1-2.1-2.22-2.1-2.22.94-2.22,2.1,1,2.1,2.22,2.1Zm0-16.65c1.08,0,1.95-.82,1.95-1.84s-.87-1.84-1.95-1.84-1.95.82-1.95,1.84.87,1.84,1.95,1.84Zm0-16.65c.92,0,1.67-.7,1.67-1.57s-.75-1.57-1.67-1.57-1.67.7-1.67,1.57.75,1.57,1.67,1.57Zm0-16.65c.77,0,1.39-.59,1.39-1.31s-.62-1.31-1.39-1.31-1.39.59-1.39,1.31.62,1.31,1.39,1.31Zm0-16.65c.61,0,1.11-.47,1.11-1.05s-.5-1.05-1.11-1.05-1.11.47-1.11,1.05.5,1.05,1.11,1.05Zm0-16.65c.46,0,.83-.35.83-.79s-.37-.79-.83-.79-.83.35-.83.79.37.79.83.79Zm0-16.65c.31,0,.56-.23.56-.52s-.25-.52-.56-.52-.56.23-.56.52.25.52.56.52Zm0-16.65c.15,0,.28-.12.28-.26s-.12-.26-.28-.26-.28.12-.28.26.12.26.28.26Zm15.09,432.88c4.15,0,7.51-3.17,7.51-7.08s-3.36-7.08-7.51-7.08-7.51,3.17-7.51,7.08,3.36,7.08,7.51,7.08Zm0-16.65c3.99,0,7.23-3.05,7.23-6.82s-3.24-6.82-7.23-6.82-7.23,3.05-7.23,6.82,3.24,6.82,7.23,6.82Zm0-16.65c3.84,0,6.95-2.93,6.95-6.55s-3.11-6.55-6.95-6.55-6.95,2.93-6.95,6.55,3.11,6.55,6.95,6.55Zm0-16.65c3.69,0,6.67-2.82,6.67-6.29s-2.99-6.29-6.67-6.29-6.67,2.82-6.67,6.29,2.99,6.29,6.67,6.29Zm0-16.65c3.53,0,6.4-2.7,6.4-6.03s-2.86-6.03-6.4-6.03-6.4,2.7-6.4,6.03,2.86,6.03,6.4,6.03Zm0-16.65c3.38,0,6.12-2.58,6.12-5.77s-2.74-5.77-6.12-5.77-6.12,2.58-6.12,5.77,2.74,5.77,6.12,5.77Zm0-16.65c3.23,0,5.84-2.47,5.84-5.51s-2.61-5.51-5.84-5.51-5.84,2.47-5.84,5.51,2.61,5.51,5.84,5.51Zm0-16.65c3.07,0,5.56-2.35,5.56-5.24s-2.49-5.24-5.56-5.24-5.56,2.35-5.56,5.24,2.49,5.24,5.56,5.24Zm0-16.65c2.92,0,5.28-2.23,5.28-4.98s-2.37-4.98-5.28-4.98-5.28,2.23-5.28,4.98,2.37,4.98,5.28,4.98Zm0-16.65c2.76,0,5.01-2.11,5.01-4.72s-2.24-4.72-5.01-4.72-5.01,2.11-5.01,4.72,2.24,4.72,5.01,4.72Zm0-16.65c2.61,0,4.73-2,4.73-4.46s-2.12-4.46-4.73-4.46-4.73,2-4.73,4.46,2.12,4.46,4.73,4.46Zm0-16.65c2.46,0,4.45-1.88,4.45-4.2s-1.99-4.2-4.45-4.2-4.45,1.88-4.45,4.2,1.99,4.2,4.45,4.2Zm0-16.65c2.3,0,4.17-1.76,4.17-3.93s-1.87-3.93-4.17-3.93-4.17,1.76-4.17,3.93,1.87,3.93,4.17,3.93Zm0-16.65c2.15,0,3.89-1.64,3.89-3.67s-1.74-3.67-3.89-3.67-3.89,1.64-3.89,3.67,1.74,3.67,3.89,3.67Zm0-16.65c2,0,3.62-1.53,3.62-3.41s-1.62-3.41-3.62-3.41-3.62,1.53-3.62,3.41,1.62,3.41,3.62,3.41Zm0-16.65c1.84,0,3.34-1.41,3.34-3.15s-1.49-3.15-3.34-3.15-3.34,1.41-3.34,3.15,1.49,3.15,3.34,3.15Zm0-16.65c1.69,0,3.06-1.29,3.06-2.88s-1.37-2.88-3.06-2.88-3.06,1.29-3.06,2.88,1.37,2.88,3.06,2.88Zm0-16.65c1.54,0,2.78-1.17,2.78-2.62s-1.24-2.62-2.78-2.62-2.78,1.17-2.78,2.62,1.25,2.62,2.78,2.62Zm0-16.65c1.38,0,2.5-1.06,2.5-2.36s-1.12-2.36-2.5-2.36-2.5,1.06-2.5,2.36,1.12,2.36,2.5,2.36Zm0-16.65c1.23,0,2.22-.94,2.22-2.1s-1-2.1-2.22-2.1-2.22.94-2.22,2.1,1,2.1,2.22,2.1Zm0-16.65c1.08,0,1.95-.82,1.95-1.84s-.87-1.84-1.95-1.84-1.95.82-1.95,1.84.87,1.84,1.95,1.84Zm0-16.65c.92,0,1.67-.7,1.67-1.57s-.75-1.57-1.67-1.57-1.67.7-1.67,1.57.75,1.57,1.67,1.57Zm0-16.65c.77,0,1.39-.59,1.39-1.31s-.62-1.31-1.39-1.31-1.39.59-1.39,1.31.62,1.31,1.39,1.31Zm0-16.65c.61,0,1.11-.47,1.11-1.05s-.5-1.05-1.11-1.05-1.11.47-1.11,1.05.5,1.05,1.11,1.05Zm0-16.65c.46,0,.83-.35.83-.79s-.37-.79-.83-.79-.83.35-.83.79.37.79.83.79Zm0-16.65c.31,0,.56-.23.56-.52s-.25-.52-.56-.52-.56.23-.56.52.25.52.56.52Zm0-16.65c.15,0,.28-.12.28-.26s-.12-.26-.28-.26-.28.12-.28.26.12.26.28.26Zm15.09,432.88c4.15,0,7.51-3.17,7.51-7.08s-3.36-7.08-7.51-7.08-7.51,3.17-7.51,7.08,3.36,7.08,7.51,7.08Zm0-16.65c3.99,0,7.23-3.05,7.23-6.82s-3.24-6.82-7.23-6.82-7.23,3.05-7.23,6.82,3.24,6.82,7.23,6.82Zm0-16.65c3.84,0,6.95-2.93,6.95-6.55s-3.11-6.55-6.95-6.55-6.95,2.93-6.95,6.55,3.11,6.55,6.95,6.55Zm0-16.65c3.69,0,6.67-2.82,6.67-6.29s-2.99-6.29-6.67-6.29-6.67,2.82-6.67,6.29,2.99,6.29,6.67,6.29Zm0-16.65c3.53,0,6.4-2.7,6.4-6.03s-2.86-6.03-6.4-6.03-6.4,2.7-6.4,6.03,2.86,6.03,6.4,6.03Zm0-16.65c3.38,0,6.12-2.58,6.12-5.77s-2.74-5.77-6.12-5.77-6.12,2.58-6.12,5.77,2.74,5.77,6.12,5.77Zm0-16.65c3.23,0,5.84-2.47,5.84-5.51s-2.61-5.51-5.84-5.51-5.84,2.47-5.84,5.51,2.61,5.51,5.84,5.51Zm0-16.65c3.07,0,5.56-2.35,5.56-5.24s-2.49-5.24-5.56-5.24-5.56,2.35-5.56,5.24,2.49,5.24,5.56,5.24Zm0-16.65c2.92,0,5.28-2.23,5.28-4.98s-2.37-4.98-5.28-4.98-5.28,2.23-5.28,4.98,2.37,4.98,5.28,4.98Zm0-16.65c2.76,0,5.01-2.11,5.01-4.72s-2.24-4.72-5.01-4.72-5.01,2.11-5.01,4.72,2.24,4.72,5.01,4.72Zm0-16.65c2.61,0,4.73-2,4.73-4.46s-2.12-4.46-4.73-4.46-4.73,2-4.73,4.46,2.12,4.46,4.73,4.46Zm0-16.65c2.46,0,4.45-1.88,4.45-4.2s-1.99-4.2-4.45-4.2-4.45,1.88-4.45,4.2,1.99,4.2,4.45,4.2Zm0-16.65c2.3,0,4.17-1.76,4.17-3.93s-1.87-3.93-4.17-3.93-4.17,1.76-4.17,3.93,1.87,3.93,4.17,3.93Zm0-16.65c2.15,0,3.89-1.64,3.89-3.67s-1.74-3.67-3.89-3.67-3.89,1.64-3.89,3.67,1.74,3.67,3.89,3.67Zm0-16.65c2,0,3.62-1.53,3.62-3.41s-1.62-3.41-3.62-3.41-3.62,1.53-3.62,3.41,1.62,3.41,3.62,3.41Zm0-16.65c1.84,0,3.34-1.41,3.34-3.15s-1.49-3.15-3.34-3.15-3.34,1.41-3.34,3.15,1.49,3.15,3.34,3.15Zm0-16.65c1.69,0,3.06-1.29,3.06-2.88s-1.37-2.88-3.06-2.88-3.06,1.29-3.06,2.88,1.37,2.88,3.06,2.88Zm0-16.65c1.54,0,2.78-1.17,2.78-2.62s-1.25-2.62-2.78-2.62-2.78,1.17-2.78,2.62,1.25,2.62,2.78,2.62Zm0-16.65c1.38,0,2.5-1.06,2.5-2.36s-1.12-2.36-2.5-2.36-2.5,1.06-2.5,2.36,1.12,2.36,2.5,2.36Zm0-16.65c1.23,0,2.22-.94,2.22-2.1s-1-2.1-2.22-2.1-2.22.94-2.22,2.1,1,2.1,2.22,2.1Zm0-16.65c1.08,0,1.95-.82,1.95-1.84s-.87-1.84-1.95-1.84-1.95.82-1.95,1.84.87,1.84,1.95,1.84Zm0-16.65c.92,0,1.67-.7,1.67-1.57s-.75-1.57-1.67-1.57-1.67.7-1.67,1.57.75,1.57,1.67,1.57Zm0-16.65c.77,0,1.39-.59,1.39-1.31s-.62-1.31-1.39-1.31-1.39.59-1.39,1.31.62,1.31,1.39,1.31Zm0-16.65c.61,0,1.11-.47,1.11-1.05s-.5-1.05-1.11-1.05-1.11.47-1.11,1.05.5,1.05,1.11,1.05Zm0-16.65c.46,0,.83-.35.83-.79s-.37-.79-.83-.79-.83.35-.83.79.37.79.83.79Zm0-16.65c.31,0,.56-.23.56-.52s-.25-.52-.56-.52-.56.23-.56.52.25.52.56.52Zm0-16.65c.15,0,.28-.12.28-.26s-.12-.26-.28-.26-.28.12-.28.26.12.26.28.26Zm15.09,432.88c4.15,0,7.51-3.17,7.51-7.08s-3.36-7.08-7.51-7.08-7.51,3.17-7.51,7.08,3.36,7.08,7.51,7.08Zm0-16.65c3.99,0,7.23-3.05,7.23-6.82s-3.24-6.82-7.23-6.82-7.23,3.05-7.23,6.82,3.24,6.82,7.23,6.82Zm0-16.65c3.84,0,6.95-2.93,6.95-6.55s-3.11-6.55-6.95-6.55-6.95,2.93-6.95,6.55,3.11,6.55,6.95,6.55Zm0-16.65c3.69,0,6.67-2.82,6.67-6.29s-2.99-6.29-6.67-6.29-6.67,2.82-6.67,6.29,2.99,6.29,6.67,6.29Zm0-16.65c3.53,0,6.4-2.7,6.4-6.03s-2.86-6.03-6.4-6.03-6.4,2.7-6.4,6.03,2.86,6.03,6.4,6.03Zm0-16.65c3.38,0,6.12-2.58,6.12-5.77s-2.74-5.77-6.12-5.77-6.12,2.58-6.12,5.77,2.74,5.77,6.12,5.77Zm0-16.65c3.23,0,5.84-2.47,5.84-5.51s-2.61-5.51-5.84-5.51-5.84,2.47-5.84,5.51,2.61,5.51,5.84,5.51Zm0-16.65c3.07,0,5.56-2.35,5.56-5.24s-2.49-5.24-5.56-5.24-5.56,2.35-5.56,5.24,2.49,5.24,5.56,5.24Zm0-16.65c2.92,0,5.28-2.23,5.28-4.98s-2.37-4.98-5.28-4.98-5.28,2.23-5.28,4.98,2.37,4.98,5.28,4.98Zm0-16.65c2.76,0,5.01-2.11,5.01-4.72s-2.24-4.72-5.01-4.72-5.01,2.11-5.01,4.72,2.24,4.72,5.01,4.72Zm0-16.65c2.61,0,4.73-2,4.73-4.46s-2.12-4.46-4.73-4.46-4.73,2-4.73,4.46,2.12,4.46,4.73,4.46Zm0-16.65c2.46,0,4.45-1.88,4.45-4.2s-1.99-4.2-4.45-4.2-4.45,1.88-4.45,4.2,1.99,4.2,4.45,4.2Zm0-16.65c2.3,0,4.17-1.76,4.17-3.93s-1.87-3.93-4.17-3.93-4.17,1.76-4.17,3.93,1.87,3.93,4.17,3.93Zm0-16.65c2.15,0,3.89-1.64,3.89-3.67s-1.74-3.67-3.89-3.67-3.89,1.64-3.89,3.67,1.74,3.67,3.89,3.67Zm0-16.65c2,0,3.62-1.53,3.62-3.41s-1.62-3.41-3.62-3.41-3.62,1.53-3.62,3.41,1.62,3.41,3.62,3.41Zm0-16.65c1.84,0,3.34-1.41,3.34-3.15s-1.49-3.15-3.34-3.15-3.34,1.41-3.34,3.15,1.49,3.15,3.34,3.15Zm0-16.65c1.69,0,3.06-1.29,3.06-2.88s-1.37-2.88-3.06-2.88-3.06,1.29-3.06,2.88,1.37,2.88,3.06,2.88Zm0-16.65c1.54,0,2.78-1.17,2.78-2.62s-1.25-2.62-2.78-2.62-2.78,1.17-2.78,2.62,1.25,2.62,2.78,2.62Zm0-16.65c1.38,0,2.5-1.06,2.5-2.36s-1.12-2.36-2.5-2.36-2.5,1.06-2.5,2.36,1.12,2.36,2.5,2.36Zm0-16.65c1.23,0,2.22-.94,2.22-2.1s-1-2.1-2.22-2.1-2.22.94-2.22,2.1,1,2.1,2.22,2.1Zm0-16.65c1.08,0,1.95-.82,1.95-1.84s-.87-1.84-1.95-1.84-1.95.82-1.95,1.84.87,1.84,1.95,1.84Zm0-16.65c.92,0,1.67-.7,1.67-1.57s-.75-1.57-1.67-1.57-1.67.7-1.67,1.57.75,1.57,1.67,1.57Zm0-16.65c.77,0,1.39-.59,1.39-1.31s-.62-1.31-1.39-1.31-1.39.59-1.39,1.31.62,1.31,1.39,1.31Zm0-16.65c.61,0,1.11-.47,1.11-1.05s-.5-1.05-1.11-1.05-1.11.47-1.11,1.05.5,1.05,1.11,1.05Zm0-16.65c.46,0,.83-.35.83-.79s-.37-.79-.83-.79-.83.35-.83.79.37.79.83.79Zm0-16.65c.31,0,.56-.23.56-.52s-.25-.52-.56-.52-.56.23-.56.52.25.52.56.52Zm0-16.65c.15,0,.28-.12.28-.26s-.12-.26-.28-.26-.28.12-.28.26.12.26.28.26Zm15.09,432.88c4.15,0,7.51-3.17,7.51-7.08s-3.36-7.08-7.51-7.08-7.51,3.17-7.51,7.08,3.36,7.08,7.51,7.08Zm0-16.65c3.99,0,7.23-3.05,7.23-6.82s-3.24-6.82-7.23-6.82-7.23,3.05-7.23,6.82,3.24,6.82,7.23,6.82Zm0-16.65c3.84,0,6.95-2.93,6.95-6.55s-3.11-6.55-6.95-6.55-6.95,2.93-6.95,6.55,3.11,6.55,6.95,6.55Zm0-16.65c3.69,0,6.67-2.82,6.67-6.29s-2.99-6.29-6.67-6.29-6.67,2.82-6.67,6.29,2.99,6.29,6.67,6.29Zm0-16.65c3.53,0,6.4-2.7,6.4-6.03s-2.86-6.03-6.4-6.03-6.4,2.7-6.4,6.03,2.86,6.03,6.4,6.03Zm0-16.65c3.38,0,6.12-2.58,6.12-5.77s-2.74-5.77-6.12-5.77-6.12,2.58-6.12,5.77,2.74,5.77,6.12,5.77Zm0-16.65c3.23,0,5.84-2.47,5.84-5.51s-2.61-5.51-5.84-5.51-5.84,2.47-5.84,5.51,2.61,5.51,5.84,5.51Zm0-16.65c3.07,0,5.56-2.35,5.56-5.24s-2.49-5.24-5.56-5.24-5.56,2.35-5.56,5.24,2.49,5.24,5.56,5.24Zm0-16.65c2.92,0,5.28-2.23,5.28-4.98s-2.37-4.98-5.28-4.98-5.28,2.23-5.28,4.98,2.37,4.98,5.28,4.98Zm0-16.65c2.76,0,5.01-2.11,5.01-4.72s-2.24-4.72-5.01-4.72-5.01,2.11-5.01,4.72,2.24,4.72,5.01,4.72Zm0-16.65c2.61,0,4.73-2,4.73-4.46s-2.12-4.46-4.73-4.46-4.73,2-4.73,4.46,2.12,4.46,4.73,4.46Zm0-16.65c2.46,0,4.45-1.88,4.45-4.2s-1.99-4.2-4.45-4.2-4.45,1.88-4.45,4.2,1.99,4.2,4.45,4.2Zm0-16.65c2.3,0,4.17-1.76,4.17-3.93s-1.87-3.93-4.17-3.93-4.17,1.76-4.17,3.93,1.87,3.93,4.17,3.93Zm0-16.65c2.15,0,3.89-1.64,3.89-3.67s-1.74-3.67-3.89-3.67-3.89,1.64-3.89,3.67,1.74,3.67,3.89,3.67Zm0-16.65c2,0,3.62-1.53,3.62-3.41s-1.62-3.41-3.62-3.41-3.62,1.53-3.62,3.41,1.62,3.41,3.62,3.41Zm0-16.65c1.84,0,3.34-1.41,3.34-3.15s-1.49-3.15-3.34-3.15-3.34,1.41-3.34,3.15,1.49,3.15,3.34,3.15Zm0-16.65c1.69,0,3.06-1.29,3.06-2.88s-1.37-2.88-3.06-2.88-3.06,1.29-3.06,2.88,1.37,2.88,3.06,2.88Zm0-16.65c1.54,0,2.78-1.17,2.78-2.62s-1.24-2.62-2.78-2.62-2.78,1.17-2.78,2.62,1.24,2.62,2.78,2.62Zm0-16.65c1.38,0,2.5-1.06,2.5-2.36s-1.12-2.36-2.5-2.36-2.5,1.06-2.5,2.36,1.12,2.36,2.5,2.36Zm0-16.65c1.23,0,2.22-.94,2.22-2.1s-1-2.1-2.22-2.1-2.22.94-2.22,2.1,1,2.1,2.22,2.1Zm0-16.65c1.08,0,1.95-.82,1.95-1.84s-.87-1.84-1.95-1.84-1.95.82-1.95,1.84.87,1.84,1.95,1.84Zm0-16.65c.92,0,1.67-.7,1.67-1.57s-.75-1.57-1.67-1.57-1.67.7-1.67,1.57.75,1.57,1.67,1.57Zm0-16.65c.77,0,1.39-.59,1.39-1.31s-.62-1.31-1.39-1.31-1.39.59-1.39,1.31.62,1.31,1.39,1.31Zm0-16.65c.61,0,1.11-.47,1.11-1.05s-.5-1.05-1.11-1.05-1.11.47-1.11,1.05.5,1.05,1.11,1.05Zm0-16.65c.46,0,.83-.35.83-.79s-.37-.79-.83-.79-.83.35-.83.79.37.79.83.79Zm0-16.65c.31,0,.56-.23.56-.52s-.25-.52-.56-.52-.56.23-.56.52.25.52.56.52Zm0-16.65c.15,0,.28-.12.28-.26s-.12-.26-.28-.26-.28.12-.28.26.12.26.28.26Zm15.09,432.88c4.15,0,7.51-3.17,7.51-7.08s-3.36-7.08-7.51-7.08-7.51,3.17-7.51,7.08,3.36,7.08,7.51,7.08Zm0-16.65c3.99,0,7.23-3.05,7.23-6.82s-3.24-6.82-7.23-6.82-7.23,3.05-7.23,6.82,3.24,6.82,7.23,6.82Zm0-16.65c3.84,0,6.95-2.93,6.95-6.55s-3.11-6.55-6.95-6.55-6.95,2.93-6.95,6.55,3.11,6.55,6.95,6.55Zm0-16.65c3.69,0,6.67-2.82,6.67-6.29s-2.99-6.29-6.67-6.29-6.67,2.82-6.67,6.29,2.99,6.29,6.67,6.29Zm0-16.65c3.53,0,6.4-2.7,6.4-6.03s-2.86-6.03-6.4-6.03-6.4,2.7-6.4,6.03,2.86,6.03,6.4,6.03Zm0-16.65c3.38,0,6.12-2.58,6.12-5.77s-2.74-5.77-6.12-5.77-6.12,2.58-6.12,5.77,2.74,5.77,6.12,5.77Zm0-16.65c3.23,0,5.84-2.47,5.84-5.51s-2.61-5.51-5.84-5.51-5.84,2.47-5.84,5.51,2.61,5.51,5.84,5.51Zm0-16.65c3.07,0,5.56-2.35,5.56-5.24s-2.49-5.24-5.56-5.24-5.56,2.35-5.56,5.24,2.49,5.24,5.56,5.24Zm0-16.65c2.92,0,5.28-2.23,5.28-4.98s-2.37-4.98-5.28-4.98-5.28,2.23-5.28,4.98,2.37,4.98,5.28,4.98Zm0-16.65c2.76,0,5.01-2.11,5.01-4.72s-2.24-4.72-5.01-4.72-5.01,2.11-5.01,4.72,2.24,4.72,5.01,4.72Zm0-16.65c2.61,0,4.73-2,4.73-4.46s-2.12-4.46-4.73-4.46-4.73,2-4.73,4.46,2.12,4.46,4.73,4.46Zm0-16.65c2.46,0,4.45-1.88,4.45-4.2s-1.99-4.2-4.45-4.2-4.45,1.88-4.45,4.2,1.99,4.2,4.45,4.2Zm0-16.65c2.3,0,4.17-1.76,4.17-3.93s-1.87-3.93-4.17-3.93-4.17,1.76-4.17,3.93,1.87,3.93,4.17,3.93Zm0-16.65c2.15,0,3.89-1.64,3.89-3.67s-1.74-3.67-3.89-3.67-3.89,1.64-3.89,3.67,1.74,3.67,3.89,3.67Zm0-16.65c2,0,3.62-1.53,3.62-3.41s-1.62-3.41-3.62-3.41-3.62,1.53-3.62,3.41,1.62,3.41,3.62,3.41Zm0-16.65c1.84,0,3.34-1.41,3.34-3.15s-1.49-3.15-3.34-3.15-3.34,1.41-3.34,3.15,1.49,3.15,3.34,3.15Zm0-16.65c1.69,0,3.06-1.29,3.06-2.88s-1.37-2.88-3.06-2.88-3.06,1.29-3.06,2.88,1.37,2.88,3.06,2.88Zm0-16.65c1.54,0,2.78-1.17,2.78-2.62s-1.25-2.62-2.78-2.62-2.78,1.17-2.78,2.62,1.25,2.62,2.78,2.62Zm0-16.65c1.38,0,2.5-1.06,2.5-2.36s-1.12-2.36-2.5-2.36-2.5,1.06-2.5,2.36,1.12,2.36,2.5,2.36Zm0-16.65c1.23,0,2.22-.94,2.22-2.1s-1-2.1-2.22-2.1-2.22.94-2.22,2.1,1,2.1,2.22,2.1Zm0-16.65c1.08,0,1.95-.82,1.95-1.84s-.87-1.84-1.95-1.84-1.95.82-1.95,1.84.87,1.84,1.95,1.84Zm0-16.65c.92,0,1.67-.7,1.67-1.57s-.75-1.57-1.67-1.57-1.67.7-1.67,1.57.75,1.57,1.67,1.57Zm0-16.65c.77,0,1.39-.59,1.39-1.31s-.62-1.31-1.39-1.31-1.39.59-1.39,1.31.62,1.31,1.39,1.31Zm0-16.65c.61,0,1.11-.47,1.11-1.05s-.5-1.05-1.11-1.05-1.11.47-1.11,1.05.5,1.05,1.11,1.05Zm0-16.65c.46,0,.83-.35.83-.79s-.37-.79-.83-.79-.83.35-.83.79.37.79.83.79Zm0-16.65c.31,0,.56-.23.56-.52s-.25-.52-.56-.52-.56.23-.56.52.25.52.56.52Zm0-16.65c.15,0,.28-.12.28-.26s-.12-.26-.28-.26-.28.12-.28.26.12.26.28.26Zm15.09,432.88c4.15,0,7.51-3.17,7.51-7.08s-3.36-7.08-7.51-7.08-7.51,3.17-7.51,7.08,3.36,7.08,7.51,7.08Zm0-16.65c3.99,0,7.23-3.05,7.23-6.82s-3.24-6.82-7.23-6.82-7.23,3.05-7.23,6.82,3.24,6.82,7.23,6.82Zm0-16.65c3.84,0,6.95-2.93,6.95-6.55s-3.11-6.55-6.95-6.55-6.95,2.93-6.95,6.55,3.11,6.55,6.95,6.55Zm0-16.65c3.69,0,6.67-2.82,6.67-6.29s-2.99-6.29-6.67-6.29-6.67,2.82-6.67,6.29,2.99,6.29,6.67,6.29Zm0-16.65c3.53,0,6.4-2.7,6.4-6.03s-2.86-6.03-6.4-6.03-6.4,2.7-6.4,6.03,2.86,6.03,6.4,6.03Zm0-16.65c3.38,0,6.12-2.58,6.12-5.77s-2.74-5.77-6.12-5.77-6.12,2.58-6.12,5.77,2.74,5.77,6.12,5.77Zm0-16.65c3.23,0,5.84-2.47,5.84-5.51s-2.61-5.51-5.84-5.51-5.84,2.47-5.84,5.51,2.61,5.51,5.84,5.51Zm0-16.65c3.07,0,5.56-2.35,5.56-5.24s-2.49-5.24-5.56-5.24-5.56,2.35-5.56,5.24,2.49,5.24,5.56,5.24Zm0-16.65c2.92,0,5.28-2.23,5.28-4.98s-2.37-4.98-5.28-4.98-5.28,2.23-5.28,4.98,2.37,4.98,5.28,4.98Zm0-16.65c2.76,0,5.01-2.11,5.01-4.72s-2.24-4.72-5.01-4.72-5.01,2.11-5.01,4.72,2.24,4.72,5.01,4.72Zm0-16.65c2.61,0,4.73-2,4.73-4.46s-2.12-4.46-4.73-4.46-4.73,2-4.73,4.46,2.12,4.46,4.73,4.46Zm0-16.65c2.46,0,4.45-1.88,4.45-4.2s-1.99-4.2-4.45-4.2-4.45,1.88-4.45,4.2,1.99,4.2,4.45,4.2Zm0-16.65c2.3,0,4.17-1.76,4.17-3.93s-1.87-3.93-4.17-3.93-4.17,1.76-4.17,3.93,1.87,3.93,4.17,3.93Zm0-16.65c2.15,0,3.89-1.64,3.89-3.67s-1.74-3.67-3.89-3.67-3.89,1.64-3.89,3.67,1.74,3.67,3.89,3.67Zm0-16.65c2,0,3.62-1.53,3.62-3.41s-1.62-3.41-3.62-3.41-3.62,1.53-3.62,3.41,1.62,3.41,3.62,3.41Zm0-16.65c1.84,0,3.34-1.41,3.34-3.15s-1.49-3.15-3.34-3.15-3.34,1.41-3.34,3.15,1.49,3.15,3.34,3.15Zm0-16.65c1.69,0,3.06-1.29,3.06-2.88s-1.37-2.88-3.06-2.88-3.06,1.29-3.06,2.88,1.37,2.88,3.06,2.88Zm0-16.65c1.54,0,2.78-1.17,2.78-2.62s-1.24-2.62-2.78-2.62-2.78,1.17-2.78,2.62,1.25,2.62,2.78,2.62Zm0-16.65c1.38,0,2.5-1.06,2.5-2.36s-1.12-2.36-2.5-2.36-2.5,1.06-2.5,2.36,1.12,2.36,2.5,2.36Zm0-16.65c1.23,0,2.22-.94,2.22-2.1s-1-2.1-2.22-2.1-2.22.94-2.22,2.1,1,2.1,2.22,2.1Zm0-16.65c1.08,0,1.95-.82,1.95-1.84s-.87-1.84-1.95-1.84-1.95.82-1.95,1.84.87,1.84,1.95,1.84Zm0-16.65c.92,0,1.67-.7,1.67-1.57s-.75-1.57-1.67-1.57-1.67.7-1.67,1.57.75,1.57,1.67,1.57Zm0-16.65c.77,0,1.39-.59,1.39-1.31s-.62-1.31-1.39-1.31-1.39.59-1.39,1.31.62,1.31,1.39,1.31Zm0-16.65c.61,0,1.11-.47,1.11-1.05s-.5-1.05-1.11-1.05-1.11.47-1.11,1.05.5,1.05,1.11,1.05Zm0-16.65c.46,0,.83-.35.83-.79s-.37-.79-.83-.79-.83.35-.83.79.37.79.83.79Zm0-16.65c.31,0,.56-.23.56-.52s-.25-.52-.56-.52-.56.23-.56.52.25.52.56.52Zm0-16.65c.15,0,.28-.12.28-.26s-.12-.26-.28-.26-.28.12-.28.26.12.26.28.26Zm15.09,432.88c4.15,0,7.51-3.17,7.51-7.08s-3.36-7.08-7.51-7.08-7.51,3.17-7.51,7.08,3.36,7.08,7.51,7.08Zm0-16.65c3.99,0,7.23-3.05,7.23-6.82s-3.24-6.82-7.23-6.82-7.23,3.05-7.23,6.82,3.24,6.82,7.23,6.82Zm0-16.65c3.84,0,6.95-2.93,6.95-6.55s-3.11-6.55-6.95-6.55-6.95,2.93-6.95,6.55,3.11,6.55,6.95,6.55Zm0-16.65c3.69,0,6.67-2.82,6.67-6.29s-2.99-6.29-6.67-6.29-6.67,2.82-6.67,6.29,2.99,6.29,6.67,6.29Zm0-16.65c3.53,0,6.4-2.7,6.4-6.03s-2.86-6.03-6.4-6.03-6.4,2.7-6.4,6.03,2.86,6.03,6.4,6.03Zm0-16.65c3.38,0,6.12-2.58,6.12-5.77s-2.74-5.77-6.12-5.77-6.12,2.58-6.12,5.77,2.74,5.77,6.12,5.77Zm0-16.65c3.23,0,5.84-2.47,5.84-5.51s-2.61-5.51-5.84-5.51-5.84,2.47-5.84,5.51,2.61,5.51,5.84,5.51Zm0-16.65c3.07,0,5.56-2.35,5.56-5.24s-2.49-5.24-5.56-5.24-5.56,2.35-5.56,5.24,2.49,5.24,5.56,5.24Zm0-16.65c2.92,0,5.28-2.23,5.28-4.98s-2.37-4.98-5.28-4.98-5.28,2.23-5.28,4.98,2.37,4.98,5.28,4.98Zm0-16.65c2.76,0,5.01-2.11,5.01-4.72s-2.24-4.72-5.01-4.72-5.01,2.11-5.01,4.72,2.24,4.72,5.01,4.72Zm0-16.65c2.61,0,4.73-2,4.73-4.46s-2.12-4.46-4.73-4.46-4.73,2-4.73,4.46,2.12,4.46,4.73,4.46Zm0-16.65c2.46,0,4.45-1.88,4.45-4.2s-1.99-4.2-4.45-4.2-4.45,1.88-4.45,4.2,1.99,4.2,4.45,4.2Zm0-16.65c2.3,0,4.17-1.76,4.17-3.93s-1.87-3.93-4.17-3.93-4.17,1.76-4.17,3.93,1.87,3.93,4.17,3.93Zm0-16.65c2.15,0,3.89-1.64,3.89-3.67s-1.74-3.67-3.89-3.67-3.89,1.64-3.89,3.67,1.74,3.67,3.89,3.67Zm0-16.65c2,0,3.62-1.53,3.62-3.41s-1.62-3.41-3.62-3.41-3.62,1.53-3.62,3.41,1.62,3.41,3.62,3.41Zm0-16.65c1.84,0,3.34-1.41,3.34-3.15s-1.49-3.15-3.34-3.15-3.34,1.41-3.34,3.15,1.49,3.15,3.34,3.15Zm0-16.65c1.69,0,3.06-1.29,3.06-2.88s-1.37-2.88-3.06-2.88-3.06,1.29-3.06,2.88,1.37,2.88,3.06,2.88Zm0-16.65c1.54,0,2.78-1.17,2.78-2.62s-1.25-2.62-2.78-2.62-2.78,1.17-2.78,2.62,1.25,2.62,2.78,2.62Zm0-16.65c1.38,0,2.5-1.06,2.5-2.36s-1.12-2.36-2.5-2.36-2.5,1.06-2.5,2.36,1.12,2.36,2.5,2.36Zm0-16.65c1.23,0,2.22-.94,2.22-2.1s-1-2.1-2.22-2.1-2.22.94-2.22,2.1,1,2.1,2.22,2.1Zm0-16.65c1.08,0,1.95-.82,1.95-1.84s-.87-1.84-1.95-1.84-1.95.82-1.95,1.84.87,1.84,1.95,1.84Zm0-16.65c.92,0,1.67-.7,1.67-1.57s-.75-1.57-1.67-1.57-1.67.7-1.67,1.57.75,1.57,1.67,1.57Zm0-16.65c.77,0,1.39-.59,1.39-1.31s-.62-1.31-1.39-1.31-1.39.59-1.39,1.31.62,1.31,1.39,1.31Zm0-16.65c.61,0,1.11-.47,1.11-1.05s-.5-1.05-1.11-1.05-1.11.47-1.11,1.05.5,1.05,1.11,1.05Zm0-16.65c.46,0,.83-.35.83-.79s-.37-.79-.83-.79-.83.35-.83.79.37.79.83.79Zm0-16.65c.31,0,.56-.23.56-.52s-.25-.52-.56-.52-.56.23-.56.52.25.52.56.52Zm0-16.65c.15,0,.28-.12.28-.26s-.12-.26-.28-.26-.28.12-.28.26.12.26.28.26Zm15.09,432.88c4.15,0,7.51-3.17,7.51-7.08s-3.36-7.08-7.51-7.08-7.51,3.17-7.51,7.08,3.36,7.08,7.51,7.08Zm0-16.65c3.99,0,7.23-3.05,7.23-6.82s-3.24-6.82-7.23-6.82-7.23,3.05-7.23,6.82,3.24,6.82,7.23,6.82Zm0-16.65c3.84,0,6.95-2.93,6.95-6.55s-3.11-6.55-6.95-6.55-6.95,2.93-6.95,6.55,3.11,6.55,6.95,6.55Zm0-16.65c3.69,0,6.67-2.82,6.67-6.29s-2.99-6.29-6.67-6.29-6.67,2.82-6.67,6.29,2.99,6.29,6.67,6.29Zm0-16.65c3.53,0,6.4-2.7,6.4-6.03s-2.86-6.03-6.4-6.03-6.4,2.7-6.4,6.03,2.86,6.03,6.4,6.03Zm0-16.65c3.38,0,6.12-2.58,6.12-5.77s-2.74-5.77-6.12-5.77-6.12,2.58-6.12,5.77,2.74,5.77,6.12,5.77Zm0-16.65c3.23,0,5.84-2.47,5.84-5.51s-2.61-5.51-5.84-5.51-5.84,2.47-5.84,5.51,2.61,5.51,5.84,5.51Zm0-16.65c3.07,0,5.56-2.35,5.56-5.24s-2.49-5.24-5.56-5.24-5.56,2.35-5.56,5.24,2.49,5.24,5.56,5.24Zm0-16.65c2.92,0,5.28-2.23,5.28-4.98s-2.37-4.98-5.28-4.98-5.28,2.23-5.28,4.98,2.37,4.98,5.28,4.98Zm0-16.65c2.76,0,5.01-2.11,5.01-4.72s-2.24-4.72-5.01-4.72-5.01,2.11-5.01,4.72,2.24,4.72,5.01,4.72Zm0-16.65c2.61,0,4.73-2,4.73-4.46s-2.12-4.46-4.73-4.46-4.73,2-4.73,4.46,2.12,4.46,4.73,4.46Zm0-16.65c2.46,0,4.45-1.88,4.45-4.2s-1.99-4.2-4.45-4.2-4.45,1.88-4.45,4.2,1.99,4.2,4.45,4.2Zm0-16.65c2.3,0,4.17-1.76,4.17-3.93s-1.87-3.93-4.17-3.93-4.17,1.76-4.17,3.93,1.87,3.93,4.17,3.93Zm0-16.65c2.15,0,3.89-1.64,3.89-3.67s-1.74-3.67-3.89-3.67-3.89,1.64-3.89,3.67,1.74,3.67,3.89,3.67Zm0-16.65c2,0,3.62-1.53,3.62-3.41s-1.62-3.41-3.62-3.41-3.62,1.53-3.62,3.41,1.62,3.41,3.62,3.41Zm0-16.65c1.84,0,3.34-1.41,3.34-3.15s-1.49-3.15-3.34-3.15-3.34,1.41-3.34,3.15,1.49,3.15,3.34,3.15Zm0-16.65c1.69,0,3.06-1.29,3.06-2.88s-1.37-2.88-3.06-2.88-3.06,1.29-3.06,2.88,1.37,2.88,3.06,2.88Zm0-16.65c1.54,0,2.78-1.17,2.78-2.62s-1.25-2.62-2.78-2.62-2.78,1.17-2.78,2.62,1.25,2.62,2.78,2.62Zm0-16.65c1.38,0,2.5-1.06,2.5-2.36s-1.12-2.36-2.5-2.36-2.5,1.06-2.5,2.36,1.12,2.36,2.5,2.36Zm0-16.65c1.23,0,2.22-.94,2.22-2.1s-1-2.1-2.22-2.1-2.22.94-2.22,2.1,1,2.1,2.22,2.1Zm0-16.65c1.08,0,1.95-.82,1.95-1.84s-.87-1.84-1.95-1.84-1.95.82-1.95,1.84.87,1.84,1.95,1.84Zm0-16.65c.92,0,1.67-.7,1.67-1.57s-.75-1.57-1.67-1.57-1.67.7-1.67,1.57.75,1.57,1.67,1.57Zm0-16.65c.77,0,1.39-.59,1.39-1.31s-.62-1.31-1.39-1.31-1.39.59-1.39,1.31.62,1.31,1.39,1.31Zm0-16.65c.61,0,1.11-.47,1.11-1.05s-.5-1.05-1.11-1.05-1.11.47-1.11,1.05.5,1.05,1.11,1.05Zm0-16.65c.46,0,.83-.35.83-.79s-.37-.79-.83-.79-.83.35-.83.79.37.79.83.79Zm0-16.65c.31,0,.56-.23.56-.52s-.25-.52-.56-.52-.56.23-.56.52.25.52.56.52Zm0-16.65c.15,0,.28-.12.28-.26s-.12-.26-.28-.26-.28.12-.28.26.12.26.28.26Zm15.09,432.88c4.15,0,7.51-3.17,7.51-7.08s-3.36-7.08-7.51-7.08-7.51,3.17-7.51,7.08,3.36,7.08,7.51,7.08Zm0-16.65c3.99,0,7.23-3.05,7.23-6.82s-3.24-6.82-7.23-6.82-7.23,3.05-7.23,6.82,3.24,6.82,7.23,6.82Zm0-16.65c3.84,0,6.95-2.93,6.95-6.55s-3.11-6.55-6.95-6.55-6.95,2.93-6.95,6.55,3.11,6.55,6.95,6.55Zm0-16.65c3.69,0,6.67-2.82,6.67-6.29s-2.99-6.29-6.67-6.29-6.67,2.82-6.67,6.29,2.99,6.29,6.67,6.29Zm0-16.65c3.53,0,6.4-2.7,6.4-6.03s-2.86-6.03-6.4-6.03-6.4,2.7-6.4,6.03,2.86,6.03,6.4,6.03Zm0-16.65c3.38,0,6.12-2.58,6.12-5.77s-2.74-5.77-6.12-5.77-6.12,2.58-6.12,5.77,2.74,5.77,6.12,5.77Zm0-16.65c3.23,0,5.84-2.47,5.84-5.51s-2.61-5.51-5.84-5.51-5.84,2.47-5.84,5.51,2.61,5.51,5.84,5.51Zm0-16.65c3.07,0,5.56-2.35,5.56-5.24s-2.49-5.24-5.56-5.24-5.56,2.35-5.56,5.24,2.49,5.24,5.56,5.24Zm0-16.65c2.92,0,5.28-2.23,5.28-4.98s-2.37-4.98-5.28-4.98-5.28,2.23-5.28,4.98,2.37,4.98,5.28,4.98Zm0-16.65c2.76,0,5.01-2.11,5.01-4.72s-2.24-4.72-5.01-4.72-5.01,2.11-5.01,4.72,2.24,4.72,5.01,4.72Zm0-16.65c2.61,0,4.73-2,4.73-4.46s-2.12-4.46-4.73-4.46-4.73,2-4.73,4.46,2.12,4.46,4.73,4.46Zm0-16.65c2.46,0,4.45-1.88,4.45-4.2s-1.99-4.2-4.45-4.2-4.45,1.88-4.45,4.2,1.99,4.2,4.45,4.2Zm0-16.65c2.3,0,4.17-1.76,4.17-3.93s-1.87-3.93-4.17-3.93-4.17,1.76-4.17,3.93,1.87,3.93,4.17,3.93Zm0-16.65c2.15,0,3.89-1.64,3.89-3.67s-1.74-3.67-3.89-3.67-3.89,1.64-3.89,3.67,1.74,3.67,3.89,3.67Zm0-16.65c2,0,3.62-1.53,3.62-3.41s-1.62-3.41-3.62-3.41-3.62,1.53-3.62,3.41,1.62,3.41,3.62,3.41Zm0-16.65c1.84,0,3.34-1.41,3.34-3.15s-1.49-3.15-3.34-3.15-3.34,1.41-3.34,3.15,1.49,3.15,3.34,3.15Zm0-16.65c1.69,0,3.06-1.29,3.06-2.88s-1.37-2.88-3.06-2.88-3.06,1.29-3.06,2.88,1.37,2.88,3.06,2.88Zm0-16.65c1.54,0,2.78-1.17,2.78-2.62s-1.25-2.62-2.78-2.62-2.78,1.17-2.78,2.62,1.24,2.62,2.78,2.62Zm0-16.65c1.38,0,2.5-1.06,2.5-2.36s-1.12-2.36-2.5-2.36-2.5,1.06-2.5,2.36,1.12,2.36,2.5,2.36Zm0-16.65c1.23,0,2.22-.94,2.22-2.1s-1-2.1-2.22-2.1-2.22.94-2.22,2.1,1,2.1,2.22,2.1Zm0-16.65c1.08,0,1.95-.82,1.95-1.84s-.87-1.84-1.95-1.84-1.95.82-1.95,1.84.87,1.84,1.95,1.84Zm0-16.65c.92,0,1.67-.7,1.67-1.57s-.75-1.57-1.67-1.57-1.67.7-1.67,1.57.75,1.57,1.67,1.57Zm0-16.65c.77,0,1.39-.59,1.39-1.31s-.62-1.31-1.39-1.31-1.39.59-1.39,1.31.62,1.31,1.39,1.31Zm0-16.65c.61,0,1.11-.47,1.11-1.05s-.5-1.05-1.11-1.05-1.11.47-1.11,1.05.5,1.05,1.11,1.05Zm0-16.65c.46,0,.83-.35.83-.79s-.37-.79-.83-.79-.83.35-.83.79.37.79.83.79Zm0-16.65c.31,0,.56-.23.56-.52s-.25-.52-.56-.52-.56.23-.56.52.25.52.56.52Zm0-16.65c.15,0,.28-.12.28-.26s-.12-.26-.28-.26-.28.12-.28.26.12.26.28.26Zm15.09,432.88c4.15,0,7.51-3.17,7.51-7.08s-3.36-7.08-7.51-7.08-7.51,3.17-7.51,7.08,3.36,7.08,7.51,7.08Zm0-16.65c3.99,0,7.23-3.05,7.23-6.82s-3.24-6.82-7.23-6.82-7.23,3.05-7.23,6.82,3.24,6.82,7.23,6.82Zm0-16.65c3.84,0,6.95-2.93,6.95-6.55s-3.11-6.55-6.95-6.55-6.95,2.93-6.95,6.55,3.11,6.55,6.95,6.55Zm0-16.65c3.69,0,6.67-2.82,6.67-6.29s-2.99-6.29-6.67-6.29-6.67,2.82-6.67,6.29,2.99,6.29,6.67,6.29Zm0-16.65c3.53,0,6.4-2.7,6.4-6.03s-2.86-6.03-6.4-6.03-6.4,2.7-6.4,6.03,2.86,6.03,6.4,6.03Zm0-16.65c3.38,0,6.12-2.58,6.12-5.77s-2.74-5.77-6.12-5.77-6.12,2.58-6.12,5.77,2.74,5.77,6.12,5.77Zm0-16.65c3.23,0,5.84-2.47,5.84-5.51s-2.61-5.51-5.84-5.51-5.84,2.47-5.84,5.51,2.61,5.51,5.84,5.51Zm0-16.65c3.07,0,5.56-2.35,5.56-5.24s-2.49-5.24-5.56-5.24-5.56,2.35-5.56,5.24,2.49,5.24,5.56,5.24Zm0-16.65c2.92,0,5.28-2.23,5.28-4.98s-2.37-4.98-5.28-4.98-5.28,2.23-5.28,4.98,2.37,4.98,5.28,4.98Zm0-16.65c2.76,0,5.01-2.11,5.01-4.72s-2.24-4.72-5.01-4.72-5.01,2.11-5.01,4.72,2.24,4.72,5.01,4.72Zm0-16.65c2.61,0,4.73-2,4.73-4.46s-2.12-4.46-4.73-4.46-4.73,2-4.73,4.46,2.12,4.46,4.73,4.46Zm0-16.65c2.46,0,4.45-1.88,4.45-4.2s-1.99-4.2-4.45-4.2-4.45,1.88-4.45,4.2,1.99,4.2,4.45,4.2Zm0-16.65c2.3,0,4.17-1.76,4.17-3.93s-1.87-3.93-4.17-3.93-4.17,1.76-4.17,3.93,1.87,3.93,4.17,3.93Zm0-16.65c2.15,0,3.89-1.64,3.89-3.67s-1.74-3.67-3.89-3.67-3.89,1.64-3.89,3.67,1.74,3.67,3.89,3.67Zm0-16.65c2,0,3.62-1.53,3.62-3.41s-1.62-3.41-3.62-3.41-3.62,1.53-3.62,3.41,1.62,3.41,3.62,3.41Zm0-16.65c1.84,0,3.34-1.41,3.34-3.15s-1.49-3.15-3.34-3.15-3.34,1.41-3.34,3.15,1.49,3.15,3.34,3.15Zm0-16.65c1.69,0,3.06-1.29,3.06-2.88s-1.37-2.88-3.06-2.88-3.06,1.29-3.06,2.88,1.37,2.88,3.06,2.88Zm0-16.65c1.54,0,2.78-1.17,2.78-2.62s-1.25-2.62-2.78-2.62-2.78,1.17-2.78,2.62,1.25,2.62,2.78,2.62Zm0-16.65c1.38,0,2.5-1.06,2.5-2.36s-1.12-2.36-2.5-2.36-2.5,1.06-2.5,2.36,1.12,2.36,2.5,2.36Zm0-16.65c1.23,0,2.22-.94,2.22-2.1s-1-2.1-2.22-2.1-2.22.94-2.22,2.1,1,2.1,2.22,2.1Zm0-16.65c1.08,0,1.95-.82,1.95-1.84s-.87-1.84-1.95-1.84-1.95.82-1.95,1.84.87,1.84,1.95,1.84Zm0-16.65c.92,0,1.67-.7,1.67-1.57s-.75-1.57-1.67-1.57-1.67.7-1.67,1.57.75,1.57,1.67,1.57Zm0-16.65c.77,0,1.39-.59,1.39-1.31s-.62-1.31-1.39-1.31-1.39.59-1.39,1.31.62,1.31,1.39,1.31Zm0-16.65c.61,0,1.11-.47,1.11-1.05s-.5-1.05-1.11-1.05-1.11.47-1.11,1.05.5,1.05,1.11,1.05Zm0-16.65c.46,0,.83-.35.83-.79s-.37-.79-.83-.79-.83.35-.83.79.37.79.83.79Zm0-16.65c.31,0,.56-.23.56-.52s-.25-.52-.56-.52-.56.23-.56.52.25.52.56.52Zm0-16.65c.15,0,.28-.12.28-.26s-.12-.26-.28-.26-.28.12-.28.26.12.26.28.26Zm15.09,432.88c4.15,0,7.51-3.17,7.51-7.08s-3.36-7.08-7.51-7.08-7.51,3.17-7.51,7.08,3.36,7.08,7.51,7.08Zm0-16.65c3.99,0,7.23-3.05,7.23-6.82s-3.24-6.82-7.23-6.82-7.23,3.05-7.23,6.82,3.24,6.82,7.23,6.82Zm0-16.65c3.84,0,6.95-2.93,6.95-6.55s-3.11-6.55-6.95-6.55-6.95,2.93-6.95,6.55,3.11,6.55,6.95,6.55Zm0-16.65c3.69,0,6.67-2.82,6.67-6.29s-2.99-6.29-6.67-6.29-6.67,2.82-6.67,6.29,2.99,6.29,6.67,6.29Zm0-16.65c3.53,0,6.4-2.7,6.4-6.03s-2.86-6.03-6.4-6.03-6.4,2.7-6.4,6.03,2.86,6.03,6.4,6.03Zm0-16.65c3.38,0,6.12-2.58,6.12-5.77s-2.74-5.77-6.12-5.77-6.12,2.58-6.12,5.77,2.74,5.77,6.12,5.77Zm0-16.65c3.23,0,5.84-2.47,5.84-5.51s-2.61-5.51-5.84-5.51-5.84,2.47-5.84,5.51,2.61,5.51,5.84,5.51Zm0-16.65c3.07,0,5.56-2.35,5.56-5.24s-2.49-5.24-5.56-5.24-5.56,2.35-5.56,5.24,2.49,5.24,5.56,5.24Zm0-16.65c2.92,0,5.28-2.23,5.28-4.98s-2.37-4.98-5.28-4.98-5.28,2.23-5.28,4.98,2.37,4.98,5.28,4.98Zm0-16.65c2.76,0,5.01-2.11,5.01-4.72s-2.24-4.72-5.01-4.72-5.01,2.11-5.01,4.72,2.24,4.72,5.01,4.72Zm0-16.65c2.61,0,4.73-2,4.73-4.46s-2.12-4.46-4.73-4.46-4.73,2-4.73,4.46,2.12,4.46,4.73,4.46Zm0-16.65c2.46,0,4.45-1.88,4.45-4.2s-1.99-4.2-4.45-4.2-4.45,1.88-4.45,4.2,1.99,4.2,4.45,4.2Zm0-16.65c2.3,0,4.17-1.76,4.17-3.93s-1.87-3.93-4.17-3.93-4.17,1.76-4.17,3.93,1.87,3.93,4.17,3.93Zm0-16.65c2.15,0,3.89-1.64,3.89-3.67s-1.74-3.67-3.89-3.67-3.89,1.64-3.89,3.67,1.74,3.67,3.89,3.67Zm0-16.65c2,0,3.62-1.53,3.62-3.41s-1.62-3.41-3.62-3.41-3.62,1.53-3.62,3.41,1.62,3.41,3.62,3.41Zm0-16.65c1.84,0,3.34-1.41,3.34-3.15s-1.49-3.15-3.34-3.15-3.34,1.41-3.34,3.15,1.49,3.15,3.34,3.15Zm0-16.65c1.69,0,3.06-1.29,3.06-2.88s-1.37-2.88-3.06-2.88-3.06,1.29-3.06,2.88,1.37,2.88,3.06,2.88Zm0-16.65c1.54,0,2.78-1.17,2.78-2.62s-1.24-2.62-2.78-2.62-2.78,1.17-2.78,2.62,1.24,2.62,2.78,2.62Zm0-16.65c1.38,0,2.5-1.06,2.5-2.36s-1.12-2.36-2.5-2.36-2.5,1.06-2.5,2.36,1.12,2.36,2.5,2.36Zm0-16.65c1.23,0,2.22-.94,2.22-2.1s-1-2.1-2.22-2.1-2.22.94-2.22,2.1,1,2.1,2.22,2.1Zm0-16.65c1.08,0,1.95-.82,1.95-1.84s-.87-1.84-1.95-1.84-1.95.82-1.95,1.84.87,1.84,1.95,1.84Zm0-16.65c.92,0,1.67-.7,1.67-1.57s-.75-1.57-1.67-1.57-1.67.7-1.67,1.57.75,1.57,1.67,1.57Zm0-16.65c.77,0,1.39-.59,1.39-1.31s-.62-1.31-1.39-1.31-1.39.59-1.39,1.31.62,1.31,1.39,1.31Zm0-16.65c.61,0,1.11-.47,1.11-1.05s-.5-1.05-1.11-1.05-1.11.47-1.11,1.05.5,1.05,1.11,1.05Zm0-16.65c.46,0,.83-.35.83-.79s-.37-.79-.83-.79-.83.35-.83.79.37.79.83.79Zm0-16.65c.31,0,.56-.23.56-.52s-.25-.52-.56-.52-.56.23-.56.52.25.52.56.52Zm0-16.65c.15,0,.28-.12.28-.26s-.12-.26-.28-.26-.28.12-.28.26.12.26.28.26Zm15.09,432.88c4.15,0,7.51-3.17,7.51-7.08s-3.36-7.08-7.51-7.08-7.51,3.17-7.51,7.08,3.36,7.08,7.51,7.08Zm0-16.65c3.99,0,7.23-3.05,7.23-6.82s-3.24-6.82-7.23-6.82-7.23,3.05-7.23,6.82,3.24,6.82,7.23,6.82Zm0-16.65c3.84,0,6.95-2.93,6.95-6.55s-3.11-6.55-6.95-6.55-6.95,2.93-6.95,6.55,3.11,6.55,6.95,6.55Zm0-16.65c3.69,0,6.67-2.82,6.67-6.29s-2.99-6.29-6.67-6.29-6.67,2.82-6.67,6.29,2.99,6.29,6.67,6.29Zm0-16.65c3.53,0,6.4-2.7,6.4-6.03s-2.86-6.03-6.4-6.03-6.4,2.7-6.4,6.03,2.86,6.03,6.4,6.03Zm0-16.65c3.38,0,6.12-2.58,6.12-5.77s-2.74-5.77-6.12-5.77-6.12,2.58-6.12,5.77,2.74,5.77,6.12,5.77Zm0-16.65c3.23,0,5.84-2.47,5.84-5.51s-2.61-5.51-5.84-5.51-5.84,2.47-5.84,5.51,2.61,5.51,5.84,5.51Zm0-16.65c3.07,0,5.56-2.35,5.56-5.24s-2.49-5.24-5.56-5.24-5.56,2.35-5.56,5.24,2.49,5.24,5.56,5.24Zm0-16.65c2.92,0,5.28-2.23,5.28-4.98s-2.37-4.98-5.28-4.98-5.28,2.23-5.28,4.98,2.37,4.98,5.28,4.98Zm0-16.65c2.76,0,5.01-2.11,5.01-4.72s-2.24-4.72-5.01-4.72-5.01,2.11-5.01,4.72,2.24,4.72,5.01,4.72Zm0-16.65c2.61,0,4.73-2,4.73-4.46s-2.12-4.46-4.73-4.46-4.73,2-4.73,4.46,2.12,4.46,4.73,4.46Zm0-16.65c2.46,0,4.45-1.88,4.45-4.2s-1.99-4.2-4.45-4.2-4.45,1.88-4.45,4.2,1.99,4.2,4.45,4.2Zm0-16.65c2.3,0,4.17-1.76,4.17-3.93s-1.87-3.93-4.17-3.93-4.17,1.76-4.17,3.93,1.87,3.93,4.17,3.93Zm0-16.65c2.15,0,3.89-1.64,3.89-3.67s-1.74-3.67-3.89-3.67-3.89,1.64-3.89,3.67,1.74,3.67,3.89,3.67Zm0-16.65c2,0,3.62-1.53,3.62-3.41s-1.62-3.41-3.62-3.41-3.62,1.53-3.62,3.41,1.62,3.41,3.62,3.41Zm0-16.65c1.84,0,3.34-1.41,3.34-3.15s-1.49-3.15-3.34-3.15-3.34,1.41-3.34,3.15,1.49,3.15,3.34,3.15Zm0-16.65c1.69,0,3.06-1.29,3.06-2.88s-1.37-2.88-3.06-2.88-3.06,1.29-3.06,2.88,1.37,2.88,3.06,2.88Zm0-16.65c1.54,0,2.78-1.17,2.78-2.62s-1.25-2.62-2.78-2.62-2.78,1.17-2.78,2.62,1.25,2.62,2.78,2.62Zm0-16.65c1.38,0,2.5-1.06,2.5-2.36s-1.12-2.36-2.5-2.36-2.5,1.06-2.5,2.36,1.12,2.36,2.5,2.36Zm0-16.65c1.23,0,2.22-.94,2.22-2.1s-1-2.1-2.22-2.1-2.22.94-2.22,2.1,1,2.1,2.22,2.1Zm0-16.65c1.08,0,1.95-.82,1.95-1.84s-.87-1.84-1.95-1.84-1.95.82-1.95,1.84.87,1.84,1.95,1.84Zm0-16.65c.92,0,1.67-.7,1.67-1.57s-.75-1.57-1.67-1.57-1.67.7-1.67,1.57.75,1.57,1.67,1.57Zm0-16.65c.77,0,1.39-.59,1.39-1.31s-.62-1.31-1.39-1.31-1.39.59-1.39,1.31.62,1.31,1.39,1.31Zm0-16.65c.61,0,1.11-.47,1.11-1.05s-.5-1.05-1.11-1.05-1.11.47-1.11,1.05.5,1.05,1.11,1.05Zm0-16.65c.46,0,.83-.35.83-.79s-.37-.79-.83-.79-.83.35-.83.79.37.79.83.79Zm0-16.65c.31,0,.56-.23.56-.52s-.25-.52-.56-.52-.56.23-.56.52.25.52.56.52Zm0-16.65c.15,0,.28-.12.28-.26s-.12-.26-.28-.26-.28.12-.28.26.12.26.28.26Zm15.09,432.88c4.15,0,7.51-3.17,7.51-7.08s-3.36-7.08-7.51-7.08-7.51,3.17-7.51,7.08,3.36,7.08,7.51,7.08Zm0-16.65c3.99,0,7.23-3.05,7.23-6.82s-3.24-6.82-7.23-6.82-7.23,3.05-7.23,6.82,3.24,6.82,7.23,6.82Zm0-16.65c3.84,0,6.95-2.93,6.95-6.55s-3.11-6.55-6.95-6.55-6.95,2.93-6.95,6.55,3.11,6.55,6.95,6.55Zm0-16.65c3.69,0,6.67-2.82,6.67-6.29s-2.99-6.29-6.67-6.29-6.67,2.82-6.67,6.29,2.99,6.29,6.67,6.29Zm0-16.65c3.53,0,6.4-2.7,6.4-6.03s-2.86-6.03-6.4-6.03-6.4,2.7-6.4,6.03,2.86,6.03,6.4,6.03Zm0-16.65c3.38,0,6.12-2.58,6.12-5.77s-2.74-5.77-6.12-5.77-6.12,2.58-6.12,5.77,2.74,5.77,6.12,5.77Zm0-16.65c3.23,0,5.84-2.47,5.84-5.51s-2.61-5.51-5.84-5.51-5.84,2.47-5.84,5.51,2.61,5.51,5.84,5.51Zm0-16.65c3.07,0,5.56-2.35,5.56-5.24s-2.49-5.24-5.56-5.24-5.56,2.35-5.56,5.24,2.49,5.24,5.56,5.24Zm0-16.65c2.92,0,5.28-2.23,5.28-4.98s-2.37-4.98-5.28-4.98-5.28,2.23-5.28,4.98,2.37,4.98,5.28,4.98Zm0-16.65c2.76,0,5.01-2.11,5.01-4.72s-2.24-4.72-5.01-4.72-5.01,2.11-5.01,4.72,2.24,4.72,5.01,4.72Zm0-16.65c2.61,0,4.73-2,4.73-4.46s-2.12-4.46-4.73-4.46-4.73,2-4.73,4.46,2.12,4.46,4.73,4.46Zm0-16.65c2.46,0,4.45-1.88,4.45-4.2s-1.99-4.2-4.45-4.2-4.45,1.88-4.45,4.2,1.99,4.2,4.45,4.2Zm0-16.65c2.3,0,4.17-1.76,4.17-3.93s-1.87-3.93-4.17-3.93-4.17,1.76-4.17,3.93,1.87,3.93,4.17,3.93Zm0-16.65c2.15,0,3.89-1.64,3.89-3.67s-1.74-3.67-3.89-3.67-3.89,1.64-3.89,3.67,1.74,3.67,3.89,3.67Zm0-16.65c2,0,3.62-1.53,3.62-3.41s-1.62-3.41-3.62-3.41-3.62,1.53-3.62,3.41,1.62,3.41,3.62,3.41Zm0-16.65c1.84,0,3.34-1.41,3.34-3.15s-1.49-3.15-3.34-3.15-3.34,1.41-3.34,3.15,1.49,3.15,3.34,3.15Zm0-16.65c1.69,0,3.06-1.29,3.06-2.88s-1.37-2.88-3.06-2.88-3.06,1.29-3.06,2.88,1.37,2.88,3.06,2.88Zm0-16.65c1.54,0,2.78-1.17,2.78-2.62s-1.24-2.62-2.78-2.62-2.78,1.17-2.78,2.62,1.25,2.62,2.78,2.62Zm0-16.65c1.38,0,2.5-1.06,2.5-2.36s-1.12-2.36-2.5-2.36-2.5,1.06-2.5,2.36,1.12,2.36,2.5,2.36Zm0-16.65c1.23,0,2.22-.94,2.22-2.1s-1-2.1-2.22-2.1-2.22.94-2.22,2.1,1,2.1,2.22,2.1Zm0-16.65c1.08,0,1.95-.82,1.95-1.84s-.87-1.84-1.95-1.84-1.95.82-1.95,1.84.87,1.84,1.95,1.84Zm0-16.65c.92,0,1.67-.7,1.67-1.57s-.75-1.57-1.67-1.57-1.67.7-1.67,1.57.75,1.57,1.67,1.57Zm0-16.65c.77,0,1.39-.59,1.39-1.31s-.62-1.31-1.39-1.31-1.39.59-1.39,1.31.62,1.31,1.39,1.31Zm0-16.65c.61,0,1.11-.47,1.11-1.05s-.5-1.05-1.11-1.05-1.11.47-1.11,1.05.5,1.05,1.11,1.05Zm0-16.65c.46,0,.83-.35.83-.79s-.37-.79-.83-.79-.83.35-.83.79.37.79.83.79Zm0-16.65c.31,0,.56-.23.56-.52s-.25-.52-.56-.52-.56.23-.56.52.25.52.56.52Zm0-16.65c.15,0,.28-.12.28-.26s-.12-.26-.28-.26-.28.12-.28.26.12.26.28.26Zm15.09,432.88c4.15,0,7.51-3.17,7.51-7.08s-3.36-7.08-7.51-7.08-7.51,3.17-7.51,7.08,3.36,7.08,7.51,7.08Zm0-16.65c3.99,0,7.23-3.05,7.23-6.82s-3.24-6.82-7.23-6.82-7.23,3.05-7.23,6.82,3.24,6.82,7.23,6.82Zm0-16.65c3.84,0,6.95-2.93,6.95-6.55s-3.11-6.55-6.95-6.55-6.95,2.93-6.95,6.55,3.11,6.55,6.95,6.55Zm0-16.65c3.69,0,6.67-2.82,6.67-6.29s-2.99-6.29-6.67-6.29-6.67,2.82-6.67,6.29,2.99,6.29,6.67,6.29Zm0-16.65c3.53,0,6.4-2.7,6.4-6.03s-2.86-6.03-6.4-6.03-6.4,2.7-6.4,6.03,2.86,6.03,6.4,6.03Zm0-16.65c3.38,0,6.12-2.58,6.12-5.77s-2.74-5.77-6.12-5.77-6.12,2.58-6.12,5.77,2.74,5.77,6.12,5.77Zm0-16.65c3.23,0,5.84-2.47,5.84-5.51s-2.61-5.51-5.84-5.51-5.84,2.47-5.84,5.51,2.61,5.51,5.84,5.51Zm0-16.65c3.07,0,5.56-2.35,5.56-5.24s-2.49-5.24-5.56-5.24-5.56,2.35-5.56,5.24,2.49,5.24,5.56,5.24Zm0-16.65c2.92,0,5.28-2.23,5.28-4.98s-2.37-4.98-5.28-4.98-5.28,2.23-5.28,4.98,2.37,4.98,5.28,4.98Zm0-16.65c2.76,0,5.01-2.11,5.01-4.72s-2.24-4.72-5.01-4.72-5.01,2.11-5.01,4.72,2.24,4.72,5.01,4.72Zm0-16.65c2.61,0,4.73-2,4.73-4.46s-2.12-4.46-4.73-4.46-4.73,2-4.73,4.46,2.12,4.46,4.73,4.46Zm0-16.65c2.46,0,4.45-1.88,4.45-4.2s-1.99-4.2-4.45-4.2-4.45,1.88-4.45,4.2,1.99,4.2,4.45,4.2Zm0-16.65c2.3,0,4.17-1.76,4.17-3.93s-1.87-3.93-4.17-3.93-4.17,1.76-4.17,3.93,1.87,3.93,4.17,3.93Zm0-16.65c2.15,0,3.89-1.64,3.89-3.67s-1.74-3.67-3.89-3.67-3.89,1.64-3.89,3.67,1.74,3.67,3.89,3.67Zm0-16.65c2,0,3.62-1.53,3.62-3.41s-1.62-3.41-3.62-3.41-3.62,1.53-3.62,3.41,1.62,3.41,3.62,3.41Zm0-16.65c1.84,0,3.34-1.41,3.34-3.15s-1.49-3.15-3.34-3.15-3.34,1.41-3.34,3.15,1.49,3.15,3.34,3.15Zm0-16.65c1.69,0,3.06-1.29,3.06-2.88s-1.37-2.88-3.06-2.88-3.06,1.29-3.06,2.88,1.37,2.88,3.06,2.88Zm0-16.65c1.54,0,2.78-1.17,2.78-2.62s-1.25-2.62-2.78-2.62-2.78,1.17-2.78,2.62,1.24,2.62,2.78,2.62Zm0-16.65c1.38,0,2.5-1.06,2.5-2.36s-1.12-2.36-2.5-2.36-2.5,1.06-2.5,2.36,1.12,2.36,2.5,2.36Zm0-16.65c1.23,0,2.22-.94,2.22-2.1s-1-2.1-2.22-2.1-2.22.94-2.22,2.1,1,2.1,2.22,2.1Zm0-16.65c1.08,0,1.95-.82,1.95-1.84s-.87-1.84-1.95-1.84-1.95.82-1.95,1.84.87,1.84,1.95,1.84Zm0-16.65c.92,0,1.67-.7,1.67-1.57s-.75-1.57-1.67-1.57-1.67.7-1.67,1.57.75,1.57,1.67,1.57Zm0-16.65c.77,0,1.39-.59,1.39-1.31s-.62-1.31-1.39-1.31-1.39.59-1.39,1.31.62,1.31,1.39,1.31Zm0-16.65c.61,0,1.11-.47,1.11-1.05s-.5-1.05-1.11-1.05-1.11.47-1.11,1.05.5,1.05,1.11,1.05Zm0-16.65c.46,0,.83-.35.83-.79s-.37-.79-.83-.79-.83.35-.83.79.37.79.83.79Zm0-16.65c.31,0,.56-.23.56-.52s-.25-.52-.56-.52-.56.23-.56.52.25.52.56.52Zm0-16.65c.15,0,.28-.12.28-.26s-.12-.26-.28-.26-.28.12-.28.26.12.26.28.26Zm15.09,483.22c-3.25,0-6.07,1.69-7.54,4.2-1.47-2.5-4.3-4.2-7.54-4.2s-6.07,1.69-7.54,4.2c-1.47-2.5-4.3-4.2-7.54-4.2s-6.07,1.69-7.54,4.2c-1.47-2.5-4.3-4.2-7.54-4.2s-6.07,1.69-7.54,4.2c-1.47-2.5-4.3-4.2-7.54-4.2s-6.07,1.69-7.54,4.2c-1.47-2.5-4.3-4.2-7.54-4.2s-6.07,1.69-7.54,4.2c-1.47-2.5-4.3-4.2-7.54-4.2s-6.07,1.69-7.54,4.2c-1.47-2.5-4.3-4.2-7.54-4.2s-6.07,1.69-7.54,4.2c-1.47-2.5-4.3-4.2-7.54-4.2s-6.07,1.69-7.54,4.2c-1.47-2.5-4.3-4.2-7.54-4.2s-6.07,1.69-7.54,4.2c-1.47-2.5-4.3-4.2-7.54-4.2s-6.07,1.69-7.54,4.2c-1.47-2.5-4.3-4.2-7.54-4.2s-6.07,1.69-7.54,4.2c-1.47-2.5-4.3-4.2-7.54-4.2s-6.07,1.69-7.54,4.2c-1.47-2.5-4.3-4.2-7.54-4.2s-6.07,1.69-7.54,4.2c-1.47-2.5-4.3-4.2-7.54-4.2s-6.07,1.69-7.54,4.2c-1.47-2.5-4.3-4.2-7.54-4.2s-6.07,1.69-7.54,4.2c-1.47-2.5-4.3-4.2-7.54-4.2s-6.07,1.69-7.54,4.2c-1.47-2.5-4.3-4.2-7.54-4.2s-6.07,1.69-7.54,4.2c-1.47-2.5-4.3-4.2-7.54-4.2s-6.07,1.69-7.54,4.2c-1.47-2.5-4.3-4.2-7.54-4.2s-6.07,1.69-7.54,4.2c-1.47-2.5-4.3-4.2-7.54-4.2s-6.07,1.69-7.54,4.2c-1.47-2.5-4.3-4.2-7.54-4.2s-6.07,1.69-7.54,4.2c-1.47-2.5-4.3-4.2-7.54-4.2s-6.07,1.69-7.54,4.2c-1.47-2.5-4.3-4.2-7.54-4.2s-6.07,1.69-7.54,4.2c-1.47-2.5-4.3-4.2-7.54-4.2s-6.07,1.69-7.54,4.2c-1.47-2.5-4.3-4.2-7.54-4.2s-6.07,1.69-7.54,4.2c-1.47-2.5-4.3-4.2-7.54-4.2s-6.07,1.69-7.54,4.2c-1.47-2.5-4.3-4.2-7.54-4.2s-6.07,1.69-7.54,4.2c-1.47-2.5-4.3-4.2-7.54-4.2s-6.07,1.69-7.54,4.2c-1.47-2.5-4.3-4.2-7.54-4.2s-6.07,1.69-7.54,4.2c-1.47-2.5-4.3-4.2-7.54-4.2s-6.07,1.69-7.54,4.2c-1.47-2.5-4.3-4.2-7.54-4.2s-6.07,1.69-7.54,4.2c-1.47-2.5-4.3-4.2-7.54-4.2-4.76,0-8.62,3.64-8.62,8.13s3.86,8.13,8.62,8.13c3.25,0,6.07-1.69,7.54-4.2,1.47,2.5,4.3,4.2,7.54,4.2s6.07-1.69,7.54-4.2c1.47,2.5,4.3,4.2,7.54,4.2s6.07-1.69,7.54-4.2c1.47,2.5,4.3,4.2,7.54,4.2s6.07-1.69,7.54-4.2c1.47,2.5,4.3,4.2,7.54,4.2s6.07-1.69,7.54-4.2c1.47,2.5,4.3,4.2,7.54,4.2s6.07-1.69,7.54-4.2c1.47,2.5,4.3,4.2,7.54,4.2s6.07-1.69,7.54-4.2c1.47,2.5,4.3,4.2,7.54,4.2s6.07-1.69,7.54-4.2c1.47,2.5,4.3,4.2,7.54,4.2s6.07-1.69,7.54-4.2c1.47,2.5,4.3,4.2,7.54,4.2s6.07-1.69,7.54-4.2c1.47,2.5,4.3,4.2,7.54,4.2s6.07-1.69,7.54-4.2c1.47,2.5,4.3,4.2,7.54,4.2s6.07-1.69,7.54-4.2c1.47,2.5,4.3,4.2,7.54,4.2s6.07-1.69,7.54-4.2c1.47,2.5,4.3,4.2,7.54,4.2s6.07-1.69,7.54-4.2c1.47,2.5,4.3,4.2,7.54,4.2s6.07-1.69,7.54-4.2c1.47,2.5,4.3,4.2,7.54,4.2s6.07-1.69,7.54-4.2c1.47,2.5,4.3,4.2,7.54,4.2s6.07-1.69,7.54-4.2c1.47,2.5,4.3,4.2,7.54,4.2s6.07-1.69,7.54-4.2c1.47,2.5,4.3,4.2,7.54,4.2s6.07-1.69,7.54-4.2c1.47,2.5,4.3,4.2,7.54,4.2s6.07-1.69,7.54-4.2c1.47,2.5,4.3,4.2,7.54,4.2s6.07-1.69,7.54-4.2c1.47,2.5,4.3,4.2,7.54,4.2s6.07-1.69,7.54-4.2c1.47,2.5,4.3,4.2,7.54,4.2s6.07-1.69,7.54-4.2c1.47,2.5,4.3,4.2,7.54,4.2s6.07-1.69,7.54-4.2c1.47,2.5,4.3,4.2,7.54,4.2s6.07-1.69,7.54-4.2c1.47,2.5,4.3,4.2,7.54,4.2s6.07-1.69,7.54-4.2c1.47,2.5,4.3,4.2,7.54,4.2s6.07-1.69,7.54-4.2c1.47,2.5,4.3,4.2,7.54,4.2s6.07-1.69,7.54-4.2c1.47,2.5,4.3,4.2,7.54,4.2s6.07-1.69,7.54-4.2c1.47,2.5,4.3,4.2,7.54,4.2s6.07-1.69,7.54-4.2c1.47,2.5,4.3,4.2,7.54,4.2s6.07-1.69,7.54-4.2c1.47,2.5,4.3,4.2,7.54,4.2s6.07-1.69,7.54-4.2c1.47,2.5,4.3,4.2,7.54,4.2,4.76,0,8.62-3.64,8.62-8.13s-3.86-8.13-8.62-8.13Zm0-50.34c4.15,0,7.51-3.17,7.51-7.08s-3.36-7.08-7.51-7.08-7.51,3.17-7.51,7.08,3.36,7.08,7.51,7.08Zm0-16.65c3.99,0,7.23-3.05,7.23-6.82s-3.24-6.82-7.23-6.82-7.23,3.05-7.23,6.82,3.24,6.82,7.23,6.82Zm0-16.65c3.84,0,6.95-2.93,6.95-6.55s-3.11-6.55-6.95-6.55-6.95,2.93-6.95,6.55,3.11,6.55,6.95,6.55Zm0-16.65c3.69,0,6.67-2.82,6.67-6.29s-2.99-6.29-6.67-6.29-6.67,2.82-6.67,6.29,2.99,6.29,6.67,6.29Zm0-16.65c3.53,0,6.4-2.7,6.4-6.03s-2.86-6.03-6.4-6.03-6.4,2.7-6.4,6.03,2.86,6.03,6.4,6.03Zm0-16.65c3.38,0,6.12-2.58,6.12-5.77s-2.74-5.77-6.12-5.77-6.12,2.58-6.12,5.77,2.74,5.77,6.12,5.77Zm0-16.65c3.23,0,5.84-2.47,5.84-5.51s-2.61-5.51-5.84-5.51-5.84,2.47-5.84,5.51,2.61,5.51,5.84,5.51Zm0-16.65c3.07,0,5.56-2.35,5.56-5.24s-2.49-5.24-5.56-5.24-5.56,2.35-5.56,5.24,2.49,5.24,5.56,5.24Zm0-16.65c2.92,0,5.28-2.23,5.28-4.98s-2.37-4.98-5.28-4.98-5.28,2.23-5.28,4.98,2.37,4.98,5.28,4.98Zm0-16.65c2.76,0,5.01-2.11,5.01-4.72s-2.24-4.72-5.01-4.72-5.01,2.11-5.01,4.72,2.24,4.72,5.01,4.72Zm0-16.65c2.61,0,4.73-2,4.73-4.46s-2.12-4.46-4.73-4.46-4.73,2-4.73,4.46,2.12,4.46,4.73,4.46Zm0-16.65c2.46,0,4.45-1.88,4.45-4.2s-1.99-4.2-4.45-4.2-4.45,1.88-4.45,4.2,1.99,4.2,4.45,4.2Zm0-16.65c2.3,0,4.17-1.76,4.17-3.93s-1.87-3.93-4.17-3.93-4.17,1.76-4.17,3.93,1.87,3.93,4.17,3.93Zm0-16.65c2.15,0,3.89-1.64,3.89-3.67s-1.74-3.67-3.89-3.67-3.89,1.64-3.89,3.67,1.74,3.67,3.89,3.67Zm0-16.65c2,0,3.62-1.53,3.62-3.41s-1.62-3.41-3.62-3.41-3.62,1.53-3.62,3.41,1.62,3.41,3.62,3.41Zm0-16.65c1.84,0,3.34-1.41,3.34-3.15s-1.49-3.15-3.34-3.15-3.34,1.41-3.34,3.15,1.49,3.15,3.34,3.15Zm0-16.65c1.69,0,3.06-1.29,3.06-2.88s-1.37-2.88-3.06-2.88-3.06,1.29-3.06,2.88,1.37,2.88,3.06,2.88Zm0-16.65c1.54,0,2.78-1.17,2.78-2.62s-1.25-2.62-2.78-2.62-2.78,1.17-2.78,2.62,1.25,2.62,2.78,2.62Zm0-16.65c1.38,0,2.5-1.06,2.5-2.36s-1.12-2.36-2.5-2.36-2.5,1.06-2.5,2.36,1.12,2.36,2.5,2.36Zm0-16.65c1.23,0,2.22-.94,2.22-2.1s-1-2.1-2.22-2.1-2.22.94-2.22,2.1,1,2.1,2.22,2.1Zm0-16.65c1.08,0,1.95-.82,1.95-1.84s-.87-1.84-1.95-1.84-1.95.82-1.95,1.84.87,1.84,1.95,1.84Zm0-16.65c.92,0,1.67-.7,1.67-1.57s-.75-1.57-1.67-1.57-1.67.7-1.67,1.57.75,1.57,1.67,1.57Zm0-16.65c.77,0,1.39-.59,1.39-1.31s-.62-1.31-1.39-1.31-1.39.59-1.39,1.31.62,1.31,1.39,1.31Zm0-16.65c.61,0,1.11-.47,1.11-1.05s-.5-1.05-1.11-1.05-1.11.47-1.11,1.05.5,1.05,1.11,1.05Zm0-16.65c.46,0,.83-.35.83-.79s-.37-.79-.83-.79-.83.35-.83.79.37.79.83.79Zm0-16.65c.31,0,.56-.23.56-.52s-.25-.52-.56-.52-.56.23-.56.52.25.52.56.52Zm0-16.65c.15,0,.28-.12.28-.26s-.12-.26-.28-.26-.28.12-.28.26.12.26.28.26Z"/>
</svg>